<mxfile host="app.diagrams.net" modified="2024-05-10T19:51:37.411Z" agent="Mozilla/5.0 (Windows NT 10.0; Win64; x64) AppleWebKit/537.36 (KHTML, like Gecko) Chrome/124.0.0.0 Safari/537.36" etag="0MqI5hBU94YdVUD2gt0s" version="24.3.1" type="github" pages="3">
  <diagram name="AS-IS" id="UuhC_c7OqcpIg9iLUWy8">
    <mxGraphModel dx="2261" dy="778" grid="1" gridSize="10" guides="1" tooltips="1" connect="1" arrows="1" fold="1" page="1" pageScale="1" pageWidth="827" pageHeight="1169" math="0" shadow="0">
      <root>
        <mxCell id="0" />
        <mxCell id="1" parent="0" />
        <mxCell id="YZVapWO6mahxntXNnKu_-1" value="Compensar" style="rounded=1;whiteSpace=wrap;html=1;dashed=1;fillColor=#fff2cc;strokeColor=#d6b656;verticalAlign=top;fontStyle=1" parent="1" vertex="1">
          <mxGeometry y="30" width="1470" height="800" as="geometry" />
        </mxCell>
        <mxCell id="NUtxbOa8r3Das-lV6Bm--14" value="&lt;b&gt;Fuentes de Información&lt;/b&gt;" style="rounded=1;whiteSpace=wrap;html=1;dashed=1;align=center;horizontal=1;verticalAlign=top;fillColor=#f8cecc;strokeColor=#b85450;" parent="1" vertex="1">
          <mxGeometry x="40" y="480" width="680" height="300" as="geometry" />
        </mxCell>
        <mxCell id="YZVapWO6mahxntXNnKu_-47" value="" style="group" parent="1" vertex="1" connectable="0">
          <mxGeometry x="510" y="90" width="850" height="360" as="geometry" />
        </mxCell>
        <mxCell id="YZVapWO6mahxntXNnKu_-43" value="&lt;b&gt;Negociaciones y Compras&lt;/b&gt;" style="rounded=1;whiteSpace=wrap;html=1;dashed=1;align=center;horizontal=1;verticalAlign=top;fillColor=#ffe6cc;strokeColor=#d79b00;" parent="YZVapWO6mahxntXNnKu_-47" vertex="1">
          <mxGeometry width="850.0000000000001" height="360" as="geometry" />
        </mxCell>
        <mxCell id="NUtxbOa8r3Das-lV6Bm--15" style="edgeStyle=orthogonalEdgeStyle;rounded=0;orthogonalLoop=1;jettySize=auto;html=1;" parent="YZVapWO6mahxntXNnKu_-47" source="YZVapWO6mahxntXNnKu_-27" edge="1">
          <mxGeometry relative="1" as="geometry">
            <mxPoint x="280" y="270" as="targetPoint" />
            <Array as="points">
              <mxPoint x="280" y="270" />
            </Array>
          </mxGeometry>
        </mxCell>
        <mxCell id="YZVapWO6mahxntXNnKu_-27" value="" style="sketch=0;aspect=fixed;pointerEvents=1;shadow=0;dashed=0;html=1;strokeColor=none;labelPosition=center;verticalLabelPosition=bottom;verticalAlign=top;align=center;fillColor=#00188D;shape=mxgraph.azure.file" parent="YZVapWO6mahxntXNnKu_-47" vertex="1">
          <mxGeometry x="140" y="250" width="37.6" height="40" as="geometry" />
        </mxCell>
        <mxCell id="YZVapWO6mahxntXNnKu_-4" value="" style="group" parent="1" vertex="1" connectable="0">
          <mxGeometry x="124" y="170" width="240" height="90" as="geometry" />
        </mxCell>
        <mxCell id="YZVapWO6mahxntXNnKu_-2" value="&lt;b&gt;Flujo alteryx Servicios Juridicos&lt;/b&gt;" style="rounded=1;whiteSpace=wrap;html=1;dashed=1;align=center;horizontal=1;verticalAlign=top;fillColor=#dae8fc;strokeColor=#6c8ebf;" parent="YZVapWO6mahxntXNnKu_-4" vertex="1">
          <mxGeometry width="240" height="90" as="geometry" />
        </mxCell>
        <mxCell id="YZVapWO6mahxntXNnKu_-3" value="" style="shape=image;verticalLabelPosition=bottom;labelBackgroundColor=default;verticalAlign=top;aspect=fixed;imageAspect=0;image=https://cdn.shortpixel.ai/spai2/q_glossy+ret_img+to_auto/www.alteryx.com/wp-content/themes/trifacta/assets/favicon/favicon-32x32.png;" parent="YZVapWO6mahxntXNnKu_-4" vertex="1">
          <mxGeometry width="20" height="20" as="geometry" />
        </mxCell>
        <mxCell id="YZVapWO6mahxntXNnKu_-16" value="Dataflow" style="sketch=0;html=1;verticalAlign=top;labelPosition=center;verticalLabelPosition=bottom;align=center;spacingTop=-6;fontSize=11;fontStyle=1;fontColor=#999999;shape=image;aspect=fixed;imageAspect=0;image=data:image/svg+xml,PHN2ZyB4bWxucz0iaHR0cDovL3d3dy53My5vcmcvMjAwMC9zdmciIHhtbG5zOnY9Imh0dHBzOi8vdmVjdGEuaW8vbmFubyIgd2lkdGg9IjE0LjUxOTk5OTUwNDA4OTM1NSIgaGVpZ2h0PSIyMCIgdmlld0JveD0iMCAwIDE0LjUxOTk5OTUwNDA4OTM1NSAyMCI+JiN4YTsJPHN0eWxlIHR5cGU9InRleHQvY3NzIj4mI3hhOwkuc3Qwe2ZpbGwtcnVsZTpldmVub2RkfSYjeGE7CS5zdDF7ZmlsbDojNjY5ZGY2O30mI3hhOwkuc3Qye2ZpbGw6I2FlY2JmYTt9JiN4YTsJLnN0M3tmaWxsOiM0Mjg1ZjQ7fSYjeGE7CTwvc3R5bGU+JiN4YTsJPGcgY2xhc3M9InN0MCI+JiN4YTsJCTxwYXRoIGNsYXNzPSJzdDEiIGQ9Ik03LjM3IDIuMDNsLTEuNzIuOTYgMS41MiAxLjUtLjAyIDEuNzMgMS4wMi4wMS4wMi0xLjczIDQuMjQgMi41Ni0uMDEgMS4wNyAxLjc3LjAzVjYuMTFMOS4wNSAzLjA0bC0uMjctLjk0eiIvPiYjeGE7CQk8cGF0aCBjbGFzcz0ic3QyIiBkPSJNNy4zNiAyLjAzbC0xLjQyLjM1LS4yOS42MUwuMzkgNS45Mi4zNiA3Ljk3IDIuMTQgOGwuMDItMS4wNyA0LjMxLTIuNDUtLjAyIDEuNzMuODYuMDEuMDYtNC4xOXoiLz4mI3hhOwkJPGcgY2xhc3M9InN0MSI+JiN4YTsJCQk8cGF0aCBkPSJNNy4zNiAyLjAzTDMuOTUgMCAyLjIxLjk1bDMuNDQgMi4wNCAxLjcyLS45NnptLjcxIDExLjc2bC0xLjcyLS4wMi0uMDIgMS43Mi44MiAyLjQ4IDEuNDItLjEyLjI5LS44NSA1LjI3LTIuOTMuMDMtMi4wOS0xLjc5LS4wMi0uMDIgMS4xLTQuMyAyLjQ1eiIvPiYjeGE7CQkJPHBhdGggZD0iTTcuMTUgMTcuOTdsLTMuNDYgMS45NGgtLjA1bC0xLjY2LS45OSAzLjQ5LTEuOTYgMS42OCAxLjAxeiIvPiYjeGE7CQk8L2c+JiN4YTsJCTxwYXRoIGNsYXNzPSJzdDMiIGQ9Ik0xMC44OC4wOWgtLjA1TDcuMzcgMi4wM2wxLjY4IDEuMDEgMy40OS0xLjk2ek0xMC42MiAyMGgtLjA1bC0zLjQyLTIuMDNoMCAwIDBsMS43Mi0uOTYgMy40NCAyLjA0eiIvPiYjeGE7CQk8cGF0aCBjbGFzcz0ic3QyIiBkPSJNLjMzIDEzLjg5di0yaDEuNzZsLS4wMSAxLjA0IDQuMjUgMi41Ni4wMi0xLjcyLjg2LjAxLS4wNiA0LjE4LTEuNjgtMXoiLz4mI3hhOwk8L2c+JiN4YTsJPGNpcmNsZSBjbGFzcz0ic3QyIiBjeD0iMTMuMzgiIGN5PSIxMC4wNCIgcj0iMS4xNCIvPiYjeGE7CTxjaXJjbGUgY2xhc3M9InN0MiIgY3g9IjEuMTQiIGN5PSI5Ljg4IiByPSIxLjE0Ii8+JiN4YTsJPGNpcmNsZSBjbGFzcz0ic3QyIiBjeD0iNy4zMiIgY3k9IjcuOTkiIHI9IjEuMTQiLz4mI3hhOwk8Y2lyY2xlIGNsYXNzPSJzdDIiIGN4PSI3LjIzIiBjeT0iMTIiIHI9IjEuMTQiLz4mI3hhOzwvc3ZnPg==;" parent="YZVapWO6mahxntXNnKu_-4" vertex="1">
          <mxGeometry x="90" y="30" width="31" height="42" as="geometry" />
        </mxCell>
        <mxCell id="YZVapWO6mahxntXNnKu_-14" value="&lt;b&gt;Comforce&lt;/b&gt;" style="rounded=1;whiteSpace=wrap;html=1;dashed=1;align=center;horizontal=1;verticalAlign=top;fillColor=#d5e8d4;strokeColor=#82b366;" parent="1" vertex="1">
          <mxGeometry x="-200" y="130" width="170" height="150" as="geometry" />
        </mxCell>
        <mxCell id="YZVapWO6mahxntXNnKu_-30" style="edgeStyle=orthogonalEdgeStyle;rounded=0;orthogonalLoop=1;jettySize=auto;html=1;" parent="1" source="YZVapWO6mahxntXNnKu_-17" target="YZVapWO6mahxntXNnKu_-2" edge="1">
          <mxGeometry relative="1" as="geometry">
            <Array as="points">
              <mxPoint x="14" y="180" />
              <mxPoint x="14" y="205" />
            </Array>
          </mxGeometry>
        </mxCell>
        <mxCell id="YZVapWO6mahxntXNnKu_-17" value="" style="strokeWidth=2;html=1;shape=mxgraph.flowchart.database;whiteSpace=wrap;" parent="1" vertex="1">
          <mxGeometry x="-135" y="160" width="40" height="40" as="geometry" />
        </mxCell>
        <mxCell id="YZVapWO6mahxntXNnKu_-31" style="edgeStyle=orthogonalEdgeStyle;rounded=0;orthogonalLoop=1;jettySize=auto;html=1;entryX=0;entryY=0.5;entryDx=0;entryDy=0;" parent="1" source="YZVapWO6mahxntXNnKu_-18" target="YZVapWO6mahxntXNnKu_-2" edge="1">
          <mxGeometry relative="1" as="geometry">
            <Array as="points">
              <mxPoint x="14" y="240" />
              <mxPoint x="14" y="205" />
            </Array>
          </mxGeometry>
        </mxCell>
        <mxCell id="YZVapWO6mahxntXNnKu_-18" value="" style="strokeWidth=2;html=1;shape=mxgraph.flowchart.database;whiteSpace=wrap;" parent="1" vertex="1">
          <mxGeometry x="-135" y="220" width="40" height="40" as="geometry" />
        </mxCell>
        <mxCell id="YZVapWO6mahxntXNnKu_-37" style="edgeStyle=orthogonalEdgeStyle;rounded=0;orthogonalLoop=1;jettySize=auto;html=1;" parent="1" source="YZVapWO6mahxntXNnKu_-22" edge="1">
          <mxGeometry relative="1" as="geometry">
            <mxPoint x="890" y="210.31999999999994" as="targetPoint" />
          </mxGeometry>
        </mxCell>
        <mxCell id="YZVapWO6mahxntXNnKu_-22" value="Consolidado datos&amp;nbsp;&lt;div&gt;juridicos del contrato.xlsx&lt;/div&gt;" style="sketch=0;aspect=fixed;pointerEvents=1;shadow=0;dashed=0;html=1;strokeColor=none;labelPosition=center;verticalLabelPosition=bottom;verticalAlign=top;align=center;fillColor=#00188D;shape=mxgraph.azure.file" parent="1" vertex="1">
          <mxGeometry x="650" y="190.64" width="37" height="39.36" as="geometry" />
        </mxCell>
        <mxCell id="YZVapWO6mahxntXNnKu_-35" style="edgeStyle=orthogonalEdgeStyle;rounded=0;orthogonalLoop=1;jettySize=auto;html=1;entryX=-0.007;entryY=0.628;entryDx=0;entryDy=0;entryPerimeter=0;" parent="1" source="YZVapWO6mahxntXNnKu_-2" target="YZVapWO6mahxntXNnKu_-22" edge="1">
          <mxGeometry relative="1" as="geometry" />
        </mxCell>
        <mxCell id="YZVapWO6mahxntXNnKu_-38" value="Se pasa a plantilla" style="text;html=1;align=center;verticalAlign=middle;resizable=0;points=[];autosize=1;strokeColor=none;fillColor=none;" parent="1" vertex="1">
          <mxGeometry x="734" y="185.82" width="120" height="30" as="geometry" />
        </mxCell>
        <mxCell id="YZVapWO6mahxntXNnKu_-50" style="edgeStyle=orthogonalEdgeStyle;rounded=0;orthogonalLoop=1;jettySize=auto;html=1;" parent="1" source="YZVapWO6mahxntXNnKu_-48" target="YZVapWO6mahxntXNnKu_-49" edge="1">
          <mxGeometry relative="1" as="geometry" />
        </mxCell>
        <mxCell id="xZtJYLT5vGzKNLacPbjZ-4" value="Accede a portal&amp;nbsp;&lt;br&gt;Contraloría" style="edgeLabel;html=1;align=center;verticalAlign=middle;resizable=0;points=[];" parent="YZVapWO6mahxntXNnKu_-50" vertex="1" connectable="0">
          <mxGeometry x="0.3821" y="2" relative="1" as="geometry">
            <mxPoint as="offset" />
          </mxGeometry>
        </mxCell>
        <mxCell id="YZVapWO6mahxntXNnKu_-48" value="&lt;b&gt;Equipo de Datos&lt;/b&gt;" style="rounded=1;whiteSpace=wrap;html=1;dashed=1;align=center;horizontal=1;verticalAlign=top;fillColor=#dae8fc;strokeColor=#6c8ebf;" parent="1" vertex="1">
          <mxGeometry x="1090" y="130" width="240" height="231.81" as="geometry" />
        </mxCell>
        <mxCell id="YZVapWO6mahxntXNnKu_-49" value="" style="sketch=0;pointerEvents=1;shadow=0;dashed=0;html=1;strokeColor=none;fillColor=#505050;labelPosition=center;verticalLabelPosition=bottom;verticalAlign=top;outlineConnect=0;align=center;shape=mxgraph.office.concepts.video_form;" parent="1" vertex="1">
          <mxGeometry x="1510" y="136.82" width="58" height="49" as="geometry" />
        </mxCell>
        <mxCell id="xZtJYLT5vGzKNLacPbjZ-1" value="" style="sketch=0;pointerEvents=1;shadow=0;dashed=0;html=1;strokeColor=none;fillColor=#505050;labelPosition=center;verticalLabelPosition=bottom;verticalAlign=top;outlineConnect=0;align=center;shape=mxgraph.office.concepts.video_form;" parent="1" vertex="1">
          <mxGeometry x="1510" y="312.80999999999995" width="58" height="49" as="geometry" />
        </mxCell>
        <mxCell id="xZtJYLT5vGzKNLacPbjZ-2" style="edgeStyle=orthogonalEdgeStyle;rounded=0;orthogonalLoop=1;jettySize=auto;html=1;entryX=-0.052;entryY=0.555;entryDx=0;entryDy=0;entryPerimeter=0;" parent="1" source="YZVapWO6mahxntXNnKu_-48" target="xZtJYLT5vGzKNLacPbjZ-1" edge="1">
          <mxGeometry relative="1" as="geometry" />
        </mxCell>
        <mxCell id="xZtJYLT5vGzKNLacPbjZ-10" value="Informe&amp;nbsp;&lt;br&gt;Contraloría" style="sketch=0;aspect=fixed;pointerEvents=1;shadow=0;dashed=0;html=1;strokeColor=none;labelPosition=center;verticalLabelPosition=bottom;verticalAlign=top;align=center;fillColor=#00188D;shape=mxgraph.azure.file" parent="1" vertex="1">
          <mxGeometry x="1196.5" y="191.28" width="27" height="28.72" as="geometry" />
        </mxCell>
        <mxCell id="xZtJYLT5vGzKNLacPbjZ-11" value="Informe&lt;br&gt;SuperSubsidio" style="sketch=0;aspect=fixed;pointerEvents=1;shadow=0;dashed=0;html=1;strokeColor=none;labelPosition=center;verticalLabelPosition=bottom;verticalAlign=top;align=center;fillColor=#00188D;shape=mxgraph.azure.file" parent="1" vertex="1">
          <mxGeometry x="1196.5" y="276.14" width="27" height="28.72" as="geometry" />
        </mxCell>
        <mxCell id="xZtJYLT5vGzKNLacPbjZ-12" value="Accede a portal&amp;nbsp;&lt;br&gt;Subsidio" style="edgeLabel;html=1;align=center;verticalAlign=middle;resizable=0;points=[];" parent="1" vertex="1" connectable="0">
          <mxGeometry x="1446.9166666666665" y="242.5" as="geometry">
            <mxPoint x="2" y="109" as="offset" />
          </mxGeometry>
        </mxCell>
        <mxCell id="QWbEbcTO2cf_7ncECevP-8" style="edgeStyle=orthogonalEdgeStyle;rounded=0;orthogonalLoop=1;jettySize=auto;html=1;" parent="1" source="QWbEbcTO2cf_7ncECevP-1" target="xZtJYLT5vGzKNLacPbjZ-10" edge="1">
          <mxGeometry relative="1" as="geometry" />
        </mxCell>
        <mxCell id="QWbEbcTO2cf_7ncECevP-1" value="&lt;div&gt;Plantilla Contraloría.xlsx&lt;/div&gt;" style="sketch=0;aspect=fixed;pointerEvents=1;shadow=0;dashed=0;html=1;strokeColor=none;labelPosition=center;verticalLabelPosition=bottom;verticalAlign=top;align=center;fillColor=#00188D;shape=mxgraph.azure.file" parent="1" vertex="1">
          <mxGeometry x="910" y="185.82" width="37" height="39.36" as="geometry" />
        </mxCell>
        <mxCell id="QWbEbcTO2cf_7ncECevP-7" value="&lt;div&gt;Plantilla SuperSubsidio.xlsx&lt;/div&gt;" style="sketch=0;aspect=fixed;pointerEvents=1;shadow=0;dashed=0;html=1;strokeColor=none;labelPosition=center;verticalLabelPosition=bottom;verticalAlign=top;align=center;fillColor=#00188D;shape=mxgraph.azure.file" parent="1" vertex="1">
          <mxGeometry x="899" y="270.82" width="37" height="39.36" as="geometry" />
        </mxCell>
        <mxCell id="QWbEbcTO2cf_7ncECevP-10" style="edgeStyle=orthogonalEdgeStyle;rounded=0;orthogonalLoop=1;jettySize=auto;html=1;entryX=0;entryY=0.5;entryDx=0;entryDy=0;entryPerimeter=0;" parent="1" source="QWbEbcTO2cf_7ncECevP-7" target="xZtJYLT5vGzKNLacPbjZ-11" edge="1">
          <mxGeometry relative="1" as="geometry" />
        </mxCell>
        <mxCell id="NUtxbOa8r3Das-lV6Bm--1" value="30%" style="text;html=1;align=center;verticalAlign=middle;resizable=0;points=[];autosize=1;strokeColor=none;fillColor=none;" parent="1" vertex="1">
          <mxGeometry x="-125" y="98" width="50" height="30" as="geometry" />
        </mxCell>
        <mxCell id="NUtxbOa8r3Das-lV6Bm--6" style="edgeStyle=orthogonalEdgeStyle;rounded=0;orthogonalLoop=1;jettySize=auto;html=1;" parent="1" source="NUtxbOa8r3Das-lV6Bm--3" target="YZVapWO6mahxntXNnKu_-38" edge="1">
          <mxGeometry relative="1" as="geometry">
            <mxPoint x="790" y="360" as="targetPoint" />
          </mxGeometry>
        </mxCell>
        <mxCell id="NUtxbOa8r3Das-lV6Bm--3" value="&lt;b&gt;SAP&lt;/b&gt;" style="rounded=1;whiteSpace=wrap;html=1;dashed=1;align=center;horizontal=1;verticalAlign=top;fillColor=#dae8fc;strokeColor=#6c8ebf;" parent="1" vertex="1">
          <mxGeometry x="460" y="880" width="190" height="90" as="geometry" />
        </mxCell>
        <mxCell id="NUtxbOa8r3Das-lV6Bm--7" value="&lt;b&gt;Ungerbook&lt;/b&gt;" style="rounded=1;whiteSpace=wrap;html=1;dashed=1;align=center;horizontal=1;verticalAlign=top;fillColor=#dae8fc;strokeColor=#6c8ebf;" parent="1" vertex="1">
          <mxGeometry x="480" y="550" width="190" height="90" as="geometry" />
        </mxCell>
        <mxCell id="NUtxbOa8r3Das-lV6Bm--9" style="edgeStyle=orthogonalEdgeStyle;rounded=0;orthogonalLoop=1;jettySize=auto;html=1;exitX=1;exitY=0.5;exitDx=0;exitDy=0;" parent="1" source="NUtxbOa8r3Das-lV6Bm--14" edge="1">
          <mxGeometry relative="1" as="geometry">
            <mxPoint x="790" y="630" as="targetPoint" />
            <Array as="points">
              <mxPoint x="790" y="630" />
            </Array>
          </mxGeometry>
        </mxCell>
        <mxCell id="NUtxbOa8r3Das-lV6Bm--8" value="&lt;b&gt;Zeus&lt;/b&gt;" style="rounded=1;whiteSpace=wrap;html=1;dashed=1;align=center;horizontal=1;verticalAlign=top;fillColor=#dae8fc;strokeColor=#6c8ebf;" parent="1" vertex="1">
          <mxGeometry x="480" y="660" width="190" height="90" as="geometry" />
        </mxCell>
        <mxCell id="NUtxbOa8r3Das-lV6Bm--11" value="&lt;b&gt;Infraestructura - CIO&lt;/b&gt;" style="rounded=1;whiteSpace=wrap;html=1;dashed=1;align=center;horizontal=1;verticalAlign=top;fillColor=#dae8fc;strokeColor=#6c8ebf;" parent="1" vertex="1">
          <mxGeometry x="250" y="670" width="190" height="90" as="geometry" />
        </mxCell>
        <mxCell id="NUtxbOa8r3Das-lV6Bm--12" value="&lt;b&gt;Financiero&lt;/b&gt;" style="rounded=1;whiteSpace=wrap;html=1;dashed=1;align=center;horizontal=1;verticalAlign=top;fillColor=#dae8fc;strokeColor=#6c8ebf;" parent="1" vertex="1">
          <mxGeometry x="250" y="540" width="190" height="90" as="geometry" />
        </mxCell>
        <mxCell id="NUtxbOa8r3Das-lV6Bm--13" value="&lt;b&gt;Convenios y Alianzas*&lt;/b&gt;" style="rounded=1;whiteSpace=wrap;html=1;dashed=1;align=center;horizontal=1;verticalAlign=top;fillColor=#dae8fc;strokeColor=#6c8ebf;" parent="1" vertex="1">
          <mxGeometry x="50" y="600" width="190" height="90" as="geometry" />
        </mxCell>
        <mxCell id="QWbEbcTO2cf_7ncECevP-5" value="&lt;b&gt;Servicios Juridicos&lt;/b&gt;" style="rounded=1;whiteSpace=wrap;html=1;dashed=1;align=center;horizontal=1;verticalAlign=top;fillColor=#d5e8d4;strokeColor=#82b366;" parent="1" vertex="1">
          <mxGeometry x="127" y="290" width="233" height="140" as="geometry" />
        </mxCell>
        <mxCell id="YZVapWO6mahxntXNnKu_-28" value="" style="sketch=0;outlineConnect=0;fontColor=#232F3E;gradientColor=none;fillColor=#DD344C;strokeColor=none;dashed=0;verticalLabelPosition=bottom;verticalAlign=top;align=center;html=1;fontSize=12;fontStyle=0;aspect=fixed;shape=mxgraph.aws4.email;" parent="1" vertex="1">
          <mxGeometry x="224.5" y="343.19000000000005" width="38" height="33.62" as="geometry" />
        </mxCell>
        <mxCell id="YZVapWO6mahxntXNnKu_-29" style="edgeStyle=orthogonalEdgeStyle;rounded=0;orthogonalLoop=1;jettySize=auto;html=1;entryX=0;entryY=0.5;entryDx=0;entryDy=0;entryPerimeter=0;" parent="1" source="YZVapWO6mahxntXNnKu_-28" target="YZVapWO6mahxntXNnKu_-27" edge="1">
          <mxGeometry relative="1" as="geometry">
            <mxPoint x="544" y="345" as="targetPoint" />
          </mxGeometry>
        </mxCell>
      </root>
    </mxGraphModel>
  </diagram>
  <diagram id="Zpi1E7uNhRCowrV2LNvV" name="To-be">
    <mxGraphModel dx="2876" dy="2280" grid="1" gridSize="10" guides="1" tooltips="1" connect="1" arrows="1" fold="1" page="1" pageScale="1" pageWidth="827" pageHeight="1169" math="0" shadow="0">
      <root>
        <mxCell id="0" />
        <mxCell id="1" parent="0" />
        <mxCell id="waJLMcrs9-8YJ0nlCUP1-5" value="&lt;font style=&quot;font-size: 15px;&quot;&gt;COMPENSAR&lt;/font&gt;" style="rounded=1;whiteSpace=wrap;html=1;fillColor=#ffe6cc;strokeColor=#d79b00;verticalAlign=top;" parent="1" vertex="1">
          <mxGeometry x="80" y="80" width="500" height="790" as="geometry" />
        </mxCell>
        <mxCell id="XEp5VxgZarHS8rTc24Yd-3" value="&lt;b&gt;&lt;font style=&quot;font-size: 14px;&quot;&gt;FUENTES DE INFORMACIÓN&lt;/font&gt;&lt;/b&gt;" style="rounded=1;whiteSpace=wrap;html=1;fillColor=#fff2cc;strokeColor=#d6b656;verticalAlign=top;" parent="1" vertex="1">
          <mxGeometry x="-413" y="70" width="373" height="870" as="geometry" />
        </mxCell>
        <mxCell id="PotIi0uFDxadUwsA1fSo-1" value="&lt;b style=&quot;font-size: 13px;&quot;&gt;Comforce&lt;/b&gt;" style="rounded=1;whiteSpace=wrap;html=1;dashed=1;align=center;horizontal=1;verticalAlign=top;fillColor=#f5f5f5;strokeColor=#666666;fontColor=#333333;fontSize=13;" parent="1" vertex="1">
          <mxGeometry x="-320" y="180" width="170" height="150" as="geometry" />
        </mxCell>
        <mxCell id="XEp5VxgZarHS8rTc24Yd-1" value="&lt;b&gt;SAP - OnPremise&lt;/b&gt;" style="rounded=1;whiteSpace=wrap;html=1;dashed=1;align=center;horizontal=1;verticalAlign=top;fillColor=#dae8fc;strokeColor=#6c8ebf;" parent="1" vertex="1">
          <mxGeometry x="-320" y="390" width="170" height="150" as="geometry" />
        </mxCell>
        <mxCell id="XEp5VxgZarHS8rTc24Yd-2" value="&lt;b&gt;CIO&lt;/b&gt;" style="rounded=1;whiteSpace=wrap;html=1;dashed=1;align=center;horizontal=1;verticalAlign=top;fillColor=#f8cecc;strokeColor=#b85450;" parent="1" vertex="1">
          <mxGeometry x="-320" y="600" width="170" height="150" as="geometry" />
        </mxCell>
        <mxCell id="XEp5VxgZarHS8rTc24Yd-4" value="&lt;font style=&quot;font-size: 14px;&quot;&gt;&lt;b&gt;Reporteador - Orquestador&lt;/b&gt;&lt;/font&gt;" style="rounded=1;whiteSpace=wrap;html=1;verticalAlign=top;" parent="1" vertex="1">
          <mxGeometry x="140" y="178" width="350" height="352" as="geometry" />
        </mxCell>
        <mxCell id="XEp5VxgZarHS8rTc24Yd-6" value="" style="group" parent="1" vertex="1" connectable="0">
          <mxGeometry x="740" y="70" width="310" height="760" as="geometry" />
        </mxCell>
        <mxCell id="XEp5VxgZarHS8rTc24Yd-5" value="" style="rounded=1;whiteSpace=wrap;html=1;fillColor=#f5f5f5;fontColor=#333333;strokeColor=#666666;" parent="XEp5VxgZarHS8rTc24Yd-6" vertex="1">
          <mxGeometry width="310" height="760" as="geometry" />
        </mxCell>
        <mxCell id="oeiz8CZj080YtUs42XQv-1" value="" style="sketch=0;aspect=fixed;pointerEvents=1;shadow=0;dashed=0;html=1;strokeColor=none;labelPosition=center;verticalLabelPosition=bottom;verticalAlign=top;align=center;fillColor=#00188D;shape=mxgraph.azure.file" parent="XEp5VxgZarHS8rTc24Yd-6" vertex="1">
          <mxGeometry x="145" y="80" width="47" height="50" as="geometry" />
        </mxCell>
        <mxCell id="oeiz8CZj080YtUs42XQv-2" value="Informe de Subsidio" style="text;html=1;align=center;verticalAlign=middle;resizable=0;points=[];autosize=1;strokeColor=none;fillColor=none;" parent="XEp5VxgZarHS8rTc24Yd-6" vertex="1">
          <mxGeometry x="110" y="128" width="130" height="30" as="geometry" />
        </mxCell>
        <mxCell id="oeiz8CZj080YtUs42XQv-3" value="Informe de Contraloría" style="sketch=0;aspect=fixed;pointerEvents=1;shadow=0;dashed=0;html=1;strokeColor=none;labelPosition=center;verticalLabelPosition=bottom;verticalAlign=top;align=center;fillColor=#00188D;shape=mxgraph.azure.file" parent="XEp5VxgZarHS8rTc24Yd-6" vertex="1">
          <mxGeometry x="145" y="300" width="47" height="50" as="geometry" />
        </mxCell>
        <mxCell id="oeiz8CZj080YtUs42XQv-4" value="Informe Ordenes de Compra" style="sketch=0;aspect=fixed;pointerEvents=1;shadow=0;dashed=0;html=1;strokeColor=none;labelPosition=center;verticalLabelPosition=bottom;verticalAlign=top;align=center;fillColor=#00188D;shape=mxgraph.azure.file" parent="XEp5VxgZarHS8rTc24Yd-6" vertex="1">
          <mxGeometry x="145" y="450" width="47" height="50" as="geometry" />
        </mxCell>
        <mxCell id="oeiz8CZj080YtUs42XQv-5" value="Informe Gestión documental" style="sketch=0;aspect=fixed;pointerEvents=1;shadow=0;dashed=0;html=1;strokeColor=none;labelPosition=center;verticalLabelPosition=bottom;verticalAlign=top;align=center;fillColor=#00188D;shape=mxgraph.azure.file" parent="XEp5VxgZarHS8rTc24Yd-6" vertex="1">
          <mxGeometry x="151.5" y="640" width="47" height="50" as="geometry" />
        </mxCell>
        <mxCell id="waJLMcrs9-8YJ0nlCUP1-1" value="" style="dashed=0;outlineConnect=0;html=1;align=center;labelPosition=center;verticalLabelPosition=bottom;verticalAlign=top;shape=mxgraph.webicons.adobe_pdf;fillColor=#F40C0C;gradientColor=#610603" parent="XEp5VxgZarHS8rTc24Yd-6" vertex="1">
          <mxGeometry x="30" y="10" width="27.4" height="30" as="geometry" />
        </mxCell>
        <mxCell id="waJLMcrs9-8YJ0nlCUP1-3" value="" style="shape=image;verticalLabelPosition=bottom;labelBackgroundColor=default;verticalAlign=top;aspect=fixed;imageAspect=0;image=data:image/png,iVBORw0KGgoAAAANSUhEUgAAAVgAAAGkCAYAAAB0PD0iAAAAAXNSR0IArs4c6QAAAARnQU1BAACxjwv8YQUAAAAJcEhZcwAADsMAAA7DAcdvqGQAAEDRSURBVHhe7Z0J1B1D+sYrBEkwRBKxM/Z17Ix1LGPszDG2MGMJYgzGDIODf5hjN5Yg1giCEDL2fRmMfd/FLvYIQiQiIpb7v7/yPXcqne9LIkl9S9/nd06dqq6urq7uW/X0229X921XqRKMMcZMd2ZoiI0xxkxnLLDGGJMJC6wxxmTCAmuMMZmwwBpjTCYssMYYkwkLrDHGZMICa4wxmbDAGmNMJiywxhiTCQusMcZkwgJrjDGZsMAaY0wmLLDGGJMJC6wxxmSiRQS2qU/Qkv/DDz/EAD/++GP47rvvYtoY8xOMD40hxkg6nkiTl1Jc//3330+QZ/LR4hasOgRCWhRWdQLlG2N+4ttvv51ojKRjiPxURLVetGvXriFlctLsAqura7EDAD/6jDPOGGaYYYbaencEYxpH44NYlqyC1qdp0b59+4aUyU2z/mWMfnAJqFAnATrK119/HT7//PMwYsSI8OWXX8arNcJrjAlh/PjxcTwwbmaZZZYw77zzhgUXXDB06tQpjiPyEVHSEt5UVFXG5KdZBFY/aBorrWVuYUaOHBneeuut8NJLL4U333wzvP/+++Hjjz+O+b7qGvMTiCYBQ2XWWWcNK6ywQthwww3DGmusEeaff/7aWGE95RhbM888c4xtqDQvzSKw+mH5sRFUlkmrI2Cxvvvuu+Hhhx8Ot956a3jyySfDF198UetEbItj3hgTwkwzzTSBP5UhvOSSS4bdd9897LTTTlFkAVEF3TFi+ZJHmjyTn2YVWEQSgSWmkwCugMcffzwMHDgw3HvvvWH06NE1EaZpEmaWjTE/wbiQhQqMlfnmmy/sscceYa+99oouA2A9ZTWmMGpwuSG05Jm8NIvAyhIlTn9UrNTbb7899OnTJ7z44otRdCnDlZZysnA9rcSYCcHfilAimrgJGCMszzPPPGHXXXcNBx54YFhggQViWdZJUBlHEl2Tn2bzwYLElWXcArgDTjjhhDBkyJBavm5d6ATANrJ+jalnJJBFY0V5xOTx0GvHHXcMBx10UHQXMHY6dOgQy5L284zmo9kcMVilKVisp5xySk1c6SB0DgmrboHA4mrqCfq9RFAGBjBjIB0jCCoByCNN/NFHH4VrrrkmnHvuueHTTz+N4qqyqlfbAeNLLjlQWTPtNKsPFriN4QflFuaGG26I07BYRzPUcehEhBT/4KZeoK/T/4llrU4Nc889d3zwdfLJJ4dvvvkmCjR14orTeJNho5cUEGBbuNOP7AJL9frhiPlBb7755vCPf/wjvP322zUrVVdgUOcqpo2pB9TniRFD7v4ktBpHkxoTbAds06VLl7DVVluF/v37x+0Q0o4dO8b1QJ0qD0pr/2baaDYfLD+krNgddtgh3HXXXWHMmDGxw7BenYYfVbHEl2WCMWVHoibrEuj7iOLYsWNrQjsp5F5DTInnmmuuOH2rb9++8e5R64G6EHBZrulYUxkz9TSbwI4bNy52kjfeeCNeUd97773aXD5+cH5oNYWYH5cwuau1MWUCgZWRoX7PMrf3jKEpQSINzB4gMPZ22WWXcMYZZ8T1PGTGN8sYYz/kaaylAmymjWY5i/x4/MgIKg+3+HH14IofNBVXyvID6wfXtsbUAxoPgMjR9xFXuQkYD5NDY0njCP/rqFGjwqBBg8KRRx4Zp0dSp6xXUL0SVrXBTBvNZsHyA3IFZs7rWWedFZ9ugq6g/KCk9QMD2zDNZO211669nWJMmZGIyujAEOGV8euuuy76Y1me3JBlewLlVJ/GID5ZXkT461//Grp27RrzCRLjlOKy+fk0qw8WDjjggHglxZ9U9LtC+qPSAbbddtu4zRxzzNGQa0x5Uf/X3RtGyWOPPRZ69uw5kSutKdhOhovGF0FpXkbYc889w9577x0NF/ZF3aofSJtpp1kEFmShcvUcPHhwvG1RZ+FHh7Qp5C2++OLh0EMPDfvss09DrjHlR+OAMYAhwgPh7bbbLo4fCeDkKI4pbauYV2kRWYSbV2wRVMoSKENIIV91ApY0D8XMpGk2T7Z+MMUSV5GmBT+gLVdTbyBkRTH7uUgshYRZMS8jXHHFFeGSSy6JX6zT/lJhpqzKs8wzFHy2pNP2maZpNoE1xrQeEEi+YIfIXnrppTEtt0AqzhLZVFAtsFOOBdaYOkSW6bBhw8LFF18chRaRFdxpIqIEyuKn5SGb3gKTAJtJY4E1pk5BJHE/fPbZZ9FVcOWVV0bXgUSVIKFNLVoo+mhN4/gsGVOHpMJJQFhxFTDDB6sW4SVguYIsV70dZqYMnylj6hDEFaHE74qQsoyLoF+/fuHyyy+P89R5yIzAIqqyXCmfWrRm0lhgjalDEFX5VvUNApaHDh0aBgwYEN0FElmCXmvHkpXrwEyeVnOWuCqKNG2Mmf5ojCGWfEKUZbkN+OPRCy+8MD78wj9LnsojzJRPkZvBTEyzCGx68vVDpXlK64dUGZAPyBgz/SiKIhYqY03577zzThRYHn599dVX8ZsIiDHzYPmOgZAVLItYkE6X6xXb+caYicDX+uGHH4azzz47frAbAUWE+S8wLF35ZRFXyuI6AASYPMrYjWCBNcY0gixQ/vUZfyz/76X/9cLClS8WJLYIKpYuMYJMqHcssMaYiUhdCPhhb7zxxnDIIYfEPL4jgqjKckVQ+WYCecIW7E/4DBhjGgUx5XYf4eQbsnyk6eijj44+WMSTh12UQWhxHWhaF3kW2J/wGTDGTAQPmhFIxfhWmbbFHFn+ap+/e8J6RVCLH+0G8gn1jgXWGDMRWKEKCCdiiiXLG18XXXRROOecc8Lo0aNrlqpmEVA2Fdp6xwJrjGkUhJLbf1mjcgEgsrzxRcCqlSsAMYb0oVe94zNgjGkUBBOhJCCsxMrnb2wQ2IEDB4YRI0ZEIdY6WbWkJbpFmsovGxZYY0yjIIKpqBZ9qny7oH///vFlhE8++aQh939/NyOBTcVZ1IsbwQJrjJlqXn/99fgVrssuuyy+mFB0C0ikiwLbmGCXEQusMWaqkGjiLuDBF586RGRTMUVIsWgR3mJ+PWCBNcZME8wg+OCDD+K3C5gry/dkARHFFSCrNhVVPUArOxZYY8xUkfpRSesDMddff32cXZBarrJkgWXK14MVa4E1xkwVElimbwl8sswuwJLl32r1gEtiSqxvFKQug7JigTXGTBWyRHmTC5HFQkVAX3311ZpPdvjw4dGKZV0qtKTtIjDGmCZAOGXF8gEYBBOhRUSHDBkS3QXXXnttnCeLJasPdeutMJDglhULrDFmqsAKTa1SfWVLYMmef/754aqrrgpff/11/EiMRJbPGiK6hFRkSSuUAQusMSYLWLT8x9eZZ54ZLrjggijGfFNWIoxrQa4DCS0WsUIZsMAaY7KgB1x8u6Bv377h+OOPjyKKiwBrt2PHjrFMU6IqC7ktY4E1xmQhnf/K92R5pZZPHSKkuAskoCxTVh+JoXya35axwBpjsoFIYqXie+VhF9+TPe6446JrAPGUgFKGNOVTV0FbxwJrjMmGrFAs0nHjxsU3vpi+hSVLHkKLuKYf7UZgCeQT2jIWWGNMFhBQWab4WwEh5cEXH4fp06dPdB0gqvqzRJDAsqy8tooF1hiTDVmw+FdJM0+WNJ865F8RrrjiijBy5MhaGQQZqxbkKmjLWGCNMdlAJPUX3qT1EEsiy/Qt/hYcSxaRxVcrq5dypLWN6iNPy3rttrVigTXGZAMhRCCVTsUR+HYBH+3GL6t/RlAZRBYLVlas6lEeZVq7hWuBNca0KPp2wQ033BBFVuIJElCWEViWEV5AiOVOaK1YYI0xLQaCiVC+9dZbtU8dIrKAqBaFVXmEtoAF1hjToiCciOgLL7wQBgwYEG666ab4qUOQwEJqzYI+LNOascAaY1oMXptFOJm+hVi+/PLL0V1w6623xo92kycrl0BaQgvktWYssMaYFkP+VIQWMWV2AZ865MGX/hlBosp6WaxYtaRl3bZWLLDGmBaDaVmpRUoakX322WejJYvI8pfg5PNAi3UgseUFhdaMBdYY02JgwTKXFaHVwywgfumll+Jfgt9yyy3hs88+i+tluSK2qTDLsoU03dJYYI0xLUbRh8oyAomQkn7++efjG1/8M8LYsWPjgy2+aZD+rxflsGwlrCyTDxLllsICa4xptSCOr7zySvwjRV5GGD16dOjUqVPtlVvAmsWHS1lElnVYt6SxkOXnbQkssMaYVg+zC0477bT4b7VYsIipPhBDGkFNXQaAJUtoSSywxphWC9YoFipCOmzYsCiyzDBATEeNGhXLSFhlqSKqWK9sR2hJLLDGmFaLrFCsVP5m5v333w/nnXdeuPDCC8Pss88ey7COebRyGciaJSC08s22BBZYY0yrRdYpIgqI7dtvvx1FduDAgVFYsVyxVCkjv6uE1QJrjDFNINFEQDXnlbw33ngjnHjiifEvwXEVIMR6WQERZpYBMflyHbQEFlhjTKtGIoloIq4IJ+4A3AUnn3xy/AqXRFZuAny3LSmswgJrjGnVyColaJmAe4DvyZ599tnxjS9eRsDS1XohixZUl9ZrORcWWGNMqwYRlA82RcL44osvhr59+4bbb7+99qlDrFnWq4ysWepindLpcg4ssMaYNg3iy6cO+fsZRBZLFhBVuRegKbHN6UqwwBpj2jy4Bp566qk4R/auu+6qfYWrKJ7kpRaxlnNhgTXGtGkQSfHkk0/Gf0a455574ke75XtFaNOXDlLXgH2wxhjTBIgnIinBfPTRR+OnDu++++6auwCwWgmUS8U2JxZYY0wpwCpFOBHQhx9+OFxyySXh3nvvje4CuQQoI5eALFemdOXCAmuMadMglHIBSGRZRmR54yt98KUyBImu4hxYYI0xbR7e8kJo9QYXYMk+/vjj8cFX0V0AWK4IrV5OyIEF1hjT5tEnDAGBJcgVgE+2T58+4c477wxjxoyJ6xBflS/ONJieWGCNMaWHf0Y488wzw4033lhzEWDt8lc1fMMgFxZYY0xdwMsIp5xySrjuuuvia7YdOnSI4moXgTHGTCV66EV46623wvHHHx//SFHYgjXGmKlEPlnNk33zzTfDCSecEC1Z+WlzYYE1xpQePcjiwRazB1599dVw+umnh6+++ir6YXNhgTXGlB5ZrzzYwv+KRfvhhx/GV2r9ooExxkwlElesV9L4ZEkzZeuJJ57wNC1j6hkJBJPpSacBcdB6UF69oWMmJiCiBM4HflYEVdOzsF4Ba3b06NETnL/pjQXWmFYEQoAAaJ4mt6/zzz9/FAuWZ5llloaSE5KKRO4HN62RVEzTAMV8WbJalxMLrDGtCAY8ApD+t9R8880XVlxxxbjMOpEKR3GZdL2EFB0/5ykV0pbCAmtMKwJB4BYXcSBGLDp37hz222+/0KVLl2jFqpz5H7L6BeeOc5TmtQQWWGNaGYhD+mR71llnDVtttVXo2bNnWHTRRWsT4yUejYkJ6XoJoAuSLjykCS1Nu2oDs0s8u9CB9+rVKwwaNCg+wUtJr8jqLEsvvXTo3bt36NGjR8MaY8pNOhw1OR6h4GMmX3/9dRg4cGC4//77w+effx6XsWhZn94Ss9wMw7rVwLESuCjx993Dhw+vWfrAOs6N4BwRuHDtvPPOoV+/fg1rpj8WWGNaEfR7PeVmHCAMeoCDaLCev6pGRBBZhJc8AlBWglsv6Pg5R08//XS4+eabw0cffdSw9n/rBeUIFlgLrKkz6PcIrGYMyDLV7a5iyqXiW89IwjgfvP560kknhZdeeql2kdF6wfkiNIfA2gdrTCuCgc+trsQVoZXPFTFFfMlXOYkrIlIUknqB88Gxc35IY9VznrgYtfQFyAJrTCsEUUAcNO+VNCCqjYkGyy0pJC0JQppa9sC5QGTlbmkpLLDGGJMJC6wxxmTCAmuMMZmwwBpjTCYssMYYkwkLrDHGZMICa4wxmbDAGmNMJiywxhiTCQusMcZkwgJrjDGZsMAaY0wmLLDGGJMJC6wxxmTCAmuMMZmwwBpjTCYssMYYkwkLrDHGZMICa4wxmbDAGmNMJiywxhiTCQusMcZkwgJrjDGZsMAaY0wmLLDGGJMJC6wxxmTCAmuMMZmwwBpjTCYssMYYkwkLrDHGZMICa4wxmbDAGmNMJiywxhiTCQusMcZkwgJrjDGZsMAaY0wmLLDGGJMJC6wxxmTCAmuMMZmwwBpjTCYssMYYkwkLrDFmIiqVSgxm2rDAGmMmol27djEIxPbHH3+sCa/Fd8qwwE4j7nCmjDTWr1PBNVOGBXYaaazTpZ3TwaEthmI/Ti1aLNnvv/8+ps2kscBOB9KOp85pTFsnFdUiTeWbCbHATiW6sjeGOqaDQ1sNQstpf59hhhnCjDPOGNNm0lhgfyZYqaCOx7IsVzpe2jmNacukBoT6tfq/mTLaVU9i9ntadqEfqFevXmHQoEFhzJgxcVmkwkSabZZeeunQu3fv0KNHj4Y1LQttooMhpPDdd9+FsWPHhvHjx8d1XNUtsKYMpIZEykwzzRQ6duwYZp555oaclifVF7Tl2GOPDa+//voE+aQFeYRZZ5017LzzzqFfv34Na6Y/FtgEtZNYp0XLElba/fnnn4fPPvssfPrppzH91VdfRbFNj8GYsqBxgQEx22yzhe7du4euXbuGbt26xbhDhw6hffv2sQzjJB0HxTGhuqYnaZ0W2FYssLpqs2/SOjU8MUVEEdXnnnsuPPLIIzF88MEH0YJlPWURYGJtZ0xbRe6uH374IS5rTBLPNddcUWTXW2+9GJZffvmw0EILhdlnn30CgSWWr1bbs155qm9aSetpbQJrH2wCnYoOoE7AbdC3334bPvzww/DYY4+Fgw8+OF4gLrzwwjBkyJAwatSo2AHVGdMf0ZiyIEGSAcFd2xtvvBGFqWfPnuHUU08Nd9xxR3jnnXfiegUJKSiPeoAxJvEuMxbYBHUAOgadCd/qe++9V+tIDz30UBg3blxchy+Kcuoo6kAEY9o6qQCqX9PvJZrctbGMa+zKK68M+++/f+jfv38YOnRoTUTlNtNyOjbYFrdC2bHAJqgzEOhcL7/8cjjjjDPCueeeG0aOHBnFFegodDB1QHUWYnUmY9oy9GMJKrH6PMKrfIJ8r9zpMVa4PX/22WdjXvogjGWJM+OGuuoBC2wBCedrr70W+vbtGy677LLYedSh6FwCK5ZOROdhGzpfepU2pq1CPyZIGNXvyZN1yx2erFSMD8bO4MGDw6WXXhrdBRLSdFyoHo2XsmOBTaDD0AHwrQ4cODBcf/31UUTpHGmHUCejc7EN68hjWzqbMWWAPo1AEtS/JZCC8QFaT3z55ZeHAQMGhNGjR9fcAKoDEGwMk2JdZcQCm0BnoSPcdttt4c477wxff/11FE86CU8cAWHVVZ18YiCvHjqMqQ/o14wHiWZK2tcZL0B5AvlYs4yhW2+9NY4f8hgraT31YohYERLoAMOHDw8PPvhgnOYBsly/+eabWgchJqRWLaQdyJi2DP1aVmcqqOSn/RxRZVn5CowfHgozA0duBNVRT1hgE+gEDz/8cHjmmWei35WOQp46TUraoYC42PmMaauobysU+zbLIPcYQWlg/Dz99NPh0UcfjSJMeYRWyPItOxbYBG5teLg1bNiwWqdRh1E8KaakjDFtkXQspKR5xTIfffRRnInD3R+GCkIrZLiUHQtswogRI+LTzy+//DLezuiWhs5gjPl5MI6YF8sbkIyh1EVA2gJbZ/BtAUSWmQF0CAurMVMP44i3vggSU8W2YOsQOgK3M1xd5WOql45gzPSGsYMvlmmP8uEqaH3ZscAm8EEXnO8SWIIF1piphwdbTHcUjCXGmMZW2bHAJkhURXq1Ncb8fBBTRLb4PCMdZ2XGApugd6f58dUhEFiljTFTj8aSZhPUg8haORL05gpXWToBsYIx5uehcZQaK5CKbNmxwCbIN0QgLReBOoaF1pgpR2NHAlucB1sPImuBNcaYTFhgjTEmExZYY4zJhAXWGGMyYYE1xphMWGCNMSYTFlhjjMmEBbbE6GWJIpOaz8s6rZ9cOc1vTMulcx4ntX0Ryha3UXpS9bBOgX2rLGm9mad6iy+SkOavTPS/UqqnqSA6duwYt0v/MkhQLs3T/oghra+xIEhTP3FxH6btYIEtKRrY6aCF4iAWEhy9VAGkKUN+MaTrEQLyZpllltr2et24uP8iqp/t2IaYZYkLaD8KKVqnOjgOtYOXRdLt0lczWU/Q3/5MiYhRhnr4DB/baFv2TShCWbZRuxorU4TjLr6yrXbrQmDaDhbYEsPAZHCnIsOALVpe5KssKAZtB8pXnpb1VyHEQsKS1tUYaZk0Vntob9oGwTLrJFpaz3a0AzFK81Sn0gSJHmlQflOBbTl3pNUm0mqH8iin+nROJJqqq6nAtjqfwP6Ejse0HSywJUWDVQNVpAOZWAJDYACnliO3wp07dw7du3cP8847b5hnnnlCly5dwmyzzRbFiXLanmW9XizSdFOoDtUHak8aaNfss88e909b5p9//hjmnnvu2B6Oh3oAgVK9QFxMs556SbNvieKkoLzOmwI0dp6pU/WyL6zeKUHH0alTp1inzil1kDZti3bVH2/yo2AaUQeBXr16hUGDBoUxY8bEZaH1oM6/9NJLh969e4cePXo0rMnLzTffHE488cTw5JNPNuT8BO3RQGmG0zXdSdstcZEIpceGWC255JJh4YUXjmnE9Re/+EUc7BILPqDMb8ffgfCB8vfffz+8/fbb8f+X+E8zCQT7m5JzpTaAtmH7OeaYIwroL3/5y7DAAguEOeecMwb+Ph0XgCw7hIvv+H7xxRexPcRvvfVWGDJkSBSkDh061G7pqZt9aR/UwfES5E6YFB9//HH8j6mxY8dO1GYtU6/OAcia5pN9a6+9drxAcC4nBefxgw8+iMcgVG9bgnOyxhprhCOPPDJsvfXWkz2/U0t6/tGWY489Nv6rbZpPWpBHoC/tvPPOoV+/fg1rpj8W2IQyCmzxvOoYdDyI5yKLLBJWX331sOKKK4bFFlssCtt8880X1yFmut1mGwKCxT8/ILIIAQL70ksvxX8RJeYDyz9XDKif22hEdLnllgvrrrtuWGKJJaLYI7AIPWKJKCJQCA4BAUO8EH7+++mTTz6JYk87Hn/88ShSiC5t1kWCwLbUt+2224bdd9891k8bJgWDlv6BgEsk2b+Ole2VL8EmsC/OIQOZC8bkBJbzOWDAgHD//fdP8Fu1xb5X7wLLjrNT7SANqUpln332qVRv6TjaCUL1gGuh2iFjvMwyy1Suuuqqhi3zc9NNN1XWXHPNCdqi9qiNxXa35qC2K64O7Fq6Kp6VqphWdtttt0p1MFeGDh1aqYpUPA/EhKpI1H474qqYTLRMqApqpWrdVW644YbKgQceWKkKY6UqhLV9N9Y2BbWnKnaVqshXqoOxcuedd1ZGjRpVqVpylaowxn0I0rRLbUkD+VXhj+mqVVu57777Kocddlhl5ZVXrlQHU6UqcnFfahdt3GabbSqPPvpoQ+2TpmohVzbbbLNK9aITz6XOp46DQF71QhHz2A9lyacvc45o26TgeO+6667KKqusEuuijapf56ytBNrMeGJcTe64p4W0bvSiapjVzhdx8dyxzG8z++yzRz3KiX2wJaXaiWpXb6j+1jVLCGtt1VVXDQcccEA44ogjwp/+9KdoKVZFK5bD2gLVQR5UO2WtTq3TNvhnt9xyy3DUUUeF/fffP6y00krRQpwSsCSwoP/yl7+Ev//972HDDTeMbaS96T6B5arwxLgI5dR2tt1ggw1ie6qiH1ZYYYW4jrayLQErEwv32WefjeUnx1xzzRWta2Lq4dghbQv5sl6BmPaut9568Y4gPZbGGDlyZHjxxRejlQzpuYfJbW9aFxbYkpIOcAanlhGuX//61+HPf/5zFJ7FF188CgXruUUnZhkxYjuER4OcuBgAgSTNdjwQQygPPvjgULXaanUqpLCMCCNaBx10UPjjH/8Y28ctP0zqyXvarrRuHQsPvoC24QLo2bNn7fZc5Qm4E55//vnoXijWTV3pMqFqkcWLCeeGoPpSKEce23EsnMutttqqNn2MQN2ql1jp9957Lzz22GPRzZK2s7gP0zawwJYUDUoEgAAMcPys+MF32WWXuJ5BLasPy0sCABr8aZ4GOvlA3SqDfxQos/3224fq7Vf070qsJUjEah/+3h133DFUb9VjPr5SCXb6X04CYZI4SQDT9tEG0rIiKUdAZH/7299GH6+2Zz37ePXVV8NTTz0Vl4F1QDnyqE/xaqutFrp27Vo7Fu2XZdIqq/pZ5qKBMHMeyCOoDUBMIO/NN9+MzwCoj2XB8YD2Z9oGFtiSwoDVoGegIgZYqzwwRMwkBhrIBASY7SS4rEcMKAOs0wCXUAAixfYSWB6Asb/ddtstbL755nE2AtuynnygTvaDlbvddtvVtpXlSX1Yt9o/T+6xNrl95pYeUXznnXfCp59+GsvqOHXMignsE2uYBxrsjzq1jnJYjY8++mg8DtapjRJrQVnNtGCWA8fU2DlRoB7q4IEdFw22B8rTHm2v88KxcFzDhw+foC3EoO1N28G/WElBvBi8DGTSWFGbbbZZzVJkHYIETAtikJPH7A5iBjhCgOXE7ero0aPjdCiEDiuTMhISttX+2AahJh+B3HPPPeNsEISCulIrmdkBWJULLbRQbAszAYTKqC0I4D//+c/oL+YYeCqNJX7xxRfHp+5szz4oT/toEyhmPX5nfLGII+3lPFC33ARMORPsW+dJAkceQkk9WLHUqXYqTXkCEHP+t9hii3hOBPtkncSTNNvy5JuZD9TFvgmcL9Wndpi2gwW2pCAyDGBEi8CtLQ+h8B9qwCIyDGbdkiOkCDEwmPXA5YYbbgh9+/aN4ZZbbomChpVKPZRjP2wv8aVe8hGH5ZdfPmy00UZRRCVYlCUgsIgVIISpCEl8CFiYTL254oorwmuvvRanYsnqPOOMM8IxxxwTHwpRPxBTv9K0g+NkH+wPP3HxIvHhhx+Ghx9+uNa2FLVbIrryyivHlx3YjnZqv0J1EHhZY/3114/lgHok+mxHHQgu7UFgn3vuudr50z5B7TRtCwtsiWGgMrARUJ5i86RewisBo4wGOG9KaSAjXswG2HTTTeOt/gknnBDngO66667RejzrrLPirSwCwPbA7T0WG3mIA3VT7w477BBvq8mXSFCOp/G4DyQiCI62FZTHJYB4I1isUxspO2rUqPDQQw+Fa665JpanDvbLRQVrnG1YJgACi98XOAeIHWUQbASW7aiDQL7aS5ry7JNjYb6wXsAgUJ66iJXHMeKSoKzqSesGnSdeYuBixkWNfeg8qF6JsmlbWGBLCoMfcQNu0Zm0j9AymHWbrhiBlACQ/u9//xutwltvvTW+TMAgpy69qcXLBVizTIFivcQLWC+hIY1VutRSS0VLlttqRAfxQcjYP6LMciooxCAR4g0oLEEJOa4H+YsBIUWcsGyph2NhP7QDYeZCgL/2mWeeidOyyEutZdqP+wP/Jw+ZoHheiAm0mW05p/hjWdZ5VKBdlOU3wP9KWutAx8k5JY80FxEetJHmGED7pAxtYT8cE3mmbWCBLSncwjMoCcxJReAYoAxgDVIGLhYT4sUyZRGfU089Nb6VRR0gC01Qz4gRI8IDDzwQfaCIJdsjDJQF3A0I1lVXXRXf5HnkkUdqbgXqojxB5UH5qUBTJ8Lcp0+fcPTRR8djod2yNAFxZGrTfvvtF63r3/zmN2GttdYK66yzTrRYcY+Q5oEbVjnHxrbsW+eIOnET3HPPPTXhRnh1XMSgc0edTPtiO8orTsHdwh2Atlc5oePECn/hhRfCG2+8EdfrPJBmW4Jpm1hgSwqDE+HE2sL/ueCCC9YsRQ1YBjjTlpQm/Pvf/45+QISW8gx0BLUoHtTPw6Hbb789fgOA9H333Rd9okyJQliYHfB///d/oX///tHCxAJm39SFeCG4bEdd7IsYqy7dF2KDNcr0Ml6MGDx4cHylGQt67733jgLarVu3+DrsXXfdFUWfB0UcA6/L4pvFsiVwMUHMEFRdFGTJsh/K8HqqLHXWg9pD29VOLlgILMdBnoRX50znFreMtpdwEtMGYBnrGsuZi5LOD/sQqp+4uM60biywJQYR4eMiiCvuAdAgZyBrsEtMCDzQYqBDOtjTQa1lhBcRw8fKvFcE8PTTT48CiJWIuOFOQPwQbAm19ocwI7xp3WobpIKEyGLJ4s/En8w8XsT70ksvjReFs88+Owr7sssuG10ICBj7oy7Vx35TVIb6AXF/9913o/9Zx81FAGGjDsrJ7YJ44ibgYRdQVucSmKnACx1c5BBHCSpQF3XqPOIewILVeSlCPtsQq37TNrDAlhgGIw+SEAOJiASruMxAR/CYIYAFp8E/KVjP7TkCQcAKGzZsWJzSJUtUdUg4FCM4PFjC0kTkKM86WWpsx7K2J1Yaq5OHY1w4EDkm8SPyvGbLwzcsZt4k+9WvfhXFFtiW49T+WWY/qVVIjBWLm0CiioVKrLbQPp0/xJy7A7ZTHSqn2QPpvrRvUFs451ykuBBRjlBE+Y2tM60bC2zJQYg0eT8d4BKCNI04Ym0ieFMC20gcEUzVR1xMp3mIC/CADGvxuuuuq4kq9bAewULYQNvRToUUljlGrFu+3vS73/0uWtNYtYceemh0LyB4agP7Yh+0nf3o+IE2MZuAV2cBQaWcyqjtgJuAh4fUB6qDMlzY8AMDx0Ge1lOX9svULKaeYeGzTDDlwQJbUhjQDFYetGDFMaCBQU6aoAGvGB9lKpRTgupLt2ksLfFIlxEeHuxwm4/vk3oQK2KVx83BsrZRHQosyzqkPgLuEPyjPOzidd2TTjop/OEPf4guBsqpLranPNvjgiBPljUzKdQWrFjOJ4HyOgbmFCOwuGHYVueBc451yzxfkAAL7ZuABY/lr2M05cICW3IQVwRCogAa3EKDWw9+JM5TQlqOdFPbpfWyP+0Ty413788888xw00031XycCBlIPNN6i/ugXpUjxupU/bgReNGBD9DwqiyiqLpVT9oe8pj2hR9ZFi71cb5YR57OHaKMi0KzCYCYuwamlklYaV+6nnrIY+4rU8e4c9A6lTPlwAJbUjRQGeQSH6EBrjxiiUwqAOk2UwLl023SOtQeliUkKo/PFouRW3oekjEflLYgttRBoDzCSJAYCtUtcQXyVI59MNuAV2s33njj6JNOt6H+VDh5sIXw8cCLdTovoHNJHoGXDrBiQceDwOKqSNH2xHI54Ld+5ZVX4v50nKZc+BctKQxkDWZiiZTSEgMtI1yydBWmhLRcY9tJwCRIrGe/gjTrsWSfeOKJOM3rX//6V7j88svj3FamcSG0k9oP24MEGHRsBI4L4UUIeSsNn6z2K1GmDFAeNwG+6P/85z+1tmsflCVNOfJ5K4wXKZg1QJ28XIBFy4d1tI1gPQF4kMh0MubeKk+xKQ8W2JKDcBVnBSgtkQAGNw+KNMjT8lNKcRulqZPAMjHCo2VgmYCLgttzXAW8JcbLBeeff358CMbrsMxwwNpVmyXYihW0LIFLyzHFi+lTWJmsJx9RVpsIgFXJdxeIyVMdajcx23DOEG4+WA483OJbBbx2rLqLINJcOPh/L4RcdRLUZlMO/GuWGAYugoVISBSANIJB0DKWHFYYg580UF7bFNE6fLwIDMKF1cbtd7oNFnRqVcqiJU2sdkhYSFOGp/i8xHDKKaeEww8/PL7FheDywZfbbrstWrdDhw6N08TYhmPACmVb0uxTx0xM/bRVLy1gZWrfrC/6n7kw4SZABIEyipUGyjN7AV8sdfHAC3cE+ZTTsWtf2h/WKy8YYC2n+yWY8mCBLTlMO0JkQeIggWCwM6BZJo1Vh8gy2EFxUwOf9QjKHnvsEcWPfyXge7O8lopvknf1EbSiqBLIQ8xVL0IMrJPo6BVe5ogydYo/p0NseWB12GGHxTmvWJnMI+UNLR0bdbBfjqkIeUyvYv5qitrB9rSLcog332NAfGkvZRBMlQXKI7B8BpH28uIB9QPlaAtlQOebOwpmTfCNBPaldquMKQ8W2BLDoOVJNd8NQBg0eBnkpDW4ARHRx6RZT5AViEiwDBJHiQKf/mPe6SqrrBL23XffcO6550YrE4sTseVpOl+U4nVWBEgWLbfQ/HMtT/n51wOsXyxhAgLFbTaWJv5N/Jq0lYD48mFq/LXnnXde/NsbxPbGG2+M08w4LlmNRfEC2s5FhLZAcX0qiLQVIeQ2XueOmPWUE0wLwxerY+CcqA7K0R7aogsNU9P49iwCrraqfsqY8mCBLSkSSUQHC5DBDBrQwKBmwBNrrixvH+mrW6zTegmA8gCR5P+0CBIdRAl/JJ81PO2008LVV18dZwYgtogpZWgXFh/iyOuufEibshdccEG48soro8/1+uuvjw+6EGxEi3ZTt/bNMmlu5R988ME4zYupVUWBohx56QUDwcbCBZYJuoAQsx9i8nFF8Borws6y6gKWgTyOmXm3zH9lmfNFOdqocnpYx4wJ3BvUCZTT/lTWlAMLbEnRYEUssJjw9ymPQY9FpUGNj5ZlxGqTTTaJQkg+UDYNCAfCgABza8wXqhArbnslPqkYYc3xrwVYsjwQIp+J+HzGj1t9vh+gfyngX2B5vRVLEMFadNFFoxDzaqzaKvGjbgRTb5HxRtTAgQNjm1kPrFcaaDt1kE8ArVf9EmGWCezv7rvvjudGAq+yOl4Clj+v6+KL1jkSbANsQz5fFsPHTD55BGA7tcuUAwtsHYAFxndQEVECgxxR0AAnDxBAbs31Z4WsR1QY9KRl1VKeCfv8BQ2WKXUJ1lGGPAka+2POJ7fF1Mf79/rKlSxJoW0FVjJP/XFfsI4gIaIcIke72C8iz8VC4sY6gtpBGbbBX4tgAvlarzRlqFP13HnnnbGttJ0y7FvbCHyv+J552KVzJFSOuwQ+4ahXY7VPrU+P25QDC2xJ0WAl5tVPBI6HKiwjAAxqRAIRYeAjTMA6PgPINCm+vYroIjaICn5a1uMbZT3v+VMH4NOU9SXRoCzbMNcTgdeUJPbHgzduk9lGbVGagJiRh/WK4GMtg8QNNwaBZaxYHrYh+Doe8lOhBfat84FfmnoI2n8RyrIPXmXl/FEngbaB0jpW7YdlBJYYqEczOZgBgQ+5qX1SjykP/jVLCgOVwEBG5PAl4qtEdBACiY1uvxFRymEFkubzg/hB+RQgU6Xwk/Km1bXXXhsGDBgQdtppp9rkevZBYFtge8QD8cFCZcI+t/CA8NAGBJdpUBIU6pGFmaaBh2R8BJyHaQie5pjKtYH1iIuBV2H1n2LUiwBSDtRGLEfe/8dl0pSosq38pRJQ5uYyI4P9cUwSU51noJy2J83+gbKIPufn3nvvnWDGA/WxnjQoNuXAAltSiuKCm4APUvPeuwa+BEwWGcKBOCJcCC/CxUOvvfbaKz6QwlfKe/3cBkvIgPoRFVmxBNWNtchUJ2LKIWoErFrmgjLhnrIE1hfbDQgQVvNFF10UxR2Ldscdd4z/WMsMAh6O9e7dO7o12B4Rpb7Ud6u6EEm+QcvsCtZRt8QybQeQj9BSD58w1IMpykicSXP+lK99kVa9QB6+V16W0PnWtrQZoeXcS6xNOfCvWVIYvLKuCAgAIsGDIEQDJAasRwy0DYKiPEQTMdUcWZ7ASzgQGcSBZdVDSAUGQUTQZBGST2Bb/ipbf1bIOsSG7VmPNU2sdbSJaV08VMM1cdxxx0Wrmrm3fF+AaWCyBompi+2Aelhmn3xQnI/LUH+6HlimDEFpYtqO1ckFAf8x+bqI6Jh1TijPOlC9QBn9xxnrKZcG8viNqNuUBwtsSWHQCg1ifLDc9vM/WdyuMpglPhLdVBSA7SgnsRGpuEhQEAgCYoOA4U5AVNgv26Z1s4z1escdd8TXYFmmLj38wZqTdSfIR/CZmcCnAJl7ysMv3AbUzTHQTlmC2h/HSptwVeDywJqmDEHHJYFMIV8x5XjYxbQ32qXjB2LKsH/aq3NCno4Bvyt/Z8O/RajeFPIUTHmwwJYUDXpixANBQCR4YMP3V7HkEAQEgPVYfYijxEMCQToNkC5TP4E09bAN4soEff43iyfm7If1rJNgskw5/KEXXnhhfBuLenBT0E61m1hon4QUylOvRJK02kSaY+P2nH86wFXCftmGQJsUTw58xoizHghyXAS2ZX8E1aPjZJl26MMuyjf1gQW2xEg8BELDMiLDAysm8eNXlJAhBBIKQorqIlZALAhsl4o1t/18EUtiJkFMtyUAH2/BsuQhFiKIVUl5+VHVftLFegT57JdAmguFRJBbeyxPXuVF9FnHPmg3dVCeOD1PTUFbeUiFm0DniG1Vl9pAmnMNWuacNGW9mvJigS0pGuQIiKwmRAQRRLzwf/KlqhNPPDH+Uyu38RID3dYWxQ1BIU6RQDHtij86PP744+NbVfwVjG73CWldoHz2w5QpRJDZCrQJKzsVeJUlFPcP5BEQT4Re4oZgI6yIPcLINLFUWEVjdTYF9WCJcjycL8QadI6pi3VqP+eSB2q8vUXa1Bcz/pMnBc2AOjEf5+ALRQyElMY6PH/xweuHvM3THDCVCH8gvsEU2tPU4G7NMMglNhIoCR0x/kQsWG7jmfjPDAN8hQijrDOOmTRB5wEhwxpDGJk4j5jy5Sv8m/JxSshUR/HcpXnUjZ+UD1wzfYspVLzeizAh3NondbINwkbMMSBaWMlYqrSf4+B2nG8TYDXi4+X4KEc9bEPMPoWOdUrg3OhfEXj5gH0iuAos80IFgX7Evjk/TPNSG+oFfiP85Lzdxjcl9HvnQHWjLfi6ucuAxvZJHgF3FN+92HrrrRvWTH/aVX/w7L84u9CB8lX5QYMG1b7wJNITQZptmA7E9BveFmoOeJcdi46nzCm0h4GpdrUFJBo8faftCBTCRD7LCARpjomBT5rXU/nKFA+QEBFmDzDnlIdIWGrUR1lEBkFDYBFCAuKIhah9sw+1AXTuCKTTc5mWV7v4rirTrmgP08V44YG2EHjQxbHQFi7UiD375haeCwQiy+vBrEvr1P510ZFg6xxMCZwHXotlRgNzW9k2hXbpfLMfLhy8FsuFo2hUlB3ODf/scOSRR0YRK56r6YX6FKAtxx57bDSW0nz1NSCPQL9m7jRfactGdcfZqXa4hlSlss8++1Sqg4WjnSBUD7gWqoMhxssss0zlqquuatgyP1Uro7LmmmtO0Ba1R20stru1hupAr1TFoFK9SleqA722XBXcmMcxkadjZBudd/IJVQGpzDnnnJXu3btXqoISA+nOnTvHetKyOkfad1ofacVKF/OJaafSqo+YQJ2dOnWqVIW3UhX/SlV0Y1u6dOlSqYpu7RhVd7FN5HH85OucaD/aTmWbCo2VZ1npdL3KsC+VI6iueggcP+OJcZVqwPQmrRu9qBpmE/wmSqft4reg36BHObEPtqTIOsOaIlQ7VLyKczuNdUWaMoKyBFA+ZZm3qVthuRCwXlNrjPLUp+3Zn2LVy3pBWuW1DcuyIov5irGcsVTxF+M+oF3cCmLBgtqhtNoBqlP70TqW03KTQtsrLdK2UpeOO2VK92HKhQW2xCCCEhNEVQKGEEgolCYUBUrpFPKoL91G+SqvGFS2MchvTHjIS+tlubFygnXpLX5j+6MM50N1ESiXhsmhbVLxVl0plKE9xOmFqFjOlB8LrDHGZMICa4wxmbDAGmNMJiywxhiTCQusMcZkwgJrjDGZsMAaY0wmLLAJTA4nMCmfOJ0fyWuPShtjJk/6AkbxxQvNcy47FtgECaomlEtwlW+MmXIaGzdaxoipByywCamYEugEM8740yf8EN3iVdgY0zRFMdW4Ao21smOBLZCKaNoh6qEzGDO9YTw1NabqwU1ggU1IXQNAOn1/3CJrzM9H40hiK2FNhbesWGALSET58S2oxkwbcrOlxovGVT34YS2wCfwlNR+opgNYXI2ZdvhAOR9IR1hlxUpYbcHWGV26dIlfORdFK7YeOoQx0wvGC//6wL9QkNYnJSWwqfutrFhgE/iblDnnnDPe0hBSQSVdD7c0xvxcmCOuscK4YZywjPXauXPn0K1bt7iO/Hq7M7RiJHTv3j3+DxT/RSVBJba4GjMxjAvEFSFlfBBYlshirCy++OLx/8u0Tr5YqIcxZdVI4AdfffXVwxJLLBE7gm5hyCfYL2vMhCCu/LUQY4N0+m8P/InmSiutVBNWgTDXy1iywCbQCdZdd92w2mqrxQdedBg6gzoHy8aYn0Akv/nmmxjzF9iIK2kEFd8rf7fPWGqM9C9+yowFNgErFX8RIosVSydAYIHOUy+dwpifA2MEK1bWK8v85f4GG2wQrViVgXqxXIUFNoFOwD+XbrTRRmGLLbaI00sQXXxKuv0xxvyEHgQzRkBjhXGz+eabx4CgMm4ksJBuU3YssAlYqLgGcM7vsssuYdddd41XZDoI/8pqF4Ex/4NxgZjKaiXGPbD99tuHHj16hK5du0aBlYstFVaEuB6wwCboKsvLBrgIevbsGXbaaafYaRBXRNYY8xOIpHywjB3Gzbbbbhv22muv6CKQsDJ+JLSUqydXmwU2gQ6jKyydgiegRx11VDjooIOi075ebmuMmRKwYOVT5a5v3333DUceeWQcNyCLVeNGZRHY1LItM1aMBH749HaGJ6NLLrlkOPDAA8M555wTttlmmwkEWK8AAvnkWYRNGaBfp32bsUD/LkKZjTfeOJx11lnhkEMOCcsss0y0ZLVtGstnq/X1MFasBgnqAIisAp1g/vnnD1tuuWU45phjwsCBA8Pee+8dFl100bgN5el8lKO8bpccHNp6oE8T069xjxHjKmOmDYYHroALLrggnHHGGWHrrbeOL+pQPh0DjdFUfhlpVz0Z2edN6IRDr169wqBBg8KYMWPiskhPOmm2wY/Tu3fv6DBvDtinTofaI9FEfLFwx40bFz755JMwYsSIMHLkyPDxxx+H0aNHxzK6IqsOY9oq9H+NgTTNXdvcc88dRZaHWHy/gzcfGSeUkZEiP2tjVu/0hvGm9qEtxx57bHj99dcnyE/HJHkEvjuy8847h379+jWsmf5YYBPoJIBQpqclnZ5FB1JnImZa1/jx42N5gq76xrRl0v4vwwHo/zyP0FfnEFLGB0LKOqHt021zwb405iywrdyC1b6LV2CdJjqMhFhliZVWvjFtncb6M3n0/3QdacSVmEBecwir0D6htQmsfbAJ/Ah6MkoHUSehQxFY1o+mH06ojDFlIBUk0mkAjQFZrdzF0f/Jowxpla1nLLAJaceg46RXZQWJqDoYoqs0FMs7OLTFMClkfMgAERoDGCk2Nn7CApuQiiWdrGjNpp0vTQttb0xZSfu30hgizKSB1Iotjo96xAKbQMegs6QdhLQEFrQeGutArHNwaOsB0v6tdLEMpMuME6Zy6e6v3rHAFlBnoaOkLw4oTx1Jy0LbGVMG0v6epicFoqoxQcxyvWOBNcaYTFhgjTEmExZYY4zJhAXWGGMyYYE1xphMWGCNMSYTFlhjjMmEBdYYYzJhgTXGmExYYI0xJhMWWGOMyYQF1hhjMmGBNcaYTFhgjTEmExZYY4zJhAXWGGMyYYE1xphMWGCNMSYTFlhjjMmEBdYYYzJhgTXGmExYYI0xJhMWWGOMyYQF1hhjMmGBNcaYTFhgjTEmExZYY4zJhAXWGGMyYYE1xphMWGCNMSYTFlhjjMmEBdYYYzJhgTXGmExYYI0xJhMWWGOMyYQF1hhjMmGBNcaYTFhgjTEmExZYY4zJhAXWGGMyYYE1xphMWGCNMSYTFlhjjMmEBdYYYzJhgTXGmExYYI0xJhMWWGOMyYQF1hhjMmGBNcaYTFhgjTEmExZYY4zJhAXWGGMyYYE1xphMWGCNMSYTFlhjjMmEBdYYYzJhgTXGmExYYI0xJhMWWGOMyYQF1hhjMmGBNcaYTFhgjTEmExZYY4zJhAXWGGMyYYE1xphMWGCNMSYTFlhjjMmEBdYYYzJhgTXGmExYYI0xJhMWWGOMyYQF1hhjMmGBNcaYTFhgjTEmExZYY4zJhAXWGGMyYYE1xphMWGCNMSYTFlhjjMmEBdYYYzJhgTXGmExYYI0xJhMWWGOMyYQF1hhjMmGBNcaYTFhgjTEmExZYY4zJhAXWGGMyYYE1xphMWGCNMSYTFlhjjMmEBdYYYzJhgTXGmExYYI0xJhMWWGOMyYQF1hhjMmGBNcaYTFhgjTEmExZYY4zJhAXWGGMyYYE1xphMWGCNMSYTFlhjjMmEBdYYYzJhgTXGmExYYI0xJhMWWGOMyYQF1hhjMmGBNcaYTFhgjTEmExZYY4zJhAXWGGMyYYE1xphMWGCNMSYTFlhjjMmEBdYYYzJhgTXGmEw0i8C2a9euIRXC999/H9q3bx/zZphhhhhrfaVSqcUE8meeeeZavjHGFEEnfvzxx5iWtqAZ6As0ph/SHJXNRbNZsDoBKTrIFB2s1mmZ2MHBwaEY0BZi6YRAQ4oaU1xOt81BswmsTkTHjh3DDz/8ULu66ICJlQcsf/fdd+Hzzz+f6KQYY4xAV2acccaoK6NHj64tS1MUWCZIi8gjnVNf2lV3kE++E3SlOPzww0P//v3Dt99+GwUU0ibogAndunUL22yzTdh///3DL37xi4YSxhjzP9AW+PLLL8Mll1wSbrrppjB8+PCamAKxRFUGXufOncMuu+wSzj777FgmB80qsBzw8ccfH/r06RPGjh0b/bHksY6gqw5NIrA8zzzzhPXXXz/GxhjTGIgmd7sPPfRQGDZsWNQWQEfQFKUlsOTNNddc4ZBDDglHHHFEXJ+F6k6bheoBV6oiWrn66qsr3bt3R9Qr1YOtheoBV6qCWmnfvn1Ma5l1M888cyzv4ODgUAxoBTox00wzxTQxmkFeWk5ao22qRlvlmmuuaVCoPDSbDxZrdPz48WGttdaKpnn1QGuWK+nqAccrDMvE5BGA7YwxpjHQDpDLEeuVtLRF+gJoC6BHXbt2DUsttVRczkWzCCwHChz0ggsuGFZbbbXoU9VBc0JUBjh41qUPw4wxpjFSIw3tSJHAprA822yzhbXXXjsstthiDbl5yK5eskph1llnjSfh97//fbRiSUtkgbIE5rIx/xU4YcWTZowxKbJMAU1BQwgYaRhw0iHEdaaZZgpzzDFHWGeddaImUSYXzfaQi4PAgp1lllniLf+OO+4Y7rnnnvDNN9/UrjA0RWk5ogmcmFSIjTFGSMJSHSGgGeRJVzDU0KAOHTqELbbYIgwePDjOZmI5F9kFluoRS932s8wVZciQIaFXr17h6aefjnlcVYATQJryHDzbYM2OGzcurjfGmBS0AiMslTLyEFXdPQMWLdqy5JJLxqmiyy+/fM3KJc5BdhcBAsnBgixR4mWXXTYK7HLLLRcFlDyEl/VyUpPP1QWhNcaYxkAgEVcEVUGGXLqOeOGFFw5/+9vforiSx3TRXOIK2QUWEE2CQDhxE2y33XbhoIMOilcUnQiVRXApg7hKoI0xZnKgI+iH9ISYgDGHuG677bYxH33BgEOIc9EsLgJZo8AVg4MijyvHqFGjwiOPPBKuuOKKcN9998VX3XTwXGEoQ9nMzTTGtFF4/R4XIhohzSCNcBJ36dIlbLrppqFHjx5h1VVXDfPOO28UYILKojk5aJaHXFinHAz+D06ExJYHXKSxUt97773wwAMPxNfcnnjiifDVV1/Fg2c7uQ6MMaYIoiqxJAZkDSHFat1www3DJptsEu+UO3XqFNehQ6Qx3njwnotmEVh2oad1nAACgonwgq4ivOo2dOjQ8Prrr4dXX301vPLKK/GdYvlkjTGmCC5E7niJmX61wAILhEUWWSQ+51liiSWi35VpoSoLkj20J6cLstksWOBASEtcWWb3qXVKGsv2008/jeKKy0AWsDHGFEmNNdwFc845Z3xLC9cAVipIPyiL5uihFzEhF80isBycDkJpWbE6YGKhJqV5xhgzOdAO6Yn0Q+IqUZW+aDmnzjSLwBpjTD3SLNO0jDGmHrHAGmNMJiywxhiTCQusMcZkwgJrjDGZsMAaY0wmLLDGGJMJC6wxxmTCAmuMMZmwwBpjTCYssMYYkwkLrDHGZMICa4wxmbDAGmNMJiywxhiTCQusMcZkwgJrjDGZsMAaY0wmLLDGGJMJC6wxxmQhhP8HdRjlv6P27ZIAAAAASUVORK5CYII=;" parent="XEp5VxgZarHS8rTc24Yd-6" vertex="1">
          <mxGeometry x="70" y="10" width="30" height="36.63" as="geometry" />
        </mxCell>
        <mxCell id="waJLMcrs9-8YJ0nlCUP1-4" value="" style="shape=image;html=1;verticalAlign=top;verticalLabelPosition=bottom;labelBackgroundColor=#ffffff;imageAspect=0;aspect=fixed;image=https://cdn1.iconfinder.com/data/icons/bootstrap-vol-3/16/filetype-xls-128.png" parent="XEp5VxgZarHS8rTc24Yd-6" vertex="1">
          <mxGeometry x="110" y="13.82" width="29" height="29" as="geometry" />
        </mxCell>
        <mxCell id="XEp5VxgZarHS8rTc24Yd-7" value="" style="shape=cylinder3;whiteSpace=wrap;html=1;boundedLbl=1;backgroundOutline=1;size=15;" parent="1" vertex="1">
          <mxGeometry x="410" y="220" width="50" height="60" as="geometry" />
        </mxCell>
        <mxCell id="XEp5VxgZarHS8rTc24Yd-9" value="" style="shape=image;html=1;verticalAlign=top;verticalLabelPosition=bottom;labelBackgroundColor=#ffffff;imageAspect=0;aspect=fixed;image=https://cdn0.iconfinder.com/data/icons/business-startup-10/50/69-128.png" parent="1" vertex="1">
          <mxGeometry x="251" y="290" width="128" height="128" as="geometry" />
        </mxCell>
        <mxCell id="XEp5VxgZarHS8rTc24Yd-10" value="" style="sketch=0;aspect=fixed;pointerEvents=1;shadow=0;dashed=0;html=1;strokeColor=none;labelPosition=center;verticalLabelPosition=bottom;verticalAlign=top;align=center;shape=mxgraph.mscae.enterprise.website_generic;fillColor=#7D7D7D;" parent="1" vertex="1">
          <mxGeometry x="120" y="332" width="50" height="44" as="geometry" />
        </mxCell>
        <mxCell id="XEp5VxgZarHS8rTc24Yd-11" value="Interfaz o API?&lt;div&gt;Base de datos? se puede acceder directamente&lt;/div&gt;&lt;div&gt;cada fuente de información alojaría los reportes en un file serve?&lt;/div&gt;" style="text;html=1;align=center;verticalAlign=middle;resizable=0;points=[];autosize=1;strokeColor=none;fillColor=none;" parent="1" vertex="1">
          <mxGeometry x="-475" y="-17" width="370" height="60" as="geometry" />
        </mxCell>
        <mxCell id="waJLMcrs9-8YJ0nlCUP1-8" value="" style="shape=image;verticalLabelPosition=bottom;labelBackgroundColor=default;verticalAlign=top;aspect=fixed;imageAspect=0;image=data:image/png,iVBORw0KGgoAAAANSUhEUgAAAUsAAACnCAYAAACYRn7TAAAAAXNSR0IArs4c6QAAAARnQU1BAACxjwv8YQUAAAAJcEhZcwAADsMAAA7DAcdvqGQAACOBSURBVHhe7Z0JfFTV9ccPkI3s+0ZIAglhF0RFFBQQERAVFHDFqlWriOJWta7o362tWhWrFoTWFa0UUREVFVFEBRTZBAIEAkkIhJCd7CH87+/mIYpZ3kzem3tn5nz7GTN3KB+SzLzfO/eec36nQ8LdG48QwzAM0yodja8MwzBMK7BYMgzDmIDFkmEYxgQslgzDMCZgsWQYhjEBiyXDMIwJWCwZhmFMwGLJMAxjAhZLhmEYE7BYMgzDmIDFkmEYxgQslgzDMCZgsWQYhjEBiyXDMIwJWCwZhmFMwGLJMAxjAhZLhmEYE7BYMgzDmIDFkmEYxgQslgzDMCZgsWQYhjEBiyXDMIwJWCwZhmFMwGLJMAxjAhZLhmEYE7BYMgzDmIDFkmEYxgQslgzDMCZgsWQYhjEBiyXDMIwJWCwZhmFMwGLJMAxjAhZLhmEYE7BYMgzDmIDFkmEYxgQdEu7eeMR47rEE+nWkkICOFOgrHuK5r08H6iye+3bqQJ06dKCO4pbRsQPREfGbwC+jsfFI01esxaNBPKk7fIQOi68N4mtVHf6UqF48r2lopNr6RqquPyLXzO/pmxBAieG+xkoPvttVSZW1jcZKP4alB4vPqPhQuiG4ZnAp4HqpEdcGrp2y6sNUJX7fpeJrbYN7XiceKZZ9EwNoUHIgndYtkPolBkqhhDD6CFHsJFQR4ugjRLKDfIhfAh7G38UvA2+2fC6/CuEUXyGcjXgurq+j7zVEFa/jQ3FYvF7f2Ej7yhoo+2AtZRfVUV5xHe0Uz3cdrKOKGn0vTLv58d6elBCml1i+vKKQHvu4wFjpBT6Lq+7JoKQIv6YX3JBfrhnx5LB41IuLRsQVQigbaceBWvpq+yH6alsFZRbUGn9Df9xeLHvE+kth7CcEckBSZ0qP8aewzp2MP9UDfHBwZ90tBLSkqoHyy+qlgO4TX3OEoOaW1NPBQw3G/9uzGJoWRO9e381Y6QMu2pOf3EbFlYeNV/TBE8TSLAcqGuinnCpaKx7rcqvlA9GojridWCJCjAjsRBcNDKNrh0VTomYRi7NASFfsOEQrs8RjZ6XcqtSJCxp3Z3fmyYmJ9IchkcZKL25+J5cWrS8zVvrgTWJ5POU1h2nWl4X01poSqqw7LHdsuuA2Yomt9JRBETS+f6iIIjtTsL/n5qaqxZ11jxDPnJI6cdetphViy7Jhb7Xxp+7F6nt6iotezxvaxz+X0/Vv5hgrffBmsTwKdmKION9dW0ofbtTjhqa9WKZE+tFEEUXecEa0dttrV4LI838/ldKyzAq5dcdBue5MHBBGL17W1VjpBxJyg57I1G4rzmL5WzbnV9OTSwvox91VVKEwKaetWIYGdKKZ58XTmD6hctvNNFEjtucHKxpo6ZZyev7LA1Sk4Zkb8PfpQCvu7KH9Bf/2D8X054X5xkoPWCx/D6pQsgpr6fYFe2mjol2WdnvZTuI7uvq0SFo6I40uPTmChfI4AoQIYVt77dAocUH1pOemdJHJLd3okxBAcaH6nyeP7BlCUUE+xorRFZ9OHahXfAB9cksaPXdxEqXF+Bt/4jq0Ekska1Bm8viEREoW22+mdVAzOuWkCBqWFmy8og/j+obKZJzuxIb4yooKxn2YMiicvrwtnS4+KVzWR7sKLcTST0RL04dH08c3p8kPL+MYn28tN57pw4UnhhvP9AYX24yR0caKcRcQaf5jchLNuzKZ4kNdszNQLpbYZiOSvHdsPMWE8HbIUVButPNgnbHSA0S77lTSNTwjRMm2jmkfaCY5p08oLb+jBw1ODTRetQ+lYhnk35FevzqFLj8lQv7gjGOgc+i+D/RKTmDrjffT3cA5OeOeIBn8+jWpdPOIGOMVe1AmlqlRfrRkeprsvmGcY+v+GsovrTdWeoC2xp5x7helndkDvdhaHeEzDhAiAq97xsTR/ePi5LGeHSj7dCy6sRsfrLeTFTuaOn10YkyfELesh0WbbA83FHnmGDh/njY8hmZdnGRLctHlYomyl+W3p3Mip52g7uw/3xUZKz1AbeWMkfZuhezkbxcmGs8YdwUSiS4/lNThmM9KXCqW2ObgA5kRp19doLuxeFOZNOTQifNPCKNIN65ZPKFLZzqxa2djxbgrHTt0oIkDw+nBc+Oly5hVuEwsfcQ3/cTEBBqREWK8wjgL2vTmrykxVvpwTm/3f2/P9oCfgWnislMi6MHx8caq/bhMLHGAPnGAe9Te6U7hoQbKLKgxVnqALfgpqUHGyn05v3+Y8YxxdxCgXTc0iq6yyPXKJWIZH+ori0ftylJ5G4vWlWpn/nD5KZEU6wF1sqi3HNs31Fgx7g4U55HzEyyp0HCJWN471r50vrdxqLaRXl1VbKz0AHVud4+JNVbuz+2jYtyiVZMxB97LN65Jabdbv+1i2T3ajy4ayNtvq1i+vUK72ko41EMwPYXu0f6UwWVtHkWXcD965Lz2JXxsFUsYPbx6VYqcecNYwyc/69cHfl5/z9q24nM7ihM9Hsf4/mF0xWDnu8tslbHTuwdRN3GXZqwBBejf7aw0VnqAAvTx/TwvKYKkAJJWjGcxfXiM07aPtorlleIDZ2GZk9fzysqDMhOuE+gDjwjyPM9RJCUnDODMuKeBppi5U5ONlWPYJpbIKo7M0M9n0V2pqmuk2SsOGis9wHb14pPdzzTDLJNODOdEjwcyROx4UcroKLaJ5a0jYyytnvd21u6p0m7uDpJ3yZoOI7MCJK4iPTBqZohuOyvGYaczW8QS51ju4ibU2EhyfvfP+dW05Ody+mhjGS1YW0pv/1Aix3Hi64KfmibM4c9XZ1fSln01ct6xK8fULttWod1Y3MmDwinAg516QgI6tSshwOjLySmBdJ6DZ+22DCzrnRBAH92UJi4kvSJLnPftF8K4WYgdxmyuy6mmLfvb1wnTPcaPYoN9ZGlCSpQv9Y7vLJ2bcaGhkR+Hye21/sLQ+ZOe2KZVZInRxOvv7+XRYgkwlnjAY5lU6cKpgrhqeGCZ/ew6WEtjZ+2kyjpz760tYnnT8Gi6f5x1PZntBb6Pj3+yn7buqxWC0yDEx94QDW1Wnf06ymwq5pujs2VYejD17xJAw3uEOJxlfXN1Md2zSC+T3xvPiLa071Zn7vhfHv33x1JjZT8slq6h7vARmjQ7WwZOZrBFLBfd2N0lNu9tsS63iuauLKL3N+gxpB3gnCQjNoAGJAXIaXW9xaNnXIAU1ObOUBBVTp6TLX4WNeM/mwNn0e9cm0qnp7l/L7gZPtlcTte9kWOs7IfF0nW8v76Upr+TZ6xax3KxxBud99d+TQtF4Ad6ecVBevzj/U0vuAEwQr54UDhddVqUjEqP5sayD9bRuf/MovIadcPljwdZ8M0P9faaFta6hiPU/cHNdMTeDckvsFi6lr6PbDV1xGX5gdNADfwAX/nmID39WYGxcg92HKilxz8toP6PbqUxs7LE1m8vLcusoPfEnU8noQR3nh3rVb3++FmfmMDGwJ7KtOHmpntaHlme2y+UXnGy6NMK1uZU0QUv7TJWjNUgYbXxgV7U0cvKwpDgGfL3bS5xe1IdWd61cC/N/6F9fqn4nPRNDKAh3YKkh21ypK80htbxU4PjuotmZ8sdRGtYHll2i1K7dUAyhLGPs3qGeJ1QAhyNnMTD9UxTUnWYVmZV0tOfH6AJL++i8f/cSQ8v3idf1w1MbsDRUltYLpbhgWo9DXVKhHgi2Dl4I7g/XD6Yx+U6A0Y255bU09xvi2jUc1m08KdS2ZGmC0FCKMeZ8DC1XCzNKLSdZB2oNZ4xVoNuFm8euzC6VwjFh7m/wbFKCsrr6dYFeXTLf3PpsKsyZiaYaqL5wHJlU71D0+fX73nMGBkra0hV8v0uda5LKO267SzPMTlWBTTy080VdP6Lu2QnnA4MSAps043IcrGsbVAbXnvhcZpLiA72oYmKXXhQ3vHwR/vaPIi3ExgwOGvxxfyWDXnVNHnOLi0603AjROdha1gvljZ3x7RFfDut45nmgWmGaiu2N1cV0/YDtVSm8OJKCveVzQSMNewsrKMHP9hnrNTSp4331XKxLKxUG1b3bePuwDjHNadHKd2Cw/gYRiaIKuesVGdVh+4l1Jky1oFa4oXrXNdO2hLJka1X8lguljnFaufDDHfCp45pnZgQHxqvOAt+8FAD5ZbUyeevrCySbaCqQO3gCV3UN194EqjtzDPeX1WkxbhYLMuq1UaWEweGy9ZBxjquE1Glam/SFVmHfqnRqz98hNbsNmd+YAc432IXdWvBzuEDxR4OkW2UPVoulpvz1Q7/x+H7wj91k2MBmPYDe7mzeqktF4KP52vfFRmrJr7efsh4poZRin8nngh8Y1V6tia30VBjuVhirnVOsdpwOirYh16/OtmSwereTkKYj/JI/cc9lbTpuJvw0q1qp1xibMrQND7ysRL4I6zJVlca1tY4Z8vFEqxS+AMfpW9iZ1p4Q3c6p7fj/pHMMWaOT1A+hwaJneOBG5PKmkucSjx+QbzyulNPY8nP6rbieCth2N0Stohlcx9uFWBL/sqVyfTGNak8S8UJUsS2RPUWHPzQwvkk+o5VkhYbIM0iGOtYm1OtdiveykwpW8RyZ2Gt3I7rAO78Q9OC6Md7e9FfL0yUFnIcDJhjFEwzFP+u0B6HmUfNsa2gRs5PUgV+NzzB1FqgG9UK+8ZhmNIStohlYUWD0g9xc2ArfuWpkXI20JwrkqVlFG+hWmdMH/VR5fNfFsrsd3OUVx+WgqmSy06JkNlxxhpguqGyZzyilYy4LWKJu8PXO9RmK1sCH+xx/ULpqzsy6N3rU+W8IMzJYX4LkmOoJ1QJOnWQIW0JaOiHG9Ue+cBz8vwTuIzIU2ho4cYMbFOJ+WuKqUHl4UMbINI8VYgBBqtterA3PXVRIp3WPYjPNgUIuGEY4aM4sfNTTnWbW7Ilm8qU9xb/aViU8t+VpxDgg0F/6oKXAxUt74ht+662FdTS8m0VxkpvMDYAXoXzr02lpbek0/MXJ9FJyd7boZEQ5ksjeqo/i/sis7xNFynsYj5UXMycHuNPKW20yjHmiAnppG31iq0SvnBdmdLMlqP4ieggMdyXJg8Kpw9uSqNlt6XTYxMS6Lz+oV5l0IHtd7C/2ggbu5KlW8zdbNH50dK5pivAjPhxfblI3QpG91bbVrt1f8t+uLaK5edby8U2Sj8beTPg3gZ3mWtOi6LZVyTT2nt70vs3dpM90p6+4cLNQnXu67Mt5aaThFmFtVSheKjbrexzaQkXnhhuPHM9bd1wbRXLmvojciavRobI7eKU1CCaMzWZtjzcW7ZUPjQ+XvobelKC6ISkzjQsXW1iB7uR+WvMD8yCycbKLLUJRUwIQGaccR5UX0Qq9AotaOW8Eth+lX++tYJW71bf0WMlaIsa0j2Ibjgjmt6+NpU2PtiLZl2SRGP7hlJqlJ/biicqBa4eEimiSrVhJUrPWtsONQfmxKs+8sF8Iq5Gcw585K5QPONoT5FisQSolfNkkL2bJLYP865Mpk9vSaMl09Polald5WshAe4jnGG4CSguFwLbD9RQoYgWHWHj3mratl9tzeVgsfPgrLhz9IoLEDsatUnF1jLhwCVX8oodh2jet0VeMR8Hh/3psf4iygiT0eaWmX3oo+ndZXnJGeLDgPEMutInMYC6apDVfWN1sSxOdpTlip2IsKO455w4Y8WYJTbEh976Y6ryLPieotYNgFwW9jz1eQHtKPC+yYvYlp3YNZBmnpcgPhAptOruDHr58q7UO14/R6QHx8Ur30YiqfOxk94CSAqp5k9nRLfpXsP8lrvEDSYuVH0QsacNtzSXiSWylX9euFd8dc/suBXAQBe9pxecEEZLZ6TT4pu6012jYylDA7Pi/l06y+SOahatL3M6Ibg+r1r2kqsEN5uRGtSougOob75/XBxddrIeibFNe1s/xnHpgdranCp64MN9Tm2xPA0I56DkQLptVCx9eXsP+peINvskBCizQzu/v9r6NoCPxbc7nd9Ko/QDiR7V4GbItA6ChmlnRotHjEzuqKa6vpG2tnHm7fLsw/sbyuQMFeYY+LCgvxiR5sIbusmsuqs5p496sYTYITpsD4hMVTtejewZQjEan02rJi7ERyZDsf3WQSjBgrVtD0xzuViiUf3Rj/fT3G9ZMI8nwLcjnSSizblTk+nNa1JpWFqQ7CqyG2y/dZhbtHhjGZUac3acBeYbLVm6uQokKu4czUXqx4PBd1NPjaRv78qQgwU10Um5o1m0XkOxPMpjQjBfXuHZJUXOgrstzr3e/GOqdEayu1D3mUldjGfqwAf2758VGCvnQXSqg1P/Ob1DObo0QMLrvrFxtPz2HvTkxMRWPSNVkF/asmfqr+mQcPdGZQeIOJ+DRRrmMKueHqgzcNV56atCWwqve8YF0NIZacpHR/yUU0Xnv7TLWLWPrhF+9N3dGUoz+ziXv/q1HPrSCTMZfNur7smQ9m8q+GxrBW3a277jkCAhiEkRvtQ92l8mMHWuP126pZyufzNHvGfGCy2gVCyPgrGiT4noBr9gpmWyi+roinm72yxxcITrh0XRw+clGCt1PP/lARFZWjcm4o2rU5SPxIDr1tT/7DFW5lEtlt7GLe/k0Xs6b8N/Dc6qJs/Ops2Kz5p0p1uUH70/rbulPcgwzdCBZZnWFpTP/6FEuSfBmT1CpBkLoy/7y+pp8SZzFn9aiCW2lmhXmzInm95dW0qVmszv0RF0O2CW0B2jYuRM7/YwIiOY+iWqr63MFZEyysqsBDde1abAncTb84dTIz3epcpdwb0UR1tm7f202vcik3nHgjya8kq28tnjOoPZQbefHUdPT050eo4Q/h6MQHRg9jfW10bmldRJEVbN0PQg7RIaTBOovMD5rFm0exeh8Rvyqums57LoocX7KFOxOYKuQCMnDAin165OlnVrjoIyjt4J6reI5TWH6VOTJr+OgN3Kv79TX56GBEd/DaJ35vfA1m9vqfmOL21veZi9AvONUUI073pvL5VUNVieCXZ3EFOOyAihRyckOpz5PbFrZy1KW3YX1Yn31p7tMoadtbdus73gfXliQgJvxTUD+nLfB/kOdRO6xf4ARrDDnt5BN76VI00WzJ4xeAvwUXx2SpIsajfLvWPjjWdqwfycmnr7zqiX/Kx2Pg/oJSL4ARr03TPHwK6juNKxG6nbHKYgQlgihBL1UKf+bRs9/XkBZRbUiB+4wSus31oDUctFJ4bTH041lyVHYqd7tPqylLqGI/Tm6mJjZQ/Lt+kxknm0Bu2kTBPoA39tleOfO7cRy19TUN5Azy4rpAte3EXjXthJ0+bn0ocby7QevWs32O7dPSaOzjZRW4hIVAe+yKygCpsrH77XoJsHTGBzDS1AOdmM/+Y5dFZ5FLcUy6NU1jVSnvihUacJwez7yFb6w6t7aO7KIvp+V6VtZ2G6glKiB86Nb9WdvamVUv0kQtzXcIOzG+xIPtjQdsGx3XQTkfwoxUXyDMmOKnTsOINbi+XxwG1mmYhWZn60jybPyab+/7eVLvzXLnrnxxKvsYWDIcZ9rZxHwtEoUYOxvtgKtbelziyPf9L+nnMr0KFTyttpsog0Fg7iUWJ5PJDHNbur6M7/7aWU+zfLLTtCcIwt2F7guSVJcHY5OSXQWB0D/d+PX6DHBYvff26Ja4x695c30DYNXPoTwnyoXyJ39KgAbme3vpvXrvptjxbLX4OzCnQJLVxXSn9ZlE8jn82i/o9upYfEnQZ1nfvL66m2wTOiT5xf/vH0KGN1DGRk40LVR5Xg2S8KXRbt49/5cY/6s0sck2B0MuN6MGUWlRftwWvEsjlQOjDvuyI678WdMuqc8PIumrl4H23Od/+oEzOYE46bazJWk4wsBkMtc8KNpz0s3qh+Pg+4fpgeXVPexI97qmiGiCrr2lly6NVieRQEOAcqGuQZGkyJz5mVRQMfy6RHluyTzjFFDo5l1QHUXD42IfEX6zvMOzlXg9ER4Jt2jI5wlm+yDmnRQove/ks1mTnjDWDHePd7e6mqrv1VFyyWLYC51XO+KZLZ9VP/tl2edZYrNmZwFNRTdo1o2naf2zeUUjQYcwuWW+wwZBZnauvsAE5Pzvb0M+ZBK+1EsVu06ryaxbINEHUic4uzzn7/11SahHkdKKjWHX+fjrKtEVHmdcN+f4apApwLq3Iy/2JrhRaOVn0TAygqmMfl2gkiyelv51maRGSxdAAceaA06bYFebJnHTZgqj0TWwM1lRhEhugyLVqPOeWFFfWt1oHaBY4jIgI7ifdQ/RuGMQuwbmPsAe5lCGqccalvDRZLJ9l1sFYaFt//Qb4l5yF2gcFQ48QWPLSzHpEM3L8/vCmNHhofT4Eusi7DDKNnJiXSO9elSqHSASR6VNw0PB00IVzz2h5bdi+dQoZOe9h4zjgItpQoO4JzDrozVM+xaQ5swQenBmk14yjIv6OsA8Wscp+OHWUkUF7TaKmrVLD4N7DdvWpIlBy72r9LZ63mwCDhtrOwrtnpAPgucWyiyw3OXcB1ePm/d9OGvfZUs2gxg8cTGN8vlF66vCsf3DsIdsVoWy0or5dGKQvWloio3fms9eDUQJp0YjiN6dMUTWMsra58tqWCrnn99zN68B3zDB7HWC0iSQyIQ1LHLlgsLSLAtwPNuSKZ+38tAD39Ow7USg9TmKZUiAvg6FEHos+j96NgsaUOE4II8+Oukb7UJcxPRq3uApJNg/+67XfjL1gszYPPBZyr/vHFAdtNWVgsLQSZ58U3pcnECsOY4fVVxXTv+/nGqgkWS3PgfHLGu7lk9bC7luATZgtZl1tNW3kMBuMA8CHFiA/GPGhfnfPNQdk84iqhBCyWFoPtI8OYBRUBg5sxPWF+D/xq4e9wxb930yNL9jvlSdkeWCwtBpldhjELzl91md2uM/vK6qVnLSwXv8lS09TgcrG85OQI+vSWNJk99kS4do5xlLN6hlCyJq2ouvFTThXd934+DX9mh5y/VVOvLsXi8iv7zPRgWfM2Z2oyrfxzD+kg7SnVNvg58MFnGEdA/eetI2OMlXcDKYT3JJyChj29nc5/aZfs6Ud5mWpcKpY4nxnd+5iYdIv2p89npNPrV6fItjyda+LaAgXpT03qIktZGMZRTksLku2Y3gq8FuA5edfCvTTy2R3SLjG7HfW2duDS0qEpg8LpuYuTjNXvQXLk6c8P0PrcKulu7S4DyCDy15wWRfeOi+OidMYp8FGfNHuXdPbHJ8iTS4dgTIOzfZT+oINpyaYyWrrFtf6mzuAysYSGvCYiSDPb1IOHGuTYgTfWlEinGJ17r6ODfejZyV1ohPi5WCeZ9vCDEMqJ/9rl9mIJ4ccs+Gpx3RZVNlCxEMXM/bUiGKqh7KI6yi+tl3aHaHGFcLoLLhNLbE+XTE+TZ5SOgO4GuIes2HGIft5bQzsLa9vteNxe0GfdNyFAduvcPCJa9l8zjBWgdnBLfo1SscRWeP4PJcaKOYrLrvJwIZbJkY7Pf8Hfu2ig2L5PSaLPbk2nbY/0odlXdKUJA8Jc5lpzFESOE8W/u/z2dFpycxr9eXQsCyVjKehrZ/TEZZHlA+PiaNpwazN+ONPMK6mn/DLxEKE9ilS3ie07ZuvkldTJc09nwnxsrZPFXT0+zEeOlsUDyahecf4sjoytZImd04hndnBkqSEuEUtkitc90IsiFGSKkWUrqGig3JKmzhoYM5RVHxPQIBGddonwka7iXcJ8ZeuZTnZmjPdxwUs76aXLurJYaoZLxPKUlEB6f1p3Y8UwTGvAlxEVFgni5q0CFsvmccmeclg6z0pmGLOkRvlRvCbz3ZljuEQsT+3GRgEM4whs86cftoslzFjh88gwDOPO2C6WmLMS7M8tgAzDuDe2i+W1Q6ONZwzDMO6LrWKJg+r0WD3mVTMMwzgLjhNtFcs+CQHkyzWLDMO4MZ2ESv5jcpK9Ynlmj2DO6nkRy7dX0J5ivWy1HGXLvhr6YEOZsWK8HZh5QyjPPyHMPrGESI5iI1yvAUOkrnsjl858egfd/E4u5ZXWU22DWsMTM+A7REssHLkvn7ebRj+fRQ8t3iddcRjmuqHRNOWkCPncNrEc0i2IEsO5sNZbeGtNibTlQr/+ovVlNPyZ7dLAdaYQHgzA182bFG7cyzIr6I4FeTR21k7pyP31jqZJgRDKzAIePOftIDk9fcQxPwtb2h0RVc66OEmO+WQ8HwjPwMczqaSq5WgsJdJPWtqd0yeEEsN8KS7Ul4L9bT0F+g343gorGmh3cR19tLGM3ltfSkda+eTfNTqWbhsVa6y8C253JJo0KJyeEdtvv07HzhFtEUt4V340vTt1j+ZMuDfw895qGvPCTmPVNqEBncRnpCNlxPrLVtjBYhdyQpfOlponw0Blw94q+jLzEK0SkW1uST1V1BymytpGufVuC/Rl/3hvT2PlXXi7WF43LJoeGBdPfseNubFFLGHw++kt6S6NHBh1zPu2SJ7ztQfcwbtE+FJSuB+lRPlSRKCPnEkTIoQ10K+DENIO1PlX9ng4Z8Q5Kcyhq+uOUHFlg7TogzM3bPusSDQturEbDU4NMlbegzeLJabPPj4hsVmvXFvE8o+nR9KjFyQaK8ZK4BJfK4QCIqILl83bLZ3sPQ0cI71wScszozwVbxXLyQOC6JFxTcmc5rAl9LticKTxjLGSDXnVNP3tXJc7xLcGzgG/36Vm6L3doIxIhxGsjP1cflIw3TOq9RyL5Vddr/gA+WCs41BtI/3nuyI678Wd0rVdJ3PiN1YXU73imUh2gXlPuBkwns2YXp3pL0IocdzTGpaL5Rnp3nfGYycYk3HJ3Gya+dF+OTUPGWVdQKkQxph6KrgJvP1DsbFiPJGUCB+aOTZCdum0heVi+cnmClq8scwtCpJ1Jre4jp74dD+d9WwWrc+tlskM9NoPSNLH7g4Jlfwyz468Xv2+2K3GtTLmgW/F3EtjKCzAnAxaLpYYFDbt7VwaMyuLfs6vNl5lHOGVlQdp2NM76MWvDhqvNPHURV3IR6Mt+LrcKiqv8exOFxyBrM6uMlaMp4C63+W396DEMPOJUsvFEqDYd8eBWrroX9l0w1s59KGINDVr4NAOlLy8/PVBEUnuoIfFlvv4jhdElaek6uU4P/fbIuOZZ/P19grjGeMJpIhraf61qQ6f/dsilkdBJvGjTeU0bX4unfb3bfTeulI6UNEgt5TMsVG+T35aQEP+tp0e+2Q/bWuhzQ7to5iSqQtIfmzaW2OsPJvvPDTb740gQbrizgw52tpRbBXLXwNRuOW/eXJ7Pml2Nr2+qpiqvLQsA+2BC34qpUvn7qYxL2TRP78qbPN3MXFgmPFMDxaKG5+3sHV/DeW4uZsS09QsM//abk4HHS4ZhdsSOH8bmhZE4/uHUq+4AEoW4XFMsI/xp54DjiXySuvk0cTSzRXyWMKRs76ecf607LYe2tjdYWcAofemiOuSk8OlVZc34IlF6RniGnpbCOXx44VLSsz/nErF8teg3Q29mEkRvnTJSRE0IiNEhszu7IeJaBER5CIRhaHAuabhiFNHEK9MTaZz+4UaK/UgO3zCo5letTNAx9Sav2TIvnZPxxPFMuvRvs02c7ilWDZHZFAnSo8REacQUBzKJkf6yUQHBDU2xEf2C+sABDCnuJ6yi2opU2zZcO64Ob9Gbt/aC37Oj29OUzZwvzneXF1M9yzKN1beAXZBb1+XSqd39/w6Yk8SS0jEvCtTaGzf5oMNjxHLtkDkOTApUBov9I4PoLQYf+lsjA82Ml0oNO0gfls4ougonnckGDI0/QLx+lGtNb5IN5qjtl2N4slhETgdEf9rEDtmrPEVSRlsoTfmVcttNRxt0IZoV13p6N4h9J+rUn75HlWDwHjgY1upqNKzS4aa486zY+kO8fB0PEUsA3w70v/+1I0GJbdcReI1YtkcEMkgvyaHGn/xgHBiex/g20E+x+EuvkI0fYyDXvwXwgkhaBT/wVeIYnU9nh+hQzWN0sAC205YfLmySBk2ZoiqdQHWZ0dNcr2N6GAfr5iBjyMjNBy4O6+KIOOcPq0fX3m1WDIM493AGnLO1BQakRFsvNIyLJYMw3gt8y6NoVNTzCWHIyJatmQ7HpfVWTIMw9gJjtdemBRFQ1LtqaJhsWQYxu1BMvf1qTF0Vg+7zpSJ/h8YFNYpxnoKMAAAAABJRU5ErkJggg==;" parent="1" vertex="1">
          <mxGeometry x="-307.81" y="400" width="19.82" height="10" as="geometry" />
        </mxCell>
        <mxCell id="waJLMcrs9-8YJ0nlCUP1-9" value="" style="shape=image;verticalLabelPosition=bottom;labelBackgroundColor=default;verticalAlign=top;aspect=fixed;imageAspect=0;image=data:image/png,iVBORw0KGgoAAAANSUhEUgAAAD8AAAAyCAYAAADrwQMBAAAAAXNSR0IArs4c6QAAAARnQU1BAACxjwv8YQUAAAAJcEhZcwAADsMAAA7DAcdvqGQAAAdgSURBVGhD7Zl7cFNVHse/N7k3adqkeW0t9AmVPlak6m4RKSoiD3WUXZTRHVS0vhidBWSGWZSH8thRGUB0fA0Iws4wi6Ky3YWu7IAr4izPdWpd5FGgLRShUJqk6YPkJrk3e865JyvdodS0TSiTfv5of+f+TjL9nsfvcSs0NTWFkaDo+O+EpF98otIvPlHpF5+o9ItPVBJafJ8pb01JRrQ0N6O1xQtvs+d/drPHjVYvtVvgJXYLtb1ezFqwGIPyi/inu0dcxddWH8bxI4e4CC8T5fV4mMhQKMRn/TzS0gdgwfJ3+Kh7xFX8l1v+gq2ff8JHnaMXRZjNFqRYLDBbUmFJtcKcmsqeNZw5jcr9e9m8hx57EqPvuZ/Z3SGu4s+TP/z1ubOZnZmTi/EPTGLizEQkFcpEknH7xYtsTmesWbkUP1RVQjIYsGzVeuhEiXuiI64BLz0zG860NGa7LjTilttGIX/oMAzMGYRUuxOCXuxSOGXmvEXIyMpBMBDA3zd/yp9GT9wD3p6dO7Bp/Rpm/67sWZTePYHZ0aKGgqivq+lR0IvLztuVJlj2LkfKlmkYf/9v2NGm0F2jUb470KMejXCHKMPuO8lHGjEVb3NVwbztRfhX34vQd5ug/kjuad3XmDTlceZva21B+cYNzI4l1jO7oNQfgMc0iD/RiIl4a20Fkj+ZDHnTs1DqdmsPdSLEW8ugyx1Bdv+37M5Stlf8FQFf1/e8OzgMQZj/OQ+CaIQ34w7+9CdiIp6ucth9io8A8abJME3/GoZ7FkJIcbJU9sxMLeorJL+ve+8tOBwONu4trGe+gX/dgxCHP4Hm9Nv4047ERLxh3DzyI5mPSN4uGAfBmslHGoVDb8T4iZOYfeTg99i+tZzZPcVhVMluz0Vwxx9hfHg1mlM7jwsxEe8OJbFdjhD4YgHC7U189BNTnp6GgVnZzN60fi2Csp/Zl8NptzJhV8LWsBv+VROgnjuEpLLN8Bg7Lvj/E7OA580eC3GYtrPhdhcC5bOIobBxBIPBiOkvLYAkSQgEZHyw/DVYrVbu7YjL44VyaAss375PFqHj9zhMAsw7X4Fc/iIE83VMuBtaRrkS+jlz5izidq9jKb4PSs0uhNsaEW4+jfBFD/T5Y7hXw2Z3INVmw3cH9sHjcqG9rRUFQ4u5tyOyowjGmu3kJL2KZL2ClMElMJ7dD/njMqgNB6HL+hWMj2+AWxb4J65MzIscGnH96x5CuKWBjQ33LYFYMpXZl0KD3lfbKpg9/aVXWOXXGSlbn4d6+luydQYSMQPsmX7IXWibsILZP5eYHfsI7oAE46N/gpCkHefAPxZDOfYlsy/lyedn4Ibim5m99p0VaCedXmcYH/kQgo3ECi5cLH4wauGUmIuneHRObQGMZnbv5c0zoJzcw70aNP3NnLcQ1w0YCL/PhzcXz4eou/zxdftUGKesI99ngTjiabTePp97oiOutb3dXw/5z08gLLcBkglJUzdCl6ntdoSzp+uxaPYMXGxvw/UFRZi/dCVa28j8y+DQ++BWTHwUPXHZ+QiepBwYH9ugnYCgjyzEVKhnqrhXIyM7B39Y8gbLBDXHjmIVaV/tdjv3dqQnwilxFU/xJGXDSHZcSLazE0AXQDm1j3s18otuYK+p6FU48K9v8NG7K3u9AqTEXTzFY8hA0lPlJGhlaQuw8SmWEi+l+NfD8cLsuRAEAbu2b8PGtau4p/eIaZ6/Ej4YYCl5BOqpvSQNniUFTAV0v7geurQCPgPIyh0Eq82Oqn/vw4mjh8lVkJBH4kBvcdXEU3yKgNQRj0JtrEa46QSUI1+QvGWAPmc4nwHk5ReSIoguwH5UHzoISa9HXuEvubdnXFXxFJ8cJCfgYZICw1BJN6jW7WEFES1aoNOzOXkFhbA5ndoCHP6B9QAj7xwDH0mJPeGqi6f4fH7I6TfDnDcc6vGvWAagFRxdAIF3h4OHFCB9YCYq9+1G7bFqXDh/DqWjx0CWZebvCknUo77mBHtdbjKZWDCN+zu8rrCHmxH4dBpUVy0ESzqMk9+DLruEe8F6gHffWMIaoaIbi0lWWAI5oFV6ESxmM07WHEdN9VGSLo9AVVW2eKOG5cBGGidd2hC4vO19TzzFaTGRMnghQt9/TsowPaSxcyCNfI54tIrvGDn6KxbNZ4XQgIxMlP1+Fi6ca0Dt8Wom+MdTdaxVpldjZEkxnJ5KQFWgLxgPd5jUGJw+KT6CrfEAAhVzEfZ7oR88CoaJyyBYM5iPVoLLXn0ZTY3n2ZhCS+PSu8ZiRGkpMgK1CB0k6TTZAan0hQ6iI/Rp8RSHFETgb7O1XoDcf+nOWZBIPU+DIf2f3pq3l7OqcOTou5Gb7COnZTPLGjReSLfPuKzoCH1ePMXpdCBU9RmCO15np0Cw55JFmAlx6ESEfR6E/lMOhVwR1VVHOrxJXYqOcE2Ij+BI1iG4cyVClR+z7pC2yWG5lXiEqERHuKbER3AIbQjuXQ3lMDneheOiFh3hmhTfW1yVxqav0C8+UekXn6gksHjgv3Zz4oLVQ5mrAAAAAElFTkSuQmCC;" parent="1" vertex="1">
          <mxGeometry x="-310.5" y="183" width="25.2" height="20" as="geometry" />
        </mxCell>
        <mxCell id="g1ji7KH7Y5p69nWDD7Ji-1" value="&lt;b&gt;&amp;nbsp; &amp;nbsp; &amp;nbsp; &amp;nbsp;Analitycs cloud - sphere&lt;/b&gt;" style="rounded=1;whiteSpace=wrap;html=1;dashed=1;align=center;horizontal=1;verticalAlign=top;fillColor=#dae8fc;strokeColor=#6c8ebf;" parent="1" vertex="1">
          <mxGeometry x="209" y="580" width="170" height="150" as="geometry" />
        </mxCell>
        <mxCell id="g1ji7KH7Y5p69nWDD7Ji-3" value="" style="shape=image;verticalLabelPosition=bottom;labelBackgroundColor=default;verticalAlign=top;aspect=fixed;imageAspect=0;image=data:image/png,iVBORw0KGgoAAAANSUhEUgAAAUsAAACnCAYAAACYRn7TAAAAAXNSR0IArs4c6QAAAARnQU1BAACxjwv8YQUAAAAJcEhZcwAADsMAAA7DAcdvqGQAACOBSURBVHhe7Z0JfFTV9ccPkI3s+0ZIAglhF0RFFBQQERAVFHDFqlWriOJWta7o362tWhWrFoTWFa0UUREVFVFEBRTZBAIEAkkIhJCd7CH87+/mIYpZ3kzem3tn5nz7GTN3KB+SzLzfO/eec36nQ8LdG48QwzAM0yodja8MwzBMK7BYMgzDmIDFkmEYxgQslgzDMCZgsWQYhjEBiyXDMIwJWCwZhmFMwGLJMAxjAhZLhmEYE7BYMgzDmIDFkmEYxgQslgzDMCZgsWQYhjEBiyXDMIwJWCwZhmFMwGLJMAxjAhZLhmEYE7BYMgzDmIDFkmEYxgQslgzDMCZgsWQYhjEBiyXDMIwJWCwZhmFMwGLJMAxjAhZLhmEYE7BYMgzDmIDFkmEYxgQslgzDMCZgsWQYhjEBiyXDMIwJWCwZhmFMwGLJMAxjAhZLhmEYE7BYMgzDmIDFkmEYxgQdEu7eeMR47rEE+nWkkICOFOgrHuK5r08H6iye+3bqQJ06dKCO4pbRsQPREfGbwC+jsfFI01esxaNBPKk7fIQOi68N4mtVHf6UqF48r2lopNr6RqquPyLXzO/pmxBAieG+xkoPvttVSZW1jcZKP4alB4vPqPhQuiG4ZnAp4HqpEdcGrp2y6sNUJX7fpeJrbYN7XiceKZZ9EwNoUHIgndYtkPolBkqhhDD6CFHsJFQR4ugjRLKDfIhfAh7G38UvA2+2fC6/CuEUXyGcjXgurq+j7zVEFa/jQ3FYvF7f2Ej7yhoo+2AtZRfVUV5xHe0Uz3cdrKOKGn0vTLv58d6elBCml1i+vKKQHvu4wFjpBT6Lq+7JoKQIv6YX3JBfrhnx5LB41IuLRsQVQigbaceBWvpq+yH6alsFZRbUGn9Df9xeLHvE+kth7CcEckBSZ0qP8aewzp2MP9UDfHBwZ90tBLSkqoHyy+qlgO4TX3OEoOaW1NPBQw3G/9uzGJoWRO9e381Y6QMu2pOf3EbFlYeNV/TBE8TSLAcqGuinnCpaKx7rcqvlA9GojridWCJCjAjsRBcNDKNrh0VTomYRi7NASFfsOEQrs8RjZ6XcqtSJCxp3Z3fmyYmJ9IchkcZKL25+J5cWrS8zVvrgTWJ5POU1h2nWl4X01poSqqw7LHdsuuA2Yomt9JRBETS+f6iIIjtTsL/n5qaqxZ11jxDPnJI6cdetphViy7Jhb7Xxp+7F6nt6iotezxvaxz+X0/Vv5hgrffBmsTwKdmKION9dW0ofbtTjhqa9WKZE+tFEEUXecEa0dttrV4LI838/ldKyzAq5dcdBue5MHBBGL17W1VjpBxJyg57I1G4rzmL5WzbnV9OTSwvox91VVKEwKaetWIYGdKKZ58XTmD6hctvNNFEjtucHKxpo6ZZyev7LA1Sk4Zkb8PfpQCvu7KH9Bf/2D8X054X5xkoPWCx/D6pQsgpr6fYFe2mjol2WdnvZTuI7uvq0SFo6I40uPTmChfI4AoQIYVt77dAocUH1pOemdJHJLd3okxBAcaH6nyeP7BlCUUE+xorRFZ9OHahXfAB9cksaPXdxEqXF+Bt/4jq0Ekska1Bm8viEREoW22+mdVAzOuWkCBqWFmy8og/j+obKZJzuxIb4yooKxn2YMiicvrwtnS4+KVzWR7sKLcTST0RL04dH08c3p8kPL+MYn28tN57pw4UnhhvP9AYX24yR0caKcRcQaf5jchLNuzKZ4kNdszNQLpbYZiOSvHdsPMWE8HbIUVButPNgnbHSA0S77lTSNTwjRMm2jmkfaCY5p08oLb+jBw1ODTRetQ+lYhnk35FevzqFLj8lQv7gjGOgc+i+D/RKTmDrjffT3cA5OeOeIBn8+jWpdPOIGOMVe1AmlqlRfrRkeprsvmGcY+v+GsovrTdWeoC2xp5x7helndkDvdhaHeEzDhAiAq97xsTR/ePi5LGeHSj7dCy6sRsfrLeTFTuaOn10YkyfELesh0WbbA83FHnmGDh/njY8hmZdnGRLctHlYomyl+W3p3Mip52g7uw/3xUZKz1AbeWMkfZuhezkbxcmGs8YdwUSiS4/lNThmM9KXCqW2ObgA5kRp19doLuxeFOZNOTQifNPCKNIN65ZPKFLZzqxa2djxbgrHTt0oIkDw+nBc+Oly5hVuEwsfcQ3/cTEBBqREWK8wjgL2vTmrykxVvpwTm/3f2/P9oCfgWnislMi6MHx8caq/bhMLHGAPnGAe9Te6U7hoQbKLKgxVnqALfgpqUHGyn05v3+Y8YxxdxCgXTc0iq6yyPXKJWIZH+ori0ftylJ5G4vWlWpn/nD5KZEU6wF1sqi3HNs31Fgx7g4U55HzEyyp0HCJWN471r50vrdxqLaRXl1VbKz0AHVud4+JNVbuz+2jYtyiVZMxB97LN65Jabdbv+1i2T3ajy4ayNtvq1i+vUK72ko41EMwPYXu0f6UwWVtHkWXcD965Lz2JXxsFUsYPbx6VYqcecNYwyc/69cHfl5/z9q24nM7ihM9Hsf4/mF0xWDnu8tslbHTuwdRN3GXZqwBBejf7aw0VnqAAvTx/TwvKYKkAJJWjGcxfXiM07aPtorlleIDZ2GZk9fzysqDMhOuE+gDjwjyPM9RJCUnDODMuKeBppi5U5ONlWPYJpbIKo7M0M9n0V2pqmuk2SsOGis9wHb14pPdzzTDLJNODOdEjwcyROx4UcroKLaJ5a0jYyytnvd21u6p0m7uDpJ3yZoOI7MCJK4iPTBqZohuOyvGYaczW8QS51ju4ibU2EhyfvfP+dW05Ody+mhjGS1YW0pv/1Aix3Hi64KfmibM4c9XZ1fSln01ct6xK8fULttWod1Y3MmDwinAg516QgI6tSshwOjLySmBdJ6DZ+22DCzrnRBAH92UJi4kvSJLnPftF8K4WYgdxmyuy6mmLfvb1wnTPcaPYoN9ZGlCSpQv9Y7vLJ2bcaGhkR+Hye21/sLQ+ZOe2KZVZInRxOvv7+XRYgkwlnjAY5lU6cKpgrhqeGCZ/ew6WEtjZ+2kyjpz760tYnnT8Gi6f5x1PZntBb6Pj3+yn7buqxWC0yDEx94QDW1Wnf06ymwq5pujs2VYejD17xJAw3uEOJxlfXN1Md2zSC+T3xvPiLa071Zn7vhfHv33x1JjZT8slq6h7vARmjQ7WwZOZrBFLBfd2N0lNu9tsS63iuauLKL3N+gxpB3gnCQjNoAGJAXIaXW9xaNnXIAU1ObOUBBVTp6TLX4WNeM/mwNn0e9cm0qnp7l/L7gZPtlcTte9kWOs7IfF0nW8v76Upr+TZ6xax3KxxBud99d+TQtF4Ad6ecVBevzj/U0vuAEwQr54UDhddVqUjEqP5sayD9bRuf/MovIadcPljwdZ8M0P9faaFta6hiPU/cHNdMTeDckvsFi6lr6PbDV1xGX5gdNADfwAX/nmID39WYGxcg92HKilxz8toP6PbqUxs7LE1m8vLcusoPfEnU8noQR3nh3rVb3++FmfmMDGwJ7KtOHmpntaHlme2y+UXnGy6NMK1uZU0QUv7TJWjNUgYbXxgV7U0cvKwpDgGfL3bS5xe1IdWd61cC/N/6F9fqn4nPRNDKAh3YKkh21ypK80htbxU4PjuotmZ8sdRGtYHll2i1K7dUAyhLGPs3qGeJ1QAhyNnMTD9UxTUnWYVmZV0tOfH6AJL++i8f/cSQ8v3idf1w1MbsDRUltYLpbhgWo9DXVKhHgi2Dl4I7g/XD6Yx+U6A0Y255bU09xvi2jUc1m08KdS2ZGmC0FCKMeZ8DC1XCzNKLSdZB2oNZ4xVoNuFm8euzC6VwjFh7m/wbFKCsrr6dYFeXTLf3PpsKsyZiaYaqL5wHJlU71D0+fX73nMGBkra0hV8v0uda5LKO267SzPMTlWBTTy080VdP6Lu2QnnA4MSAps043IcrGsbVAbXnvhcZpLiA72oYmKXXhQ3vHwR/vaPIi3ExgwOGvxxfyWDXnVNHnOLi0603AjROdha1gvljZ3x7RFfDut45nmgWmGaiu2N1cV0/YDtVSm8OJKCveVzQSMNewsrKMHP9hnrNTSp4331XKxLKxUG1b3bePuwDjHNadHKd2Cw/gYRiaIKuesVGdVh+4l1Jky1oFa4oXrXNdO2hLJka1X8lguljnFaufDDHfCp45pnZgQHxqvOAt+8FAD5ZbUyeevrCySbaCqQO3gCV3UN194EqjtzDPeX1WkxbhYLMuq1UaWEweGy9ZBxjquE1Glam/SFVmHfqnRqz98hNbsNmd+YAc432IXdWvBzuEDxR4OkW2UPVoulpvz1Q7/x+H7wj91k2MBmPYDe7mzeqktF4KP52vfFRmrJr7efsh4poZRin8nngh8Y1V6tia30VBjuVhirnVOsdpwOirYh16/OtmSwereTkKYj/JI/cc9lbTpuJvw0q1qp1xibMrQND7ysRL4I6zJVlca1tY4Z8vFEqxS+AMfpW9iZ1p4Q3c6p7fj/pHMMWaOT1A+hwaJneOBG5PKmkucSjx+QbzyulNPY8nP6rbieCth2N0Stohlcx9uFWBL/sqVyfTGNak8S8UJUsS2RPUWHPzQwvkk+o5VkhYbIM0iGOtYm1OtdiveykwpW8RyZ2Gt3I7rAO78Q9OC6Md7e9FfL0yUFnIcDJhjFEwzFP+u0B6HmUfNsa2gRs5PUgV+NzzB1FqgG9UK+8ZhmNIStohlYUWD0g9xc2ArfuWpkXI20JwrkqVlFG+hWmdMH/VR5fNfFsrsd3OUVx+WgqmSy06JkNlxxhpguqGyZzyilYy4LWKJu8PXO9RmK1sCH+xx/ULpqzsy6N3rU+W8IMzJYX4LkmOoJ1QJOnWQIW0JaOiHG9Ue+cBz8vwTuIzIU2ho4cYMbFOJ+WuKqUHl4UMbINI8VYgBBqtterA3PXVRIp3WPYjPNgUIuGEY4aM4sfNTTnWbW7Ilm8qU9xb/aViU8t+VpxDgg0F/6oKXAxUt74ht+662FdTS8m0VxkpvMDYAXoXzr02lpbek0/MXJ9FJyd7boZEQ5ksjeqo/i/sis7xNFynsYj5UXMycHuNPKW20yjHmiAnppG31iq0SvnBdmdLMlqP4ieggMdyXJg8Kpw9uSqNlt6XTYxMS6Lz+oV5l0IHtd7C/2ggbu5KlW8zdbNH50dK5pivAjPhxfblI3QpG91bbVrt1f8t+uLaK5edby8U2Sj8beTPg3gZ3mWtOi6LZVyTT2nt70vs3dpM90p6+4cLNQnXu67Mt5aaThFmFtVSheKjbrexzaQkXnhhuPHM9bd1wbRXLmvojciavRobI7eKU1CCaMzWZtjzcW7ZUPjQ+XvobelKC6ISkzjQsXW1iB7uR+WvMD8yCycbKLLUJRUwIQGaccR5UX0Qq9AotaOW8Eth+lX++tYJW71bf0WMlaIsa0j2Ibjgjmt6+NpU2PtiLZl2SRGP7hlJqlJ/biicqBa4eEimiSrVhJUrPWtsONQfmxKs+8sF8Iq5Gcw585K5QPONoT5FisQSolfNkkL2bJLYP865Mpk9vSaMl09Polald5WshAe4jnGG4CSguFwLbD9RQoYgWHWHj3mratl9tzeVgsfPgrLhz9IoLEDsatUnF1jLhwCVX8oodh2jet0VeMR8Hh/3psf4iygiT0eaWmX3oo+ndZXnJGeLDgPEMutInMYC6apDVfWN1sSxOdpTlip2IsKO455w4Y8WYJTbEh976Y6ryLPieotYNgFwW9jz1eQHtKPC+yYvYlp3YNZBmnpcgPhAptOruDHr58q7UO14/R6QHx8Ur30YiqfOxk94CSAqp5k9nRLfpXsP8lrvEDSYuVH0QsacNtzSXiSWylX9euFd8dc/suBXAQBe9pxecEEZLZ6TT4pu6012jYylDA7Pi/l06y+SOahatL3M6Ibg+r1r2kqsEN5uRGtSougOob75/XBxddrIeibFNe1s/xnHpgdranCp64MN9Tm2xPA0I56DkQLptVCx9eXsP+peINvskBCizQzu/v9r6NoCPxbc7nd9Ko/QDiR7V4GbItA6ChmlnRotHjEzuqKa6vpG2tnHm7fLsw/sbyuQMFeYY+LCgvxiR5sIbusmsuqs5p496sYTYITpsD4hMVTtejewZQjEan02rJi7ERyZDsf3WQSjBgrVtD0xzuViiUf3Rj/fT3G9ZMI8nwLcjnSSizblTk+nNa1JpWFqQ7CqyG2y/dZhbtHhjGZUac3acBeYbLVm6uQokKu4czUXqx4PBd1NPjaRv78qQgwU10Um5o1m0XkOxPMpjQjBfXuHZJUXOgrstzr3e/GOqdEayu1D3mUldjGfqwAf2758VGCvnQXSqg1P/Ob1DObo0QMLrvrFxtPz2HvTkxMRWPSNVkF/asmfqr+mQcPdGZQeIOJ+DRRrmMKueHqgzcNV56atCWwqve8YF0NIZacpHR/yUU0Xnv7TLWLWPrhF+9N3dGUoz+ziXv/q1HPrSCTMZfNur7smQ9m8q+GxrBW3a277jkCAhiEkRvtQ92l8mMHWuP126pZyufzNHvGfGCy2gVCyPgrGiT4noBr9gpmWyi+roinm72yxxcITrh0XRw+clGCt1PP/lARFZWjcm4o2rU5SPxIDr1tT/7DFW5lEtlt7GLe/k0Xs6b8N/Dc6qJs/Ops2Kz5p0p1uUH70/rbulPcgwzdCBZZnWFpTP/6FEuSfBmT1CpBkLoy/7y+pp8SZzFn9aiCW2lmhXmzInm95dW0qVmszv0RF0O2CW0B2jYuRM7/YwIiOY+iWqr63MFZEyysqsBDde1abAncTb84dTIz3epcpdwb0UR1tm7f202vcik3nHgjya8kq28tnjOoPZQbefHUdPT050eo4Q/h6MQHRg9jfW10bmldRJEVbN0PQg7RIaTBOovMD5rFm0exeh8Rvyqums57LoocX7KFOxOYKuQCMnDAin165OlnVrjoIyjt4J6reI5TWH6VOTJr+OgN3Kv79TX56GBEd/DaJ35vfA1m9vqfmOL21veZi9AvONUUI073pvL5VUNVieCXZ3EFOOyAihRyckOpz5PbFrZy1KW3YX1Yn31p7tMoadtbdus73gfXliQgJvxTUD+nLfB/kOdRO6xf4ARrDDnt5BN76VI00WzJ4xeAvwUXx2SpIsajfLvWPjjWdqwfycmnr7zqiX/Kx2Pg/oJSL4ARr03TPHwK6juNKxG6nbHKYgQlgihBL1UKf+bRs9/XkBZRbUiB+4wSus31oDUctFJ4bTH041lyVHYqd7tPqylLqGI/Tm6mJjZQ/Lt+kxknm0Bu2kTBPoA39tleOfO7cRy19TUN5Azy4rpAte3EXjXthJ0+bn0ocby7QevWs32O7dPSaOzjZRW4hIVAe+yKygCpsrH77XoJsHTGBzDS1AOdmM/+Y5dFZ5FLcUy6NU1jVSnvihUacJwez7yFb6w6t7aO7KIvp+V6VtZ2G6glKiB86Nb9WdvamVUv0kQtzXcIOzG+xIPtjQdsGx3XQTkfwoxUXyDMmOKnTsOINbi+XxwG1mmYhWZn60jybPyab+/7eVLvzXLnrnxxKvsYWDIcZ9rZxHwtEoUYOxvtgKtbelziyPf9L+nnMr0KFTyttpsog0Fg7iUWJ5PJDHNbur6M7/7aWU+zfLLTtCcIwt2F7guSVJcHY5OSXQWB0D/d+PX6DHBYvff26Ja4x695c30DYNXPoTwnyoXyJ39KgAbme3vpvXrvptjxbLX4OzCnQJLVxXSn9ZlE8jn82i/o9upYfEnQZ1nfvL66m2wTOiT5xf/vH0KGN1DGRk40LVR5Xg2S8KXRbt49/5cY/6s0sck2B0MuN6MGUWlRftwWvEsjlQOjDvuyI678WdMuqc8PIumrl4H23Od/+oEzOYE46bazJWk4wsBkMtc8KNpz0s3qh+Pg+4fpgeXVPexI97qmiGiCrr2lly6NVieRQEOAcqGuQZGkyJz5mVRQMfy6RHluyTzjFFDo5l1QHUXD42IfEX6zvMOzlXg9ER4Jt2jI5wlm+yDmnRQove/ks1mTnjDWDHePd7e6mqrv1VFyyWLYC51XO+KZLZ9VP/tl2edZYrNmZwFNRTdo1o2naf2zeUUjQYcwuWW+wwZBZnauvsAE5Pzvb0M+ZBK+1EsVu06ryaxbINEHUic4uzzn7/11SahHkdKKjWHX+fjrKtEVHmdcN+f4apApwLq3Iy/2JrhRaOVn0TAygqmMfl2gkiyelv51maRGSxdAAceaA06bYFebJnHTZgqj0TWwM1lRhEhugyLVqPOeWFFfWt1oHaBY4jIgI7ifdQ/RuGMQuwbmPsAe5lCGqccalvDRZLJ9l1sFYaFt//Qb4l5yF2gcFQ48QWPLSzHpEM3L8/vCmNHhofT4Eusi7DDKNnJiXSO9elSqHSASR6VNw0PB00IVzz2h5bdi+dQoZOe9h4zjgItpQoO4JzDrozVM+xaQ5swQenBmk14yjIv6OsA8Wscp+OHWUkUF7TaKmrVLD4N7DdvWpIlBy72r9LZ63mwCDhtrOwrtnpAPgucWyiyw3OXcB1ePm/d9OGvfZUs2gxg8cTGN8vlF66vCsf3DsIdsVoWy0or5dGKQvWloio3fms9eDUQJp0YjiN6dMUTWMsra58tqWCrnn99zN68B3zDB7HWC0iSQyIQ1LHLlgsLSLAtwPNuSKZ+38tAD39Ow7USg9TmKZUiAvg6FEHos+j96NgsaUOE4II8+Oukb7UJcxPRq3uApJNg/+67XfjL1gszYPPBZyr/vHFAdtNWVgsLQSZ58U3pcnECsOY4fVVxXTv+/nGqgkWS3PgfHLGu7lk9bC7luATZgtZl1tNW3kMBuMA8CHFiA/GPGhfnfPNQdk84iqhBCyWFoPtI8OYBRUBg5sxPWF+D/xq4e9wxb930yNL9jvlSdkeWCwtBpldhjELzl91md2uM/vK6qVnLSwXv8lS09TgcrG85OQI+vSWNJk99kS4do5xlLN6hlCyJq2ouvFTThXd934+DX9mh5y/VVOvLsXi8iv7zPRgWfM2Z2oyrfxzD+kg7SnVNvg58MFnGEdA/eetI2OMlXcDKYT3JJyChj29nc5/aZfs6Ud5mWpcKpY4nxnd+5iYdIv2p89npNPrV6fItjyda+LaAgXpT03qIktZGMZRTksLku2Y3gq8FuA5edfCvTTy2R3SLjG7HfW2duDS0qEpg8LpuYuTjNXvQXLk6c8P0PrcKulu7S4DyCDy15wWRfeOi+OidMYp8FGfNHuXdPbHJ8iTS4dgTIOzfZT+oINpyaYyWrrFtf6mzuAysYSGvCYiSDPb1IOHGuTYgTfWlEinGJ17r6ODfejZyV1ohPi5WCeZ9vCDEMqJ/9rl9mIJ4ccs+Gpx3RZVNlCxEMXM/bUiGKqh7KI6yi+tl3aHaHGFcLoLLhNLbE+XTE+TZ5SOgO4GuIes2HGIft5bQzsLa9vteNxe0GfdNyFAduvcPCJa9l8zjBWgdnBLfo1SscRWeP4PJcaKOYrLrvJwIZbJkY7Pf8Hfu2ig2L5PSaLPbk2nbY/0odlXdKUJA8Jc5lpzFESOE8W/u/z2dFpycxr9eXQsCyVjKehrZ/TEZZHlA+PiaNpwazN+ONPMK6mn/DLxEKE9ilS3ie07ZuvkldTJc09nwnxsrZPFXT0+zEeOlsUDyahecf4sjoytZImd04hndnBkqSEuEUtkitc90IsiFGSKkWUrqGig3JKmzhoYM5RVHxPQIBGddonwka7iXcJ8ZeuZTnZmjPdxwUs76aXLurJYaoZLxPKUlEB6f1p3Y8UwTGvAlxEVFgni5q0CFsvmccmeclg6z0pmGLOkRvlRvCbz3ZljuEQsT+3GRgEM4whs86cftoslzFjh88gwDOPO2C6WmLMS7M8tgAzDuDe2i+W1Q6ONZwzDMO6LrWKJg+r0WD3mVTMMwzgLjhNtFcs+CQHkyzWLDMO4MZ2ESv5jcpK9Ynlmj2DO6nkRy7dX0J5ivWy1HGXLvhr6YEOZsWK8HZh5QyjPPyHMPrGESI5iI1yvAUOkrnsjl858egfd/E4u5ZXWU22DWsMTM+A7REssHLkvn7ebRj+fRQ8t3iddcRjmuqHRNOWkCPncNrEc0i2IEsO5sNZbeGtNibTlQr/+ovVlNPyZ7dLAdaYQHgzA182bFG7cyzIr6I4FeTR21k7pyP31jqZJgRDKzAIePOftIDk9fcQxPwtb2h0RVc66OEmO+WQ8HwjPwMczqaSq5WgsJdJPWtqd0yeEEsN8KS7Ul4L9bT0F+g343gorGmh3cR19tLGM3ltfSkda+eTfNTqWbhsVa6y8C253JJo0KJyeEdtvv07HzhFtEUt4V340vTt1j+ZMuDfw895qGvPCTmPVNqEBncRnpCNlxPrLVtjBYhdyQpfOlponw0Blw94q+jLzEK0SkW1uST1V1BymytpGufVuC/Rl/3hvT2PlXXi7WF43LJoeGBdPfseNubFFLGHw++kt6S6NHBh1zPu2SJ7ztQfcwbtE+FJSuB+lRPlSRKCPnEkTIoQ10K+DENIO1PlX9ng4Z8Q5Kcyhq+uOUHFlg7TogzM3bPusSDQturEbDU4NMlbegzeLJabPPj4hsVmvXFvE8o+nR9KjFyQaK8ZK4BJfK4QCIqILl83bLZ3sPQ0cI71wScszozwVbxXLyQOC6JFxTcmc5rAl9LticKTxjLGSDXnVNP3tXJc7xLcGzgG/36Vm6L3doIxIhxGsjP1cflIw3TOq9RyL5Vddr/gA+WCs41BtI/3nuyI678Wd0rVdJ3PiN1YXU73imUh2gXlPuBkwns2YXp3pL0IocdzTGpaL5Rnp3nfGYycYk3HJ3Gya+dF+OTUPGWVdQKkQxph6KrgJvP1DsbFiPJGUCB+aOTZCdum0heVi+cnmClq8scwtCpJ1Jre4jp74dD+d9WwWrc+tlskM9NoPSNLH7g4Jlfwyz468Xv2+2K3GtTLmgW/F3EtjKCzAnAxaLpYYFDbt7VwaMyuLfs6vNl5lHOGVlQdp2NM76MWvDhqvNPHURV3IR6Mt+LrcKiqv8exOFxyBrM6uMlaMp4C63+W396DEMPOJUsvFEqDYd8eBWrroX9l0w1s59KGINDVr4NAOlLy8/PVBEUnuoIfFlvv4jhdElaek6uU4P/fbIuOZZ/P19grjGeMJpIhraf61qQ6f/dsilkdBJvGjTeU0bX4unfb3bfTeulI6UNEgt5TMsVG+T35aQEP+tp0e+2Q/bWuhzQ7to5iSqQtIfmzaW2OsPJvvPDTb740gQbrizgw52tpRbBXLXwNRuOW/eXJ7Pml2Nr2+qpiqvLQsA+2BC34qpUvn7qYxL2TRP78qbPN3MXFgmPFMDxaKG5+3sHV/DeW4uZsS09QsM//abk4HHS4ZhdsSOH8bmhZE4/uHUq+4AEoW4XFMsI/xp54DjiXySuvk0cTSzRXyWMKRs76ecf607LYe2tjdYWcAofemiOuSk8OlVZc34IlF6RniGnpbCOXx44VLSsz/nErF8teg3Q29mEkRvnTJSRE0IiNEhszu7IeJaBER5CIRhaHAuabhiFNHEK9MTaZz+4UaK/UgO3zCo5letTNAx9Sav2TIvnZPxxPFMuvRvs02c7ilWDZHZFAnSo8REacQUBzKJkf6yUQHBDU2xEf2C+sABDCnuJ6yi2opU2zZcO64Ob9Gbt/aC37Oj29OUzZwvzneXF1M9yzKN1beAXZBb1+XSqd39/w6Yk8SS0jEvCtTaGzf5oMNjxHLtkDkOTApUBov9I4PoLQYf+lsjA82Ml0oNO0gfls4ougonnckGDI0/QLx+lGtNb5IN5qjtl2N4slhETgdEf9rEDtmrPEVSRlsoTfmVcttNRxt0IZoV13p6N4h9J+rUn75HlWDwHjgY1upqNKzS4aa486zY+kO8fB0PEUsA3w70v/+1I0GJbdcReI1YtkcEMkgvyaHGn/xgHBiex/g20E+x+EuvkI0fYyDXvwXwgkhaBT/wVeIYnU9nh+hQzWN0sAC205YfLmySBk2ZoiqdQHWZ0dNcr2N6GAfr5iBjyMjNBy4O6+KIOOcPq0fX3m1WDIM493AGnLO1BQakRFsvNIyLJYMw3gt8y6NoVNTzCWHIyJatmQ7HpfVWTIMw9gJjtdemBRFQ1LtqaJhsWQYxu1BMvf1qTF0Vg+7zpSJ/h8YFNYpxnoKMAAAAABJRU5ErkJggg==;" parent="1" vertex="1">
          <mxGeometry x="209" y="590" width="19.82" height="10" as="geometry" />
        </mxCell>
      </root>
    </mxGraphModel>
  </diagram>
  <diagram id="gO9L1sdzdQqhC00va6Ea" name="Page-3">
    <mxGraphModel dx="2284" dy="778" grid="1" gridSize="10" guides="1" tooltips="1" connect="1" arrows="1" fold="1" page="1" pageScale="1" pageWidth="850" pageHeight="1100" math="0" shadow="0">
      <root>
        <mxCell id="0" />
        <mxCell id="1" parent="0" />
        <mxCell id="clbKPj46WCwfzNckeA0O-1" value="&lt;b&gt;&lt;font style=&quot;font-size: 14px;&quot;&gt;FUENTES DE INFORMACIÓN&lt;/font&gt;&lt;/b&gt;" style="rounded=1;whiteSpace=wrap;html=1;fillColor=#fff2cc;strokeColor=#d6b656;verticalAlign=top;" vertex="1" parent="1">
          <mxGeometry x="-413" y="70" width="373" height="870" as="geometry" />
        </mxCell>
        <mxCell id="tBitRGPRe5gGITiWDtUl-1" value="&lt;b style=&quot;font-size: 13px;&quot;&gt;Comforce&lt;/b&gt;" style="rounded=1;whiteSpace=wrap;html=1;dashed=1;align=center;horizontal=1;verticalAlign=top;fillColor=#f5f5f5;strokeColor=#666666;fontColor=#333333;fontSize=13;" vertex="1" parent="1">
          <mxGeometry x="-320" y="180" width="170" height="150" as="geometry" />
        </mxCell>
        <mxCell id="tBitRGPRe5gGITiWDtUl-2" value="&lt;b&gt;SAP - OnPremise&lt;/b&gt;" style="rounded=1;whiteSpace=wrap;html=1;dashed=1;align=center;horizontal=1;verticalAlign=top;fillColor=#dae8fc;strokeColor=#6c8ebf;" vertex="1" parent="1">
          <mxGeometry x="-320" y="390" width="170" height="150" as="geometry" />
        </mxCell>
        <mxCell id="tBitRGPRe5gGITiWDtUl-3" value="&lt;b&gt;CIO&lt;/b&gt;" style="rounded=1;whiteSpace=wrap;html=1;dashed=1;align=center;horizontal=1;verticalAlign=top;fillColor=#f8cecc;strokeColor=#b85450;" vertex="1" parent="1">
          <mxGeometry x="-320" y="600" width="170" height="150" as="geometry" />
        </mxCell>
        <mxCell id="tBitRGPRe5gGITiWDtUl-4" value="" style="shape=image;verticalLabelPosition=bottom;labelBackgroundColor=default;verticalAlign=top;aspect=fixed;imageAspect=0;image=data:image/png,iVBORw0KGgoAAAANSUhEUgAAAUsAAACnCAYAAACYRn7TAAAAAXNSR0IArs4c6QAAAARnQU1BAACxjwv8YQUAAAAJcEhZcwAADsMAAA7DAcdvqGQAACOBSURBVHhe7Z0JfFTV9ccPkI3s+0ZIAglhF0RFFBQQERAVFHDFqlWriOJWta7o362tWhWrFoTWFa0UUREVFVFEBRTZBAIEAkkIhJCd7CH87+/mIYpZ3kzem3tn5nz7GTN3KB+SzLzfO/eec36nQ8LdG48QwzAM0yodja8MwzBMK7BYMgzDmIDFkmEYxgQslgzDMCZgsWQYhjEBiyXDMIwJWCwZhmFMwGLJMAxjAhZLhmEYE7BYMgzDmIDFkmEYxgQslgzDMCZgsWQYhjEBiyXDMIwJWCwZhmFMwGLJMAxjAhZLhmEYE7BYMgzDmIDFkmEYxgQslgzDMCZgsWQYhjEBiyXDMIwJWCwZhmFMwGLJMAxjAhZLhmEYE7BYMgzDmIDFkmEYxgQslgzDMCZgsWQYhjEBiyXDMIwJWCwZhmFMwGLJMAxjAhZLhmEYE7BYMgzDmIDFkmEYxgQdEu7eeMR47rEE+nWkkICOFOgrHuK5r08H6iye+3bqQJ06dKCO4pbRsQPREfGbwC+jsfFI01esxaNBPKk7fIQOi68N4mtVHf6UqF48r2lopNr6RqquPyLXzO/pmxBAieG+xkoPvttVSZW1jcZKP4alB4vPqPhQuiG4ZnAp4HqpEdcGrp2y6sNUJX7fpeJrbYN7XiceKZZ9EwNoUHIgndYtkPolBkqhhDD6CFHsJFQR4ugjRLKDfIhfAh7G38UvA2+2fC6/CuEUXyGcjXgurq+j7zVEFa/jQ3FYvF7f2Ej7yhoo+2AtZRfVUV5xHe0Uz3cdrKOKGn0vTLv58d6elBCml1i+vKKQHvu4wFjpBT6Lq+7JoKQIv6YX3JBfrhnx5LB41IuLRsQVQigbaceBWvpq+yH6alsFZRbUGn9Df9xeLHvE+kth7CcEckBSZ0qP8aewzp2MP9UDfHBwZ90tBLSkqoHyy+qlgO4TX3OEoOaW1NPBQw3G/9uzGJoWRO9e381Y6QMu2pOf3EbFlYeNV/TBE8TSLAcqGuinnCpaKx7rcqvlA9GojridWCJCjAjsRBcNDKNrh0VTomYRi7NASFfsOEQrs8RjZ6XcqtSJCxp3Z3fmyYmJ9IchkcZKL25+J5cWrS8zVvrgTWJ5POU1h2nWl4X01poSqqw7LHdsuuA2Yomt9JRBETS+f6iIIjtTsL/n5qaqxZ11jxDPnJI6cdetphViy7Jhb7Xxp+7F6nt6iotezxvaxz+X0/Vv5hgrffBmsTwKdmKION9dW0ofbtTjhqa9WKZE+tFEEUXecEa0dttrV4LI838/ldKyzAq5dcdBue5MHBBGL17W1VjpBxJyg57I1G4rzmL5WzbnV9OTSwvox91VVKEwKaetWIYGdKKZ58XTmD6hctvNNFEjtucHKxpo6ZZyev7LA1Sk4Zkb8PfpQCvu7KH9Bf/2D8X054X5xkoPWCx/D6pQsgpr6fYFe2mjol2WdnvZTuI7uvq0SFo6I40uPTmChfI4AoQIYVt77dAocUH1pOemdJHJLd3okxBAcaH6nyeP7BlCUUE+xorRFZ9OHahXfAB9cksaPXdxEqXF+Bt/4jq0Ekska1Bm8viEREoW22+mdVAzOuWkCBqWFmy8og/j+obKZJzuxIb4yooKxn2YMiicvrwtnS4+KVzWR7sKLcTST0RL04dH08c3p8kPL+MYn28tN57pw4UnhhvP9AYX24yR0caKcRcQaf5jchLNuzKZ4kNdszNQLpbYZiOSvHdsPMWE8HbIUVButPNgnbHSA0S77lTSNTwjRMm2jmkfaCY5p08oLb+jBw1ODTRetQ+lYhnk35FevzqFLj8lQv7gjGOgc+i+D/RKTmDrjffT3cA5OeOeIBn8+jWpdPOIGOMVe1AmlqlRfrRkeprsvmGcY+v+GsovrTdWeoC2xp5x7helndkDvdhaHeEzDhAiAq97xsTR/ePi5LGeHSj7dCy6sRsfrLeTFTuaOn10YkyfELesh0WbbA83FHnmGDh/njY8hmZdnGRLctHlYomyl+W3p3Mip52g7uw/3xUZKz1AbeWMkfZuhezkbxcmGs8YdwUSiS4/lNThmM9KXCqW2ObgA5kRp19doLuxeFOZNOTQifNPCKNIN65ZPKFLZzqxa2djxbgrHTt0oIkDw+nBc+Oly5hVuEwsfcQ3/cTEBBqREWK8wjgL2vTmrykxVvpwTm/3f2/P9oCfgWnislMi6MHx8caq/bhMLHGAPnGAe9Te6U7hoQbKLKgxVnqALfgpqUHGyn05v3+Y8YxxdxCgXTc0iq6yyPXKJWIZH+ori0ftylJ5G4vWlWpn/nD5KZEU6wF1sqi3HNs31Fgx7g4U55HzEyyp0HCJWN471r50vrdxqLaRXl1VbKz0AHVud4+JNVbuz+2jYtyiVZMxB97LN65Jabdbv+1i2T3ajy4ayNtvq1i+vUK72ko41EMwPYXu0f6UwWVtHkWXcD965Lz2JXxsFUsYPbx6VYqcecNYwyc/69cHfl5/z9q24nM7ihM9Hsf4/mF0xWDnu8tslbHTuwdRN3GXZqwBBejf7aw0VnqAAvTx/TwvKYKkAJJWjGcxfXiM07aPtorlleIDZ2GZk9fzysqDMhOuE+gDjwjyPM9RJCUnDODMuKeBppi5U5ONlWPYJpbIKo7M0M9n0V2pqmuk2SsOGis9wHb14pPdzzTDLJNODOdEjwcyROx4UcroKLaJ5a0jYyytnvd21u6p0m7uDpJ3yZoOI7MCJK4iPTBqZohuOyvGYaczW8QS51ju4ibU2EhyfvfP+dW05Ody+mhjGS1YW0pv/1Aix3Hi64KfmibM4c9XZ1fSln01ct6xK8fULttWod1Y3MmDwinAg516QgI6tSshwOjLySmBdJ6DZ+22DCzrnRBAH92UJi4kvSJLnPftF8K4WYgdxmyuy6mmLfvb1wnTPcaPYoN9ZGlCSpQv9Y7vLJ2bcaGhkR+Hye21/sLQ+ZOe2KZVZInRxOvv7+XRYgkwlnjAY5lU6cKpgrhqeGCZ/ew6WEtjZ+2kyjpz760tYnnT8Gi6f5x1PZntBb6Pj3+yn7buqxWC0yDEx94QDW1Wnf06ymwq5pujs2VYejD17xJAw3uEOJxlfXN1Md2zSC+T3xvPiLa071Zn7vhfHv33x1JjZT8slq6h7vARmjQ7WwZOZrBFLBfd2N0lNu9tsS63iuauLKL3N+gxpB3gnCQjNoAGJAXIaXW9xaNnXIAU1ObOUBBVTp6TLX4WNeM/mwNn0e9cm0qnp7l/L7gZPtlcTte9kWOs7IfF0nW8v76Upr+TZ6xax3KxxBud99d+TQtF4Ad6ecVBevzj/U0vuAEwQr54UDhddVqUjEqP5sayD9bRuf/MovIadcPljwdZ8M0P9faaFta6hiPU/cHNdMTeDckvsFi6lr6PbDV1xGX5gdNADfwAX/nmID39WYGxcg92HKilxz8toP6PbqUxs7LE1m8vLcusoPfEnU8noQR3nh3rVb3++FmfmMDGwJ7KtOHmpntaHlme2y+UXnGy6NMK1uZU0QUv7TJWjNUgYbXxgV7U0cvKwpDgGfL3bS5xe1IdWd61cC/N/6F9fqn4nPRNDKAh3YKkh21ypK80htbxU4PjuotmZ8sdRGtYHll2i1K7dUAyhLGPs3qGeJ1QAhyNnMTD9UxTUnWYVmZV0tOfH6AJL++i8f/cSQ8v3idf1w1MbsDRUltYLpbhgWo9DXVKhHgi2Dl4I7g/XD6Yx+U6A0Y255bU09xvi2jUc1m08KdS2ZGmC0FCKMeZ8DC1XCzNKLSdZB2oNZ4xVoNuFm8euzC6VwjFh7m/wbFKCsrr6dYFeXTLf3PpsKsyZiaYaqL5wHJlU71D0+fX73nMGBkra0hV8v0uda5LKO267SzPMTlWBTTy080VdP6Lu2QnnA4MSAps043IcrGsbVAbXnvhcZpLiA72oYmKXXhQ3vHwR/vaPIi3ExgwOGvxxfyWDXnVNHnOLi0603AjROdha1gvljZ3x7RFfDut45nmgWmGaiu2N1cV0/YDtVSm8OJKCveVzQSMNewsrKMHP9hnrNTSp4331XKxLKxUG1b3bePuwDjHNadHKd2Cw/gYRiaIKuesVGdVh+4l1Jky1oFa4oXrXNdO2hLJka1X8lguljnFaufDDHfCp45pnZgQHxqvOAt+8FAD5ZbUyeevrCySbaCqQO3gCV3UN194EqjtzDPeX1WkxbhYLMuq1UaWEweGy9ZBxjquE1Glam/SFVmHfqnRqz98hNbsNmd+YAc432IXdWvBzuEDxR4OkW2UPVoulpvz1Q7/x+H7wj91k2MBmPYDe7mzeqktF4KP52vfFRmrJr7efsh4poZRin8nngh8Y1V6tia30VBjuVhirnVOsdpwOirYh16/OtmSwereTkKYj/JI/cc9lbTpuJvw0q1qp1xibMrQND7ysRL4I6zJVlca1tY4Z8vFEqxS+AMfpW9iZ1p4Q3c6p7fj/pHMMWaOT1A+hwaJneOBG5PKmkucSjx+QbzyulNPY8nP6rbieCth2N0Stohlcx9uFWBL/sqVyfTGNak8S8UJUsS2RPUWHPzQwvkk+o5VkhYbIM0iGOtYm1OtdiveykwpW8RyZ2Gt3I7rAO78Q9OC6Md7e9FfL0yUFnIcDJhjFEwzFP+u0B6HmUfNsa2gRs5PUgV+NzzB1FqgG9UK+8ZhmNIStohlYUWD0g9xc2ArfuWpkXI20JwrkqVlFG+hWmdMH/VR5fNfFsrsd3OUVx+WgqmSy06JkNlxxhpguqGyZzyilYy4LWKJu8PXO9RmK1sCH+xx/ULpqzsy6N3rU+W8IMzJYX4LkmOoJ1QJOnWQIW0JaOiHG9Ue+cBz8vwTuIzIU2ho4cYMbFOJ+WuKqUHl4UMbINI8VYgBBqtterA3PXVRIp3WPYjPNgUIuGEY4aM4sfNTTnWbW7Ilm8qU9xb/aViU8t+VpxDgg0F/6oKXAxUt74ht+662FdTS8m0VxkpvMDYAXoXzr02lpbek0/MXJ9FJyd7boZEQ5ksjeqo/i/sis7xNFynsYj5UXMycHuNPKW20yjHmiAnppG31iq0SvnBdmdLMlqP4ieggMdyXJg8Kpw9uSqNlt6XTYxMS6Lz+oV5l0IHtd7C/2ggbu5KlW8zdbNH50dK5pivAjPhxfblI3QpG91bbVrt1f8t+uLaK5edby8U2Sj8beTPg3gZ3mWtOi6LZVyTT2nt70vs3dpM90p6+4cLNQnXu67Mt5aaThFmFtVSheKjbrexzaQkXnhhuPHM9bd1wbRXLmvojciavRobI7eKU1CCaMzWZtjzcW7ZUPjQ+XvobelKC6ISkzjQsXW1iB7uR+WvMD8yCycbKLLUJRUwIQGaccR5UX0Qq9AotaOW8Eth+lX++tYJW71bf0WMlaIsa0j2Ibjgjmt6+NpU2PtiLZl2SRGP7hlJqlJ/biicqBa4eEimiSrVhJUrPWtsONQfmxKs+8sF8Iq5Gcw585K5QPONoT5FisQSolfNkkL2bJLYP865Mpk9vSaMl09Polald5WshAe4jnGG4CSguFwLbD9RQoYgWHWHj3mratl9tzeVgsfPgrLhz9IoLEDsatUnF1jLhwCVX8oodh2jet0VeMR8Hh/3psf4iygiT0eaWmX3oo+ndZXnJGeLDgPEMutInMYC6apDVfWN1sSxOdpTlip2IsKO455w4Y8WYJTbEh976Y6ryLPieotYNgFwW9jz1eQHtKPC+yYvYlp3YNZBmnpcgPhAptOruDHr58q7UO14/R6QHx8Ur30YiqfOxk94CSAqp5k9nRLfpXsP8lrvEDSYuVH0QsacNtzSXiSWylX9euFd8dc/suBXAQBe9pxecEEZLZ6TT4pu6012jYylDA7Pi/l06y+SOahatL3M6Ibg+r1r2kqsEN5uRGtSougOob75/XBxddrIeibFNe1s/xnHpgdranCp64MN9Tm2xPA0I56DkQLptVCx9eXsP+peINvskBCizQzu/v9r6NoCPxbc7nd9Ko/QDiR7V4GbItA6ChmlnRotHjEzuqKa6vpG2tnHm7fLsw/sbyuQMFeYY+LCgvxiR5sIbusmsuqs5p496sYTYITpsD4hMVTtejewZQjEan02rJi7ERyZDsf3WQSjBgrVtD0xzuViiUf3Rj/fT3G9ZMI8nwLcjnSSizblTk+nNa1JpWFqQ7CqyG2y/dZhbtHhjGZUac3acBeYbLVm6uQokKu4czUXqx4PBd1NPjaRv78qQgwU10Um5o1m0XkOxPMpjQjBfXuHZJUXOgrstzr3e/GOqdEayu1D3mUldjGfqwAf2758VGCvnQXSqg1P/Ob1DObo0QMLrvrFxtPz2HvTkxMRWPSNVkF/asmfqr+mQcPdGZQeIOJ+DRRrmMKueHqgzcNV56atCWwqve8YF0NIZacpHR/yUU0Xnv7TLWLWPrhF+9N3dGUoz+ziXv/q1HPrSCTMZfNur7smQ9m8q+GxrBW3a277jkCAhiEkRvtQ92l8mMHWuP126pZyufzNHvGfGCy2gVCyPgrGiT4noBr9gpmWyi+roinm72yxxcITrh0XRw+clGCt1PP/lARFZWjcm4o2rU5SPxIDr1tT/7DFW5lEtlt7GLe/k0Xs6b8N/Dc6qJs/Ops2Kz5p0p1uUH70/rbulPcgwzdCBZZnWFpTP/6FEuSfBmT1CpBkLoy/7y+pp8SZzFn9aiCW2lmhXmzInm95dW0qVmszv0RF0O2CW0B2jYuRM7/YwIiOY+iWqr63MFZEyysqsBDde1abAncTb84dTIz3epcpdwb0UR1tm7f202vcik3nHgjya8kq28tnjOoPZQbefHUdPT050eo4Q/h6MQHRg9jfW10bmldRJEVbN0PQg7RIaTBOovMD5rFm0exeh8Rvyqums57LoocX7KFOxOYKuQCMnDAin165OlnVrjoIyjt4J6reI5TWH6VOTJr+OgN3Kv79TX56GBEd/DaJ35vfA1m9vqfmOL21veZi9AvONUUI073pvL5VUNVieCXZ3EFOOyAihRyckOpz5PbFrZy1KW3YX1Yn31p7tMoadtbdus73gfXliQgJvxTUD+nLfB/kOdRO6xf4ARrDDnt5BN76VI00WzJ4xeAvwUXx2SpIsajfLvWPjjWdqwfycmnr7zqiX/Kx2Pg/oJSL4ARr03TPHwK6juNKxG6nbHKYgQlgihBL1UKf+bRs9/XkBZRbUiB+4wSus31oDUctFJ4bTH041lyVHYqd7tPqylLqGI/Tm6mJjZQ/Lt+kxknm0Bu2kTBPoA39tleOfO7cRy19TUN5Azy4rpAte3EXjXthJ0+bn0ocby7QevWs32O7dPSaOzjZRW4hIVAe+yKygCpsrH77XoJsHTGBzDS1AOdmM/+Y5dFZ5FLcUy6NU1jVSnvihUacJwez7yFb6w6t7aO7KIvp+V6VtZ2G6glKiB86Nb9WdvamVUv0kQtzXcIOzG+xIPtjQdsGx3XQTkfwoxUXyDMmOKnTsOINbi+XxwG1mmYhWZn60jybPyab+/7eVLvzXLnrnxxKvsYWDIcZ9rZxHwtEoUYOxvtgKtbelziyPf9L+nnMr0KFTyttpsog0Fg7iUWJ5PJDHNbur6M7/7aWU+zfLLTtCcIwt2F7guSVJcHY5OSXQWB0D/d+PX6DHBYvff26Ja4x695c30DYNXPoTwnyoXyJ39KgAbme3vpvXrvptjxbLX4OzCnQJLVxXSn9ZlE8jn82i/o9upYfEnQZ1nfvL66m2wTOiT5xf/vH0KGN1DGRk40LVR5Xg2S8KXRbt49/5cY/6s0sck2B0MuN6MGUWlRftwWvEsjlQOjDvuyI678WdMuqc8PIumrl4H23Od/+oEzOYE46bazJWk4wsBkMtc8KNpz0s3qh+Pg+4fpgeXVPexI97qmiGiCrr2lly6NVieRQEOAcqGuQZGkyJz5mVRQMfy6RHluyTzjFFDo5l1QHUXD42IfEX6zvMOzlXg9ER4Jt2jI5wlm+yDmnRQove/ks1mTnjDWDHePd7e6mqrv1VFyyWLYC51XO+KZLZ9VP/tl2edZYrNmZwFNRTdo1o2naf2zeUUjQYcwuWW+wwZBZnauvsAE5Pzvb0M+ZBK+1EsVu06ryaxbINEHUic4uzzn7/11SahHkdKKjWHX+fjrKtEVHmdcN+f4apApwLq3Iy/2JrhRaOVn0TAygqmMfl2gkiyelv51maRGSxdAAceaA06bYFebJnHTZgqj0TWwM1lRhEhugyLVqPOeWFFfWt1oHaBY4jIgI7ifdQ/RuGMQuwbmPsAe5lCGqccalvDRZLJ9l1sFYaFt//Qb4l5yF2gcFQ48QWPLSzHpEM3L8/vCmNHhofT4Eusi7DDKNnJiXSO9elSqHSASR6VNw0PB00IVzz2h5bdi+dQoZOe9h4zjgItpQoO4JzDrozVM+xaQ5swQenBmk14yjIv6OsA8Wscp+OHWUkUF7TaKmrVLD4N7DdvWpIlBy72r9LZ63mwCDhtrOwrtnpAPgucWyiyw3OXcB1ePm/d9OGvfZUs2gxg8cTGN8vlF66vCsf3DsIdsVoWy0or5dGKQvWloio3fms9eDUQJp0YjiN6dMUTWMsra58tqWCrnn99zN68B3zDB7HWC0iSQyIQ1LHLlgsLSLAtwPNuSKZ+38tAD39Ow7USg9TmKZUiAvg6FEHos+j96NgsaUOE4II8+Oukb7UJcxPRq3uApJNg/+67XfjL1gszYPPBZyr/vHFAdtNWVgsLQSZ58U3pcnECsOY4fVVxXTv+/nGqgkWS3PgfHLGu7lk9bC7luATZgtZl1tNW3kMBuMA8CHFiA/GPGhfnfPNQdk84iqhBCyWFoPtI8OYBRUBg5sxPWF+D/xq4e9wxb930yNL9jvlSdkeWCwtBpldhjELzl91md2uM/vK6qVnLSwXv8lS09TgcrG85OQI+vSWNJk99kS4do5xlLN6hlCyJq2ouvFTThXd934+DX9mh5y/VVOvLsXi8iv7zPRgWfM2Z2oyrfxzD+kg7SnVNvg58MFnGEdA/eetI2OMlXcDKYT3JJyChj29nc5/aZfs6Ud5mWpcKpY4nxnd+5iYdIv2p89npNPrV6fItjyda+LaAgXpT03qIktZGMZRTksLku2Y3gq8FuA5edfCvTTy2R3SLjG7HfW2duDS0qEpg8LpuYuTjNXvQXLk6c8P0PrcKulu7S4DyCDy15wWRfeOi+OidMYp8FGfNHuXdPbHJ8iTS4dgTIOzfZT+oINpyaYyWrrFtf6mzuAysYSGvCYiSDPb1IOHGuTYgTfWlEinGJ17r6ODfejZyV1ohPi5WCeZ9vCDEMqJ/9rl9mIJ4ccs+Gpx3RZVNlCxEMXM/bUiGKqh7KI6yi+tl3aHaHGFcLoLLhNLbE+XTE+TZ5SOgO4GuIes2HGIft5bQzsLa9vteNxe0GfdNyFAduvcPCJa9l8zjBWgdnBLfo1SscRWeP4PJcaKOYrLrvJwIZbJkY7Pf8Hfu2ig2L5PSaLPbk2nbY/0odlXdKUJA8Jc5lpzFESOE8W/u/z2dFpycxr9eXQsCyVjKehrZ/TEZZHlA+PiaNpwazN+ONPMK6mn/DLxEKE9ilS3ie07ZuvkldTJc09nwnxsrZPFXT0+zEeOlsUDyahecf4sjoytZImd04hndnBkqSEuEUtkitc90IsiFGSKkWUrqGig3JKmzhoYM5RVHxPQIBGddonwka7iXcJ8ZeuZTnZmjPdxwUs76aXLurJYaoZLxPKUlEB6f1p3Y8UwTGvAlxEVFgni5q0CFsvmccmeclg6z0pmGLOkRvlRvCbz3ZljuEQsT+3GRgEM4whs86cftoslzFjh88gwDOPO2C6WmLMS7M8tgAzDuDe2i+W1Q6ONZwzDMO6LrWKJg+r0WD3mVTMMwzgLjhNtFcs+CQHkyzWLDMO4MZ2ESv5jcpK9Ynlmj2DO6nkRy7dX0J5ivWy1HGXLvhr6YEOZsWK8HZh5QyjPPyHMPrGESI5iI1yvAUOkrnsjl858egfd/E4u5ZXWU22DWsMTM+A7REssHLkvn7ebRj+fRQ8t3iddcRjmuqHRNOWkCPncNrEc0i2IEsO5sNZbeGtNibTlQr/+ovVlNPyZ7dLAdaYQHgzA182bFG7cyzIr6I4FeTR21k7pyP31jqZJgRDKzAIePOftIDk9fcQxPwtb2h0RVc66OEmO+WQ8HwjPwMczqaSq5WgsJdJPWtqd0yeEEsN8KS7Ul4L9bT0F+g343gorGmh3cR19tLGM3ltfSkda+eTfNTqWbhsVa6y8C253JJo0KJyeEdtvv07HzhFtEUt4V340vTt1j+ZMuDfw895qGvPCTmPVNqEBncRnpCNlxPrLVtjBYhdyQpfOlponw0Blw94q+jLzEK0SkW1uST1V1BymytpGufVuC/Rl/3hvT2PlXXi7WF43LJoeGBdPfseNubFFLGHw++kt6S6NHBh1zPu2SJ7ztQfcwbtE+FJSuB+lRPlSRKCPnEkTIoQ10K+DENIO1PlX9ng4Z8Q5Kcyhq+uOUHFlg7TogzM3bPusSDQturEbDU4NMlbegzeLJabPPj4hsVmvXFvE8o+nR9KjFyQaK8ZK4BJfK4QCIqILl83bLZ3sPQ0cI71wScszozwVbxXLyQOC6JFxTcmc5rAl9LticKTxjLGSDXnVNP3tXJc7xLcGzgG/36Vm6L3doIxIhxGsjP1cflIw3TOq9RyL5Vddr/gA+WCs41BtI/3nuyI678Wd0rVdJ3PiN1YXU73imUh2gXlPuBkwns2YXp3pL0IocdzTGpaL5Rnp3nfGYycYk3HJ3Gya+dF+OTUPGWVdQKkQxph6KrgJvP1DsbFiPJGUCB+aOTZCdum0heVi+cnmClq8scwtCpJ1Jre4jp74dD+d9WwWrc+tlskM9NoPSNLH7g4Jlfwyz468Xv2+2K3GtTLmgW/F3EtjKCzAnAxaLpYYFDbt7VwaMyuLfs6vNl5lHOGVlQdp2NM76MWvDhqvNPHURV3IR6Mt+LrcKiqv8exOFxyBrM6uMlaMp4C63+W396DEMPOJUsvFEqDYd8eBWrroX9l0w1s59KGINDVr4NAOlLy8/PVBEUnuoIfFlvv4jhdElaek6uU4P/fbIuOZZ/P19grjGeMJpIhraf61qQ6f/dsilkdBJvGjTeU0bX4unfb3bfTeulI6UNEgt5TMsVG+T35aQEP+tp0e+2Q/bWuhzQ7to5iSqQtIfmzaW2OsPJvvPDTb740gQbrizgw52tpRbBXLXwNRuOW/eXJ7Pml2Nr2+qpiqvLQsA+2BC34qpUvn7qYxL2TRP78qbPN3MXFgmPFMDxaKG5+3sHV/DeW4uZsS09QsM//abk4HHS4ZhdsSOH8bmhZE4/uHUq+4AEoW4XFMsI/xp54DjiXySuvk0cTSzRXyWMKRs76ecf607LYe2tjdYWcAofemiOuSk8OlVZc34IlF6RniGnpbCOXx44VLSsz/nErF8teg3Q29mEkRvnTJSRE0IiNEhszu7IeJaBER5CIRhaHAuabhiFNHEK9MTaZz+4UaK/UgO3zCo5letTNAx9Sav2TIvnZPxxPFMuvRvs02c7ilWDZHZFAnSo8REacQUBzKJkf6yUQHBDU2xEf2C+sABDCnuJ6yi2opU2zZcO64Ob9Gbt/aC37Oj29OUzZwvzneXF1M9yzKN1beAXZBb1+XSqd39/w6Yk8SS0jEvCtTaGzf5oMNjxHLtkDkOTApUBov9I4PoLQYf+lsjA82Ml0oNO0gfls4ougonnckGDI0/QLx+lGtNb5IN5qjtl2N4slhETgdEf9rEDtmrPEVSRlsoTfmVcttNRxt0IZoV13p6N4h9J+rUn75HlWDwHjgY1upqNKzS4aa486zY+kO8fB0PEUsA3w70v/+1I0GJbdcReI1YtkcEMkgvyaHGn/xgHBiex/g20E+x+EuvkI0fYyDXvwXwgkhaBT/wVeIYnU9nh+hQzWN0sAC205YfLmySBk2ZoiqdQHWZ0dNcr2N6GAfr5iBjyMjNBy4O6+KIOOcPq0fX3m1WDIM493AGnLO1BQakRFsvNIyLJYMw3gt8y6NoVNTzCWHIyJatmQ7HpfVWTIMw9gJjtdemBRFQ1LtqaJhsWQYxu1BMvf1qTF0Vg+7zpSJ/h8YFNYpxnoKMAAAAABJRU5ErkJggg==;" vertex="1" parent="1">
          <mxGeometry x="-307.81" y="400" width="19.82" height="10" as="geometry" />
        </mxCell>
        <mxCell id="tBitRGPRe5gGITiWDtUl-5" value="" style="shape=image;verticalLabelPosition=bottom;labelBackgroundColor=default;verticalAlign=top;aspect=fixed;imageAspect=0;image=data:image/png,iVBORw0KGgoAAAANSUhEUgAAAD8AAAAyCAYAAADrwQMBAAAAAXNSR0IArs4c6QAAAARnQU1BAACxjwv8YQUAAAAJcEhZcwAADsMAAA7DAcdvqGQAAAdgSURBVGhD7Zl7cFNVHse/N7k3adqkeW0t9AmVPlak6m4RKSoiD3WUXZTRHVS0vhidBWSGWZSH8thRGUB0fA0Iws4wi6Ky3YWu7IAr4izPdWpd5FGgLRShUJqk6YPkJrk3e865JyvdodS0TSiTfv5of+f+TjL9nsfvcSs0NTWFkaDo+O+EpF98otIvPlHpF5+o9ItPVBJafJ8pb01JRrQ0N6O1xQtvs+d/drPHjVYvtVvgJXYLtb1ezFqwGIPyi/inu0dcxddWH8bxI4e4CC8T5fV4mMhQKMRn/TzS0gdgwfJ3+Kh7xFX8l1v+gq2ff8JHnaMXRZjNFqRYLDBbUmFJtcKcmsqeNZw5jcr9e9m8hx57EqPvuZ/Z3SGu4s+TP/z1ubOZnZmTi/EPTGLizEQkFcpEknH7xYtsTmesWbkUP1RVQjIYsGzVeuhEiXuiI64BLz0zG860NGa7LjTilttGIX/oMAzMGYRUuxOCXuxSOGXmvEXIyMpBMBDA3zd/yp9GT9wD3p6dO7Bp/Rpm/67sWZTePYHZ0aKGgqivq+lR0IvLztuVJlj2LkfKlmkYf/9v2NGm0F2jUb470KMejXCHKMPuO8lHGjEVb3NVwbztRfhX34vQd5ug/kjuad3XmDTlceZva21B+cYNzI4l1jO7oNQfgMc0iD/RiIl4a20Fkj+ZDHnTs1DqdmsPdSLEW8ugyx1Bdv+37M5Stlf8FQFf1/e8OzgMQZj/OQ+CaIQ34w7+9CdiIp6ucth9io8A8abJME3/GoZ7FkJIcbJU9sxMLeorJL+ve+8tOBwONu4trGe+gX/dgxCHP4Hm9Nv4047ERLxh3DzyI5mPSN4uGAfBmslHGoVDb8T4iZOYfeTg99i+tZzZPcVhVMluz0Vwxx9hfHg1mlM7jwsxEe8OJbFdjhD4YgHC7U189BNTnp6GgVnZzN60fi2Csp/Zl8NptzJhV8LWsBv+VROgnjuEpLLN8Bg7Lvj/E7OA580eC3GYtrPhdhcC5bOIobBxBIPBiOkvLYAkSQgEZHyw/DVYrVbu7YjL44VyaAss375PFqHj9zhMAsw7X4Fc/iIE83VMuBtaRrkS+jlz5izidq9jKb4PSs0uhNsaEW4+jfBFD/T5Y7hXw2Z3INVmw3cH9sHjcqG9rRUFQ4u5tyOyowjGmu3kJL2KZL2ClMElMJ7dD/njMqgNB6HL+hWMj2+AWxb4J65MzIscGnH96x5CuKWBjQ33LYFYMpXZl0KD3lfbKpg9/aVXWOXXGSlbn4d6+luydQYSMQPsmX7IXWibsILZP5eYHfsI7oAE46N/gpCkHefAPxZDOfYlsy/lyedn4Ibim5m99p0VaCedXmcYH/kQgo3ECi5cLH4wauGUmIuneHRObQGMZnbv5c0zoJzcw70aNP3NnLcQ1w0YCL/PhzcXz4eou/zxdftUGKesI99ngTjiabTePp97oiOutb3dXw/5z08gLLcBkglJUzdCl6ntdoSzp+uxaPYMXGxvw/UFRZi/dCVa28j8y+DQ++BWTHwUPXHZ+QiepBwYH9ugnYCgjyzEVKhnqrhXIyM7B39Y8gbLBDXHjmIVaV/tdjv3dqQnwilxFU/xJGXDSHZcSLazE0AXQDm1j3s18otuYK+p6FU48K9v8NG7K3u9AqTEXTzFY8hA0lPlJGhlaQuw8SmWEi+l+NfD8cLsuRAEAbu2b8PGtau4p/eIaZ6/Ej4YYCl5BOqpvSQNniUFTAV0v7geurQCPgPIyh0Eq82Oqn/vw4mjh8lVkJBH4kBvcdXEU3yKgNQRj0JtrEa46QSUI1+QvGWAPmc4nwHk5ReSIoguwH5UHzoISa9HXuEvubdnXFXxFJ8cJCfgYZICw1BJN6jW7WEFES1aoNOzOXkFhbA5ndoCHP6B9QAj7xwDH0mJPeGqi6f4fH7I6TfDnDcc6vGvWAagFRxdAIF3h4OHFCB9YCYq9+1G7bFqXDh/DqWjx0CWZebvCknUo77mBHtdbjKZWDCN+zu8rrCHmxH4dBpUVy0ESzqMk9+DLruEe8F6gHffWMIaoaIbi0lWWAI5oFV6ESxmM07WHEdN9VGSLo9AVVW2eKOG5cBGGidd2hC4vO19TzzFaTGRMnghQt9/TsowPaSxcyCNfI54tIrvGDn6KxbNZ4XQgIxMlP1+Fi6ca0Dt8Wom+MdTdaxVpldjZEkxnJ5KQFWgLxgPd5jUGJw+KT6CrfEAAhVzEfZ7oR88CoaJyyBYM5iPVoLLXn0ZTY3n2ZhCS+PSu8ZiRGkpMgK1CB0k6TTZAan0hQ6iI/Rp8RSHFETgb7O1XoDcf+nOWZBIPU+DIf2f3pq3l7OqcOTou5Gb7COnZTPLGjReSLfPuKzoCH1ePMXpdCBU9RmCO15np0Cw55JFmAlx6ESEfR6E/lMOhVwR1VVHOrxJXYqOcE2Ij+BI1iG4cyVClR+z7pC2yWG5lXiEqERHuKbER3AIbQjuXQ3lMDneheOiFh3hmhTfW1yVxqav0C8+UekXn6gksHjgv3Zz4oLVQ5mrAAAAAElFTkSuQmCC;" vertex="1" parent="1">
          <mxGeometry x="-310.5" y="183" width="25.2" height="20" as="geometry" />
        </mxCell>
        <mxCell id="tBitRGPRe5gGITiWDtUl-16" value="On-premise Compensar" style="rounded=0;whiteSpace=wrap;html=1;verticalAlign=top;fontStyle=1;fontSize=14;align=center;fillColor=#ffe6cc;strokeColor=#d79b00;" vertex="1" parent="1">
          <mxGeometry x="70" y="250" width="250" height="263" as="geometry" />
        </mxCell>
        <mxCell id="tBitRGPRe5gGITiWDtUl-15" value="" style="group" vertex="1" connectable="0" parent="1">
          <mxGeometry x="70" y="250" width="280" height="290" as="geometry" />
        </mxCell>
        <mxCell id="tBitRGPRe5gGITiWDtUl-17" value="" style="image;sketch=0;aspect=fixed;html=1;points=[];align=center;fontSize=12;image=img/lib/mscae/Exchange_On_premises_Access.svg;" vertex="1" parent="tBitRGPRe5gGITiWDtUl-15">
          <mxGeometry y="193" width="40.6" height="70" as="geometry" />
        </mxCell>
        <mxCell id="tBitRGPRe5gGITiWDtUl-8" value="" style="group" vertex="1" connectable="0" parent="tBitRGPRe5gGITiWDtUl-15">
          <mxGeometry x="80" y="70" width="200" height="220" as="geometry" />
        </mxCell>
        <mxCell id="tBitRGPRe5gGITiWDtUl-6" value="&lt;b&gt;&lt;font style=&quot;font-size: 14px;&quot;&gt;File Server Compensar&lt;/font&gt;&lt;/b&gt;" style="rounded=1;whiteSpace=wrap;html=1;fillColor=#f5f5f5;strokeColor=#666666;verticalAlign=top;fontColor=#333333;" vertex="1" parent="tBitRGPRe5gGITiWDtUl-8">
          <mxGeometry width="150" height="150" as="geometry" />
        </mxCell>
        <mxCell id="tBitRGPRe5gGITiWDtUl-7" value="Files" style="image;aspect=fixed;html=1;points=[];align=center;fontSize=12;image=img/lib/azure2/general/Files.svg;" vertex="1" parent="tBitRGPRe5gGITiWDtUl-8">
          <mxGeometry x="43" y="55" width="64" height="70" as="geometry" />
        </mxCell>
        <mxCell id="tBitRGPRe5gGITiWDtUl-21" value="" style="group;align=left;dashed=1;" vertex="1" connectable="0" parent="1">
          <mxGeometry x="440" y="10" width="1660" height="1040" as="geometry" />
        </mxCell>
        <mxCell id="tBitRGPRe5gGITiWDtUl-22" value="&lt;span style=&quot;white-space: pre;&quot;&gt;&#x9;&lt;/span&gt;&lt;span style=&quot;white-space: pre;&quot;&gt;&#x9;&lt;/span&gt;Azure Suscription - Compensar_Corp_Azure_[Env]_I" style="rounded=0;whiteSpace=wrap;html=1;verticalAlign=top;align=left;fontStyle=1;strokeColor=#d6b656;fillColor=#fff2cc;" vertex="1" parent="tBitRGPRe5gGITiWDtUl-21">
          <mxGeometry y="20" width="1660" height="920" as="geometry" />
        </mxCell>
        <mxCell id="tBitRGPRe5gGITiWDtUl-23" value="" style="group;align=center;" vertex="1" connectable="0" parent="tBitRGPRe5gGITiWDtUl-21">
          <mxGeometry x="82.6" y="80" width="1371.54" height="794" as="geometry" />
        </mxCell>
        <mxCell id="tBitRGPRe5gGITiWDtUl-24" value="&amp;nbsp; &amp;nbsp; &amp;nbsp; &amp;nbsp; &amp;nbsp; &amp;nbsp; &amp;nbsp; &amp;nbsp; &amp;nbsp; &amp;nbsp; &amp;nbsp;&lt;b&gt;Resource Group -&amp;nbsp;rg-gclint-syncro-stream-[env]-i&lt;/b&gt;" style="rounded=0;whiteSpace=wrap;html=1;horizontal=1;align=left;verticalAlign=top;container=0;" vertex="1" parent="tBitRGPRe5gGITiWDtUl-23">
          <mxGeometry width="1060" height="680" as="geometry" />
        </mxCell>
        <mxCell id="tBitRGPRe5gGITiWDtUl-25" value="&lt;span style=&quot;color: rgba(0, 0, 0, 0); font-family: monospace; font-size: 0px; text-align: start; background-color: rgb(251, 251, 251);&quot;&gt;%3CmxGraphModel%3E%3Croot%3E%3CmxCell%20id%3D%220%22%2F%3E%3CmxCell%20id%3D%221%22%20parent%3D%220%22%2F%3E%3CmxCell%20id%3D%222%22%20value%3D%22%26amp%3Bnbsp%3B%20%26amp%3Bnbsp%3B%20%26amp%3Bnbsp%3B%20%26amp%3Bnbsp%3B%20%26amp%3Bnbsp%3B%20%26amp%3Bnbsp%3B%20%26amp%3Bnbsp%3B%20%26amp%3Bnbsp%3B%20%26amp%3Bnbsp%3B%20%26amp%3Bnbsp%3B%20%26amp%3Bnbsp%3B%26lt%3Bb%26gt%3BResource%20Group%20-%26amp%3Bnbsp%3Brg-gclint-syncro-stream-%5Benv%5D-i%26lt%3B%2Fb%26gt%3B%22%20style%3D%22rounded%3D0%3BwhiteSpace%3Dwrap%3Bhtml%3D1%3Bhorizontal%3D1%3Balign%3Dleft%3BverticalAlign%3Dtop%3Bcontainer%3D0%3B%22%20vertex%3D%221%22%20parent%3D%221%22%3E%3CmxGeometry%20x%3D%2220.000000000000007%22%20y%3D%22120%22%20width%3D%221060%22%20height%3D%22680%22%20as%3D%22geometry%22%2F%3E%3C%2FmxCell%3E%3C%2Froot%3E%3C%2FmxGraphModel%3E&lt;/span&gt;" style="image;sketch=0;aspect=fixed;html=1;points=[];align=center;fontSize=12;image=img/lib/mscae/ResourceGroup.svg;" vertex="1" parent="tBitRGPRe5gGITiWDtUl-23">
          <mxGeometry x="11.72339910250018" y="9.214974000000002" width="44.57904975045071" height="35.656820930706076" as="geometry" />
        </mxCell>
        <mxCell id="tBitRGPRe5gGITiWDtUl-26" value="" style="group" vertex="1" connectable="0" parent="tBitRGPRe5gGITiWDtUl-23">
          <mxGeometry x="20" y="100.12" width="1265.82" height="656.81" as="geometry" />
        </mxCell>
        <mxCell id="tBitRGPRe5gGITiWDtUl-27" value="&amp;nbsp; &amp;nbsp; &amp;nbsp; &amp;nbsp; &amp;nbsp; &amp;nbsp; &amp;nbsp; &amp;nbsp; &amp;nbsp; &amp;nbsp; &amp;nbsp;&lt;b&gt;Virtual Network -&amp;nbsp;vnet-netwrk-centrl-main-[env]-i/snet-asp-syncro-stream-transc-[env]-i&lt;/b&gt;" style="rounded=0;whiteSpace=wrap;html=1;horizontal=1;align=center;verticalAlign=top;" vertex="1" parent="tBitRGPRe5gGITiWDtUl-26">
          <mxGeometry width="949.287870360533" height="549.9993558617748" as="geometry" />
        </mxCell>
        <mxCell id="tBitRGPRe5gGITiWDtUl-28" value="" style="verticalLabelPosition=bottom;html=1;verticalAlign=top;align=center;strokeColor=none;fillColor=#00BEF2;shape=mxgraph.azure.virtual_network;pointerEvents=1;" vertex="1" parent="tBitRGPRe5gGITiWDtUl-26">
          <mxGeometry x="16.64179825587903" y="8.013533845624657" width="51.52259521943972" height="28.029347019253862" as="geometry" />
        </mxCell>
        <mxCell id="tBitRGPRe5gGITiWDtUl-29" value="" style="group" vertex="1" connectable="0" parent="tBitRGPRe5gGITiWDtUl-26">
          <mxGeometry x="25.59912957072237" y="49.880710812387115" width="363.41247166766897" height="183.2390161666982" as="geometry" />
        </mxCell>
        <mxCell id="tBitRGPRe5gGITiWDtUl-30" value="&lt;b&gt;APP Service Plan&lt;/b&gt;" style="rounded=1;whiteSpace=wrap;html=1;fillColor=#d5e8d4;strokeColor=#82b366;verticalAlign=top;" vertex="1" parent="tBitRGPRe5gGITiWDtUl-29">
          <mxGeometry y="13.239215263967841" width="349.74929436983234" height="169.99980090273036" as="geometry" />
        </mxCell>
        <mxCell id="tBitRGPRe5gGITiWDtUl-31" value="" style="group" vertex="1" connectable="0" parent="tBitRGPRe5gGITiWDtUl-29">
          <mxGeometry x="31.642929012017767" y="52.85916886259241" width="313.6869029391361" height="77.5619321444126" as="geometry" />
        </mxCell>
        <mxCell id="tBitRGPRe5gGITiWDtUl-32" value="&amp;nbsp; &amp;nbsp; &amp;nbsp; &amp;nbsp; &amp;nbsp; &amp;nbsp;&lt;span style=&quot;background-color: initial;&quot;&gt;Funtion APP - func-syncro-stream-transc-[env]-i&lt;/span&gt;" style="rounded=0;whiteSpace=wrap;html=1;verticalAlign=top;fontStyle=1;align=center;" vertex="1" parent="tBitRGPRe5gGITiWDtUl-31">
          <mxGeometry width="285.87276833757255" height="77.5619321444126" as="geometry" />
        </mxCell>
        <mxCell id="tBitRGPRe5gGITiWDtUl-33" value="" style="group" vertex="1" connectable="0" parent="tBitRGPRe5gGITiWDtUl-31">
          <mxGeometry x="93.45211701549246" y="41.18995175990267" width="98.95798666358353" height="26.489968975960743" as="geometry" />
        </mxCell>
        <mxCell id="tBitRGPRe5gGITiWDtUl-34" value="functions" style="rounded=1;whiteSpace=wrap;html=1;fillColor=#dae8fc;strokeColor=#6c8ebf;" vertex="1" parent="tBitRGPRe5gGITiWDtUl-33">
          <mxGeometry width="84.38114403204737" height="24.299971540802048" as="geometry" />
        </mxCell>
        <mxCell id="tBitRGPRe5gGITiWDtUl-35" value="" style="shape=image;verticalLabelPosition=bottom;labelBackgroundColor=#ffffff;verticalAlign=top;aspect=fixed;imageAspect=0;image=data:image/svg+xml,PHN2ZyB4bWxuczpjYz0iaHR0cDovL2NyZWF0aXZlY29tbW9ucy5vcmcvbnMjIiB4bWxuczpkYz0iaHR0cDovL3B1cmwub3JnL2RjL2VsZW1lbnRzLzEuMS8iIHhtbG5zOmlua3NjYXBlPSJodHRwOi8vd3d3Lmlua3NjYXBlLm9yZy9uYW1lc3BhY2VzL2lua3NjYXBlIiB4bWxuczpyZGY9Imh0dHA6Ly93d3cudzMub3JnLzE5OTkvMDIvMjItcmRmLXN5bnRheC1ucyMiIHhtbG5zOnNvZGlwb2RpPSJodHRwOi8vc29kaXBvZGkuc291cmNlZm9yZ2UubmV0L0RURC9zb2RpcG9kaS0wLmR0ZCIgeG1sbnM6c3ZnPSJodHRwOi8vd3d3LnczLm9yZy8yMDAwL3N2ZyIgeG1sbnM9Imh0dHA6Ly93d3cudzMub3JnLzIwMDAvc3ZnIiB4bWxuczp4bGluaz0iaHR0cDovL3d3dy53My5vcmcvMTk5OS94bGluayIgdmVyc2lvbj0iMS4xIiBpZD0ic3ZnMTY4NTI4IiBpbmtzY2FwZTp2ZXJzaW9uPSIwLjkyLjMgKDI0MDU1NDYsIDIwMTgtMDMtMTEpIiBzb2RpcG9kaTpkb2NuYW1lPSJkb3RuZXQuc3ZnIiB4PSIwcHgiIHk9IjBweCIgdmlld0JveD0iMCAwIDQ4IDQ4IiBzdHlsZT0iZW5hYmxlLWJhY2tncm91bmQ6bmV3IDAgMCA0OCA0ODsiIHhtbDpzcGFjZT0icHJlc2VydmUiPiYjeGE7PHNvZGlwb2RpOm5hbWVkdmlldyBib3JkZXJjb2xvcj0iIzY2NjY2NiIgYm9yZGVyb3BhY2l0eT0iMSIgZml0LW1hcmdpbi1ib3R0b209IjAiIGZpdC1tYXJnaW4tbGVmdD0iMCIgZml0LW1hcmdpbi1yaWdodD0iMCIgZml0LW1hcmdpbi10b3A9IjAiIGdyaWR0b2xlcmFuY2U9IjEwIiBndWlkZXRvbGVyYW5jZT0iMTAiIGlkPSJuYW1lZHZpZXcxNjg1MzAiIGlua3NjYXBlOmN1cnJlbnQtbGF5ZXI9InN2ZzE2ODUyOCIgaW5rc2NhcGU6Y3g9IjQzLjc0ODEwNiIgaW5rc2NhcGU6Y3k9IjIxLjc5MTkwMiIgaW5rc2NhcGU6cGFnZW9wYWNpdHk9IjAiIGlua3NjYXBlOnBhZ2VzaGFkb3c9IjIiIGlua3NjYXBlOndpbmRvdy1oZWlnaHQ9IjEwMTciIGlua3NjYXBlOndpbmRvdy1tYXhpbWl6ZWQ9IjEiIGlua3NjYXBlOndpbmRvdy13aWR0aD0iMTkyMCIgaW5rc2NhcGU6d2luZG93LXg9Ii04IiBpbmtzY2FwZTp3aW5kb3cteT0iLTgiIGlua3NjYXBlOnpvb209IjkuMTY1MTI1OSIgb2JqZWN0dG9sZXJhbmNlPSIxMCIgcGFnZWNvbG9yPSIjZmZmZmZmIiBzaG93Z3JpZD0iZmFsc2UiPiYjeGE7CTwvc29kaXBvZGk6bmFtZWR2aWV3PiYjeGE7PGNpcmNsZSBpZD0iZWxsaXBzZTE2ODQ5NyIgc3R5bGU9ImZpbGw6IzVDMkQ5MTsiIGN4PSIyNCIgY3k9IjI0IiByPSIyNCIvPiYjeGE7PHBhdGggaWQ9InBhdGgxNjg1MDIiIGlua3NjYXBlOmNvbm5lY3Rvci1jdXJ2YXR1cmU9IjAiIHN0eWxlPSJmaWxsOiNGRkZGRkY7ZmlsbC1vcGFjaXR5OjAuMDk4OyIgZD0iTTcuMzYsNi43NSAgQy0yLjUzLDE1LjU3LTMuNCwzMC43NCw1LjQyLDQwLjY0UzI5LjQxLDUxLjQsMzkuMyw0Mi41OGMwLjY5LTAuNjEsMS4zNC0xLjI2LDEuOTUtMS45NUw3LjM2LDYuNzV6Ii8+JiN4YTs8cGF0aCBpZD0icGF0aDE2ODUwNyIgaW5rc2NhcGU6Y29ubmVjdG9yLWN1cnZhdHVyZT0iMCIgc3R5bGU9ImZpbGw6I0ZGRkZGRjsiIGQ9Ik01LjU1LDMwLjk0Yy0wLjI4LDAtMC41Ni0wLjExLTAuNzUtMC4zMiAgYy0wLjItMC4yLTAuMzEtMC40Ny0wLjMxLTAuNzVjMC0wLjI4LDAuMTEtMC41NSwwLjMxLTAuNzVDNSwyOC45MSw1LjI3LDI4LjgsNS41NSwyOC44YzAuMjgsMCwwLjU1LDAuMTEsMC43NSwwLjMyICBjMC4yLDAuMiwwLjMxLDAuNDcsMC4zMSwwLjc1YzAsMC4yOC0wLjExLDAuNTUtMC4zMSwwLjc1QzYuMTEsMzAuODIsNS44NCwzMC45NCw1LjU1LDMwLjk0eiIvPiYjeGE7PHBhdGggaWQ9InBhdGgxNjg1MTIiIGlua3NjYXBlOmNvbm5lY3Rvci1jdXJ2YXR1cmU9IjAiIHN0eWxlPSJmaWxsOiNGRkZGRkY7IiBkPSJNMjAuNDUsMzAuNzVoLTEuOTdsLTcuMDItMTAuOTEgIGMtMC4xOC0wLjI3LTAuMzItMC41NS0wLjQ0LTAuODVoLTAuMDZjMC4wNywwLjYyLDAuMDksMS4yNSwwLjA4LDEuODd2OS44OWgtMS42VjE3LjA4aDIuMDhsNi44NCwxMC43MSAgYzAuMjgsMC40NCwwLjQ3LDAuNzUsMC41NSwwLjkxaDAuMDRjLTAuMDgtMC42Ny0wLjExLTEuMzQtMC4xLTIuMDF2LTkuNjFoMS42VjMwLjc1eiIvPiYjeGE7PHBhdGggaWQ9InBhdGgxNjg1MTciIGlua3NjYXBlOmNvbm5lY3Rvci1jdXJ2YXR1cmU9IjAiIHN0eWxlPSJmaWxsOiNGRkZGRkY7IiBkPSJNMzEuMjcsMzAuNzVIMjRWMTcuMDhoNi45M3YxLjQ0aC01LjN2NC41NWg0Ljk0ICB2MS40NGgtNC45NHY0Ljc0aDUuNjRWMzAuNzV6Ii8+JiN4YTs8cGF0aCBpZD0icGF0aDE2ODUyMiIgaW5rc2NhcGU6Y29ubmVjdG9yLWN1cnZhdHVyZT0iMCIgc3R5bGU9ImZpbGw6I0ZGRkZGRjsiIGQ9Ik00MiwxOC41MmgtMy45N3YxMi4yM2gtMS42VjE4LjUySDMyLjV2LTEuNDRINDIgIFYxOC41MnoiLz4mI3hhOzwvc3ZnPg==;" vertex="1" parent="tBitRGPRe5gGITiWDtUl-33">
          <mxGeometry x="73.83350102804143" y="2.669996873001701" width="23.819972102959042" height="23.819972102959042" as="geometry" />
        </mxCell>
        <mxCell id="tBitRGPRe5gGITiWDtUl-36" value="" style="image;aspect=fixed;html=1;points=[];align=center;fontSize=12;image=img/lib/azure2/compute/Function_Apps.svg;" vertex="1" parent="tBitRGPRe5gGITiWDtUl-31">
          <mxGeometry width="35.469958458940276" height="31.299963342679185" as="geometry" />
        </mxCell>
        <mxCell id="tBitRGPRe5gGITiWDtUl-37" value="" style="image;aspect=fixed;html=1;points=[];align=center;fontSize=12;image=img/lib/azure2/networking/Private_Endpoint.svg;" vertex="1" parent="tBitRGPRe5gGITiWDtUl-29">
          <mxGeometry x="16.728561804353408" y="3.1192271161111824" width="25.92996963181058" height="23.769972161517064" as="geometry" />
        </mxCell>
        <mxCell id="tBitRGPRe5gGITiWDtUl-38" value="Subnet&amp;nbsp;&lt;span style=&quot;background-color: rgb(255, 255, 255); color: rgb(41, 40, 39); font-family: &amp;quot;Segoe UI&amp;quot;, &amp;quot;Segoe UI Web (West European)&amp;quot;, &amp;quot;Segoe UI&amp;quot;, -apple-system, BlinkMacSystemFont, Roboto, &amp;quot;Helvetica Neue&amp;quot;, sans-serif; font-size: 13px; text-align: start;&quot;&gt;10.89.2.26&lt;/span&gt;" style="rounded=1;whiteSpace=wrap;html=1;fontStyle=1" vertex="1" parent="tBitRGPRe5gGITiWDtUl-29">
          <mxGeometry x="236.84075561959787" width="126.57171604807107" height="29.99996486518771" as="geometry" />
        </mxCell>
        <mxCell id="tBitRGPRe5gGITiWDtUl-39" value="Subnet 10.89.4.14" style="rounded=1;whiteSpace=wrap;html=1;fontStyle=1" vertex="1" parent="tBitRGPRe5gGITiWDtUl-26">
          <mxGeometry x="647.9140464147207" y="339.8803711758684" width="137.119359052077" height="29.999964865187714" as="geometry" />
        </mxCell>
        <mxCell id="tBitRGPRe5gGITiWDtUl-40" value="Insight" style="shape=image;verticalLabelPosition=bottom;labelBackgroundColor=#ffffff;verticalAlign=top;aspect=fixed;imageAspect=0;image=data:image/svg+xml,PHN2ZyB4bWxuczpkYz0iaHR0cDovL3B1cmwub3JnL2RjL2VsZW1lbnRzLzEuMS8iIHhtbG5zOmNjPSJodHRwOi8vY3JlYXRpdmVjb21tb25zLm9yZy9ucyMiIHhtbG5zOnJkZj0iaHR0cDovL3d3dy53My5vcmcvMTk5OS8wMi8yMi1yZGYtc3ludGF4LW5zIyIgeG1sbnM6c3ZnPSJodHRwOi8vd3d3LnczLm9yZy8yMDAwL3N2ZyIgeG1sbnM9Imh0dHA6Ly93d3cudzMub3JnLzIwMDAvc3ZnIiB4bWxuczpzb2RpcG9kaT0iaHR0cDovL3NvZGlwb2RpLnNvdXJjZWZvcmdlLm5ldC9EVEQvc29kaXBvZGktMC5kdGQiIHhtbG5zOmlua3NjYXBlPSJodHRwOi8vd3d3Lmlua3NjYXBlLm9yZy9uYW1lc3BhY2VzL2lua3NjYXBlIiB2ZXJzaW9uPSIxLjEiIGlkPSJzdmc0OTQ5OSIgaW5rc2NhcGU6dmVyc2lvbj0iMC45Mi4zICgyNDA1NTQ2LCAyMDE4LTAzLTExKSIgc29kaXBvZGk6ZG9jbmFtZT0iYXBwbGljYXRpb25faW5zaWdodHMuc3ZnIiB4PSIwcHgiIHk9IjBweCIgdmlld0JveD0iMCAwIDI0LjQyMDE2IDM3LjQzMDYxOCIgeG1sOnNwYWNlPSJwcmVzZXJ2ZSIgd2lkdGg9IjI0LjQyMDE2IiBoZWlnaHQ9IjM3LjQzMDYxOCI+PG1ldGFkYXRhIGlkPSJtZXRhZGF0YTE2NDkyIj48cmRmOlJERj48Y2M6V29yayByZGY6YWJvdXQ9IiI+PGRjOmZvcm1hdD5pbWFnZS9zdmcreG1sPC9kYzpmb3JtYXQ+PGRjOnR5cGUgcmRmOnJlc291cmNlPSJodHRwOi8vcHVybC5vcmcvZGMvZGNtaXR5cGUvU3RpbGxJbWFnZSIvPjxkYzp0aXRsZS8+PC9jYzpXb3JrPjwvcmRmOlJERj48L21ldGFkYXRhPjxkZWZzIGlkPSJkZWZzMTY0OTAiLz4mI3hhOzxmaWx0ZXIgaWQ9ImZpbHRlcl8yIj4mI3hhOwk8ZmVHYXVzc2lhbkJsdXIgaWQ9ImZlR2F1c3NpYW5CbHVyNDk0NDgiIHN0ZERldmlhdGlvbj0iMiIvPiYjeGE7PC9maWx0ZXI+JiN4YTs8c29kaXBvZGk6bmFtZWR2aWV3IGJvcmRlcmNvbG9yPSIjNjY2NjY2IiBib3JkZXJvcGFjaXR5PSIxIiBmaXQtbWFyZ2luLWJvdHRvbT0iMCIgZml0LW1hcmdpbi1sZWZ0PSIwIiBmaXQtbWFyZ2luLXJpZ2h0PSIwIiBmaXQtbWFyZ2luLXRvcD0iMCIgZ3JpZHRvbGVyYW5jZT0iMTAiIGd1aWRldG9sZXJhbmNlPSIxMCIgaWQ9Im5hbWVkdmlldzQ5NTAxIiBpbmtzY2FwZTpjdXJyZW50LWxheWVyPSJzdmc0OTQ5OSIgaW5rc2NhcGU6Y3g9IjM4LjkwMjE4NCIgaW5rc2NhcGU6Y3k9IjE5LjE5MDM0NiIgaW5rc2NhcGU6cGFnZW9wYWNpdHk9IjAiIGlua3NjYXBlOnBhZ2VzaGFkb3c9IjIiIGlua3NjYXBlOndpbmRvdy1oZWlnaHQ9IjEwMTciIGlua3NjYXBlOndpbmRvdy1tYXhpbWl6ZWQ9IjEiIGlua3NjYXBlOndpbmRvdy13aWR0aD0iMTkyMCIgaW5rc2NhcGU6d2luZG93LXg9Ii04IiBpbmtzY2FwZTp3aW5kb3cteT0iLTgiIGlua3NjYXBlOnpvb209IjEwLjU4NjE2IiBvYmplY3R0b2xlcmFuY2U9IjEwIiBwYWdlY29sb3I9IiNmZmZmZmYiIHNob3dncmlkPSJmYWxzZSI+JiN4YTsJPC9zb2RpcG9kaTpuYW1lZHZpZXc+JiN4YTsmI3hhOzxwYXRoIGlkPSJwYXRoNDk0NjEiIGlua3NjYXBlOmNvbm5lY3Rvci1jdXJ2YXR1cmU9IjAiIHN0eWxlPSJmaWxsOiM2ODIxN2EiIGQ9Im0gMjQuMzk5Mjc4LDEwLjk2MDYxOSB2IC0wLjIzIGMgMCwtNS43NzAwMDAzIC00Ljk0LC0xMC41NzAwMDAzMiAtMTEuMDIsLTEwLjY1MDAwMDMyIC0wLjE1LC0wLjIyIC0zLjYwMDAwMDUsMC4wOCAtMy42MDAwMDA1LDAuMDggLTUuNDcsMC42NyAtOS43NDk5OTk5Niw1LjI1MDAwMDAyIC05Ljc0OTk5OTk2LDEwLjU3MDAwMDMyIDAsMC4xNSAtMC42LDQuMzUgMy42Nzk5OTk5Niw3Ljg4IDEuOTUsMS43MiAzLjk3LDYuMzcgNC4yNyw3LjcyIGwgMC4yMywwLjQ1IGggNy45NTAwMDA1IGwgMC4yMiwtMC40NSBjIDAuMywtMS4zNSAyLjQsLTYgNC4yNywtNy42NSA0LjI4LC0zLjYgMy43NSwtNy41NyAzLjc1LC03LjcyIHoiLz4mI3hhOyYjeGE7PHJlY3QgaWQ9InJlY3Q0OTQ2OSIgeD0iOC4zNDkyNzc1IiB5PSIyOS40ODA2MTgiIHN0eWxlPSJmaWxsOiM3YTdhN2EiIHdpZHRoPSI3Ljk0OTk5OTgiIGhlaWdodD0iMi41NSIvPiYjeGE7JiN4YTs8cGF0aCBpZD0icGF0aDQ5NDc3IiBpbmtzY2FwZTpjb25uZWN0b3ItY3VydmF0dXJlPSIwIiBzdHlsZT0iZmlsbDojN2E3YTdhIiBkPSJtIDEwLjgxOTI3OCwzNy40MzA2MTkgaCAyLjkzIGwgMi40NywtMi42MiBIIDguMzQ5Mjc3NSBaIi8+JiN4YTsmI3hhOzxwYXRoIGlkPSJwYXRoNDk0ODUiIGlua3NjYXBlOmNvbm5lY3Rvci1jdXJ2YXR1cmU9IjAiIHN0eWxlPSJmaWxsOiNmZmZmZmY7ZmlsbC1vcGFjaXR5OjAuNjUiIGQ9Im0gMTQuMjc5Mjc4LDI2LjQxMDYxOSBoIC0xLjUgdiAtOS41MiBoIC0xLjI4IHYgOS40NSBIIDkuOTk5Mjc3NSB2IC05LjQ1IGggLTEuMjcgYyAtMS41MSwwIC0yLjc4LC0xLjI4IC0yLjc4LC0yLjc4IDAsLTEuNSAxLjIsLTIuNzcgMi43OCwtMi43NyAxLjU3MDAwMDUsMCAyLjc3MDAwMDUsMS4yNyAyLjc3MDAwMDUsMi43NyB2IDEuMjggaCAxLjI4IHYgLTEuMjggYyAwLC0xLjUgMS4yNywtMi43NyAyLjc3LC0yLjc3IDEuNSwwIDIuNzcsMS4yNyAyLjc3LDIuNzcgMCwxLjUgLTEuMjcsMi43OCAtMi43NywyLjc4IGggLTEuMjcgeiBtIC01LjU1MDAwMDUsLTEzLjU3IGMgLTAuNjgsMCAtMS4yOCwwLjUyIC0xLjI4LDEuMjcgMCwwLjY4IDAuNiwxLjI4IDEuMjgsMS4yOCBoIDEuMjcgdiAtMS4yOCBjIC0wLjA3LC0wLjY3IC0wLjYsLTEuMjcgLTEuMjcsLTEuMjcgeiBtIDYuODIwMDAwNSwwIGMgLTAuNjcsMCAtMS4yNywwLjYgLTEuMjcsMS4yNyB2IDEuMjggaCAxLjI3IGMgMC42OCwwIDEuMjgsLTAuNiAxLjI4LC0xLjI4IDAsLTAuNjcgLTAuNTMsLTEuMjcgLTEuMjgsLTEuMjcgeiIvPiYjeGE7JiN4YTs8cGF0aCBpZD0icGF0aDQ5NDkzIiBpbmtzY2FwZTpjb25uZWN0b3ItY3VydmF0dXJlPSIwIiBzdHlsZT0iZmlsbDojZmZmZmZmO2ZpbGwtb3BhY2l0eTowLjE1IiBkPSJtIDEzLjM3OTI3OCwwLjA4MDYxODY4IGMgLTAuMTUsLTAuMjIgLTMuNjAwMDAwNSwwLjA4IC0zLjYwMDAwMDUsMC4wOCAtNS40OCwwLjY3IC05Ljc0OTk5OTk2LDUuMjUwMDAwMDIgLTkuNzQ5OTk5OTYsMTAuNTcwMDAwMzIgMCwwLjE1IC0wLjUzLDMuODMgMi45MTk5OTk5Niw3LjIgTCAxOS4xNDkyNzgsMS43MzA2MTg3IGMgLTEuNzIsLTEuMDUwMDAwMDIgLTMuNjcsLTEuNjUwMDAwMDIgLTUuNzcsLTEuNjUwMDAwMDIgeiIvPiYjeGE7PC9zdmc+;" vertex="1" parent="tBitRGPRe5gGITiWDtUl-26">
          <mxGeometry x="109.99734459075202" y="468.6294196900171" width="30.359964443569964" height="46.809945177981234" as="geometry" />
        </mxCell>
        <mxCell id="tBitRGPRe5gGITiWDtUl-41" value="kv-syncro-stream-[env]-i" style="shape=image;verticalLabelPosition=bottom;labelBackgroundColor=#ffffff;verticalAlign=top;aspect=fixed;imageAspect=0;image=data:image/svg+xml,PHN2ZyB4bWxuczpkYz0iaHR0cDovL3B1cmwub3JnL2RjL2VsZW1lbnRzLzEuMS8iIHhtbG5zOmNjPSJodHRwOi8vY3JlYXRpdmVjb21tb25zLm9yZy9ucyMiIHhtbG5zOnJkZj0iaHR0cDovL3d3dy53My5vcmcvMTk5OS8wMi8yMi1yZGYtc3ludGF4LW5zIyIgeG1sbnM6c3ZnPSJodHRwOi8vd3d3LnczLm9yZy8yMDAwL3N2ZyIgeG1sbnM9Imh0dHA6Ly93d3cudzMub3JnLzIwMDAvc3ZnIiB4bWxuczpzb2RpcG9kaT0iaHR0cDovL3NvZGlwb2RpLnNvdXJjZWZvcmdlLm5ldC9EVEQvc29kaXBvZGktMC5kdGQiIHhtbG5zOmlua3NjYXBlPSJodHRwOi8vd3d3Lmlua3NjYXBlLm9yZy9uYW1lc3BhY2VzL2lua3NjYXBlIiB2ZXJzaW9uPSIxLjEiIGlkPSJzdmc4MjQ1OSIgaW5rc2NhcGU6dmVyc2lvbj0iMC45Mi4zICgyNDA1NTQ2LCAyMDE4LTAzLTExKSIgc29kaXBvZGk6ZG9jbmFtZT0ia2V5X3ZhdWx0LnN2ZyIgeD0iMHB4IiB5PSIwcHgiIHZpZXdCb3g9IjAgMCA4OS42OSAxMDAuMTEiIHN0eWxlPSJlbmFibGUtYmFja2dyb3VuZDpuZXcgMCAwIDg5LjY5IDEwMC4xMTsiIHhtbDpzcGFjZT0icHJlc2VydmUiPjxtZXRhZGF0YSBpZD0ibWV0YWRhdGEyMzQ4Ij48cmRmOlJERj48Y2M6V29yayByZGY6YWJvdXQ9IiI+PGRjOmZvcm1hdD5pbWFnZS9zdmcreG1sPC9kYzpmb3JtYXQ+PGRjOnR5cGUgcmRmOnJlc291cmNlPSJodHRwOi8vcHVybC5vcmcvZGMvZGNtaXR5cGUvU3RpbGxJbWFnZSIvPjxkYzp0aXRsZS8+PC9jYzpXb3JrPjwvcmRmOlJERj48L21ldGFkYXRhPjxkZWZzIGlkPSJkZWZzMjM0NiIvPiYjeGE7PGZpbHRlciBpZD0iZmlsdGVyXzIiPiYjeGE7CTxmZUdhdXNzaWFuQmx1ciBpZD0iZmVHYXVzc2lhbkJsdXI4MjQzMiIgc3RkRGV2aWF0aW9uPSIyIi8+JiN4YTs8L2ZpbHRlcj4mI3hhOzxzb2RpcG9kaTpuYW1lZHZpZXcgYm9yZGVyY29sb3I9IiM2NjY2NjYiIGJvcmRlcm9wYWNpdHk9IjEiIGZpdC1tYXJnaW4tYm90dG9tPSIwIiBmaXQtbWFyZ2luLWxlZnQ9IjAiIGZpdC1tYXJnaW4tcmlnaHQ9IjAiIGZpdC1tYXJnaW4tdG9wPSIwIiBncmlkdG9sZXJhbmNlPSIxMCIgZ3VpZGV0b2xlcmFuY2U9IjEwIiBpZD0ibmFtZWR2aWV3ODI0NjEiIGlua3NjYXBlOmN1cnJlbnQtbGF5ZXI9InN2ZzgyNDU5IiBpbmtzY2FwZTpjeD0iNzMuODY0NzI3IiBpbmtzY2FwZTpjeT0iNTIuMzM5MjAxIiBpbmtzY2FwZTpwYWdlb3BhY2l0eT0iMCIgaW5rc2NhcGU6cGFnZXNoYWRvdz0iMiIgaW5rc2NhcGU6d2luZG93LWhlaWdodD0iMTAxNyIgaW5rc2NhcGU6d2luZG93LW1heGltaXplZD0iMSIgaW5rc2NhcGU6d2luZG93LXdpZHRoPSIxOTIwIiBpbmtzY2FwZTp3aW5kb3cteD0iLTgiIGlua3NjYXBlOndpbmRvdy15PSItOCIgaW5rc2NhcGU6em9vbT0iMy42OTA2MTY0IiBvYmplY3R0b2xlcmFuY2U9IjEwIiBwYWdlY29sb3I9IiNmZmZmZmYiIHNob3dncmlkPSJmYWxzZSI+JiN4YTsJPC9zb2RpcG9kaTpuYW1lZHZpZXc+JiN4YTsmI3hhOzxwYXRoIGlkPSJwYXRoODI0NDUiIGlua3NjYXBlOmNvbm5lY3Rvci1jdXJ2YXR1cmU9IjAiIHN0eWxlPSJmaWxsOiM3RkJBMDA7IiBkPSJNODkuNjksNTUuMjZjMC0xNC42Mi03LTI3LjQzLTE3LjYxLTM1LjY0ICBjMCwwLjQsMCwxLDAsMS40YzAsNC40MS0xLjIxLDguNjEtMy4wMSwxMi4yMWM1LjIxLDUuODEsOC40MSwxMy40Miw4LjQxLDIxLjgzYzAsMTguMDItMTQuNjEsMzIuNjMtMzIuNjMsMzIuNjMgIFMxMi4yMSw3My4wOCwxMi4yMSw1NS4wNmMwLTkuMDEsMy42MS0xNy4wMiw5LjQxLTIzLjAzYy0xLjYtMy40LTIuNi03LjItMi42LTExLjIxYzAtMC44LDAtMS44LDAuMi0yLjZDNy42MSwyNi4yMywwLDM5Ljg0LDAsNTUuMDYgIGMwLDI1LjAyLDIwLjAyLDQ1LjA1LDQ0Ljg1LDQ1LjA1QzY5LjY3LDEwMC4xMSw4OS42OSw4MC4wOCw4OS42OSw1NS4yNnoiLz4mI3hhOyYjeGE7PHBhdGggaWQ9InBhdGg4MjQ1MyIgaW5rc2NhcGU6Y29ubmVjdG9yLWN1cnZhdHVyZT0iMCIgc3R5bGU9ImZpbGw6I0ZDRDExNjsiIGQ9Ik00NS40NSwwQzM0LjA0LDAsMjQuODMsOS4yMSwyNC44MywyMC42MiAgYzAsOS40MSw2LjIxLDE3LjIyLDE0LjgyLDE5LjgydjIwLjQzaC05LjYxdjEwLjQxaDkuNjF2Ny42MWgxMS40MVY0MC4yNGM4LjYxLTIuNCwxNC44MS0xMC40MSwxNC44MS0xOS44MiAgQzY2LjA3LDkuMjEsNTYuODYsMCw0NS40NSwweiBNNDUuNDUsMTAuODFjNS40MSwwLDkuODEsNC40MSw5LjgxLDkuODFjMCw1LjQxLTQuNCw5LjgxLTkuODEsOS44MWMtNS40LDAtOS44MS00LjQtOS44MS05LjgxICBDMzUuNjQsMTUuMjIsNDAuMDUsMTAuODEsNDUuNDUsMTAuODF6Ii8+JiN4YTs8L3N2Zz4=;" vertex="1" parent="tBitRGPRe5gGITiWDtUl-26">
          <mxGeometry x="7.239999999999991" y="459.8802850613423" width="50" height="55.56" as="geometry" />
        </mxCell>
        <mxCell id="tBitRGPRe5gGITiWDtUl-42" style="edgeStyle=orthogonalEdgeStyle;rounded=0;orthogonalLoop=1;jettySize=auto;html=1;exitX=0;exitY=0.75;exitDx=0;exitDy=0;" edge="1" parent="tBitRGPRe5gGITiWDtUl-26" source="tBitRGPRe5gGITiWDtUl-32" target="tBitRGPRe5gGITiWDtUl-41">
          <mxGeometry relative="1" as="geometry" />
        </mxCell>
        <mxCell id="tBitRGPRe5gGITiWDtUl-43" value="" style="image;sketch=0;aspect=fixed;html=1;points=[];align=center;fontSize=12;image=img/lib/mscae/Event_Hubs.svg;fillColor=#dae8fc;strokeColor=#6c8ebf;" vertex="1" parent="tBitRGPRe5gGITiWDtUl-26">
          <mxGeometry x="1210" y="325.88" width="36.83" height="38.36" as="geometry" />
        </mxCell>
        <mxCell id="tBitRGPRe5gGITiWDtUl-44" value="" style="image;aspect=fixed;html=1;points=[];align=center;fontSize=12;image=img/lib/azure2/identity/Azure_Active_Directory.svg;" vertex="1" parent="tBitRGPRe5gGITiWDtUl-26">
          <mxGeometry x="-44.400000000000006" y="559.88" width="70" height="64" as="geometry" />
        </mxCell>
        <mxCell id="tBitRGPRe5gGITiWDtUl-45" style="edgeStyle=orthogonalEdgeStyle;rounded=0;orthogonalLoop=1;jettySize=auto;html=1;exitX=1;exitY=0.75;exitDx=0;exitDy=0;" edge="1" parent="tBitRGPRe5gGITiWDtUl-23" source="tBitRGPRe5gGITiWDtUl-32" target="tBitRGPRe5gGITiWDtUl-53">
          <mxGeometry relative="1" as="geometry">
            <Array as="points">
              <mxPoint x="686" y="261" />
            </Array>
            <mxPoint x="379.42635928329446" y="260.79999999999995" as="sourcePoint" />
          </mxGeometry>
        </mxCell>
        <mxCell id="tBitRGPRe5gGITiWDtUl-46" value="" style="group" vertex="1" connectable="0" parent="tBitRGPRe5gGITiWDtUl-23">
          <mxGeometry x="148" y="430" width="240" height="145" as="geometry" />
        </mxCell>
        <mxCell id="tBitRGPRe5gGITiWDtUl-47" value="StorageAccount -stsyncrostreamtransc[env]i" style="rounded=1;whiteSpace=wrap;html=1;verticalAlign=top;fontStyle=1;fontSize=13;align=center;fillColor=#dae8fc;strokeColor=#6c8ebf;" vertex="1" parent="tBitRGPRe5gGITiWDtUl-46">
          <mxGeometry width="240.00000000000003" height="145" as="geometry" />
        </mxCell>
        <mxCell id="tBitRGPRe5gGITiWDtUl-48" value="Container -&amp;nbsp;&lt;br&gt;Scriban templates" style="image;aspect=fixed;html=1;points=[];align=center;fontSize=12;image=img/lib/azure2/storage/Storage_Accounts_Classic.svg;" vertex="1" parent="tBitRGPRe5gGITiWDtUl-46">
          <mxGeometry x="51.99687434460492" y="54.997765640516384" width="16.505900561206083" height="13.204720448964867" as="geometry" />
        </mxCell>
        <mxCell id="tBitRGPRe5gGITiWDtUl-49" value="queue" style="image;aspect=fixed;html=1;points=[];align=center;fontSize=12;image=img/lib/azure2/general/Storage_Queue.svg;" vertex="1" parent="tBitRGPRe5gGITiWDtUl-46">
          <mxGeometry x="162" y="51.95" width="20" height="16.25" as="geometry" />
        </mxCell>
        <mxCell id="tBitRGPRe5gGITiWDtUl-50" value="&lt;b&gt;&lt;font style=&quot;font-size: 20px;&quot;&gt;East US 2&lt;/font&gt;&lt;/b&gt;" style="rounded=0;whiteSpace=wrap;html=1;dashed=1;fillColor=#dae8fc;strokeColor=#6c8ebf;" vertex="1" parent="tBitRGPRe5gGITiWDtUl-23">
          <mxGeometry x="839.9999999999999" y="-30" width="170" height="60" as="geometry" />
        </mxCell>
        <mxCell id="tBitRGPRe5gGITiWDtUl-51" style="edgeStyle=orthogonalEdgeStyle;rounded=0;orthogonalLoop=1;jettySize=auto;html=1;exitX=0.47;exitY=1.013;exitDx=0;exitDy=0;exitPerimeter=0;" edge="1" parent="tBitRGPRe5gGITiWDtUl-23" source="tBitRGPRe5gGITiWDtUl-32" target="tBitRGPRe5gGITiWDtUl-47">
          <mxGeometry relative="1" as="geometry" />
        </mxCell>
        <mxCell id="tBitRGPRe5gGITiWDtUl-52" value="" style="group;rotation=90;" vertex="1" connectable="0" parent="tBitRGPRe5gGITiWDtUl-23">
          <mxGeometry x="549.996227017119" y="469.99923076923073" width="271.03" height="158.3" as="geometry" />
        </mxCell>
        <mxCell id="tBitRGPRe5gGITiWDtUl-53" value="&amp;nbsp; &amp;nbsp; &amp;nbsp; &amp;nbsp; cosmos-syncro-stream-transc-[env]-i" style="rounded=0;whiteSpace=wrap;html=1;verticalAlign=top;fontStyle=1;fillColor=#dae8fc;strokeColor=#6c8ebf;" vertex="1" parent="tBitRGPRe5gGITiWDtUl-52">
          <mxGeometry width="271.03" height="158.3" as="geometry" />
        </mxCell>
        <mxCell id="tBitRGPRe5gGITiWDtUl-54" value="" style="shape=image;verticalLabelPosition=bottom;labelBackgroundColor=#ffffff;verticalAlign=top;aspect=fixed;imageAspect=0;image=data:image/svg+xml,PHN2ZyB4bWxuczpjYz0iaHR0cDovL2NyZWF0aXZlY29tbW9ucy5vcmcvbnMjIiB4bWxuczpkYz0iaHR0cDovL3B1cmwub3JnL2RjL2VsZW1lbnRzLzEuMS8iIHhtbG5zOmlua3NjYXBlPSJodHRwOi8vd3d3Lmlua3NjYXBlLm9yZy9uYW1lc3BhY2VzL2lua3NjYXBlIiB4bWxuczpyZGY9Imh0dHA6Ly93d3cudzMub3JnLzE5OTkvMDIvMjItcmRmLXN5bnRheC1ucyMiIHhtbG5zOnNvZGlwb2RpPSJodHRwOi8vc29kaXBvZGkuc291cmNlZm9yZ2UubmV0L0RURC9zb2RpcG9kaS0wLmR0ZCIgeG1sbnM6c3ZnPSJodHRwOi8vd3d3LnczLm9yZy8yMDAwL3N2ZyIgeG1sbnM9Imh0dHA6Ly93d3cudzMub3JnLzIwMDAvc3ZnIiB4bWxuczp4bGluaz0iaHR0cDovL3d3dy53My5vcmcvMTk5OS94bGluayIgdmVyc2lvbj0iMS4xIiBpZD0ic3ZnNzQzMTIiIGlua3NjYXBlOnZlcnNpb249IjAuOTIuMyAoMjQwNTU0NiwgMjAxOC0wMy0xMSkiIHNvZGlwb2RpOmRvY25hbWU9ImNvc21vZGIuc3ZnIiB4PSIwcHgiIHk9IjBweCIgdmlld0JveD0iMCAwIDM3LjQ3IDM0LjUxIiBzdHlsZT0iZW5hYmxlLWJhY2tncm91bmQ6bmV3IDAgMCAzNy40NyAzNC41MTsiIHhtbDpzcGFjZT0icHJlc2VydmUiPiYjeGE7PHNvZGlwb2RpOm5hbWVkdmlldyBib3JkZXJjb2xvcj0iIzY2NjY2NiIgYm9yZGVyb3BhY2l0eT0iMSIgZml0LW1hcmdpbi1ib3R0b209IjAiIGZpdC1tYXJnaW4tbGVmdD0iMCIgZml0LW1hcmdpbi1yaWdodD0iMCIgZml0LW1hcmdpbi10b3A9IjAiIGdyaWR0b2xlcmFuY2U9IjEwIiBndWlkZXRvbGVyYW5jZT0iMTAiIGlkPSJuYW1lZHZpZXc3NDMxNCIgaW5rc2NhcGU6Y3VycmVudC1sYXllcj0ic3ZnNzQzMTIiIGlua3NjYXBlOmN4PSIzNi4xMzQwNTciIGlua3NjYXBlOmN5PSIyMS44MTg5OSIgaW5rc2NhcGU6cGFnZW9wYWNpdHk9IjAiIGlua3NjYXBlOnBhZ2VzaGFkb3c9IjIiIGlua3NjYXBlOndpbmRvdy1oZWlnaHQ9IjEwMTciIGlua3NjYXBlOndpbmRvdy1tYXhpbWl6ZWQ9IjEiIGlua3NjYXBlOndpbmRvdy13aWR0aD0iMTkyMCIgaW5rc2NhcGU6d2luZG93LXg9Ii04IiBpbmtzY2FwZTp3aW5kb3cteT0iLTgiIGlua3NjYXBlOnpvb209IjEyLjc3MjExNiIgb2JqZWN0dG9sZXJhbmNlPSIxMCIgcGFnZWNvbG9yPSIjZmZmZmZmIiBzaG93Z3JpZD0iZmFsc2UiPiYjeGE7CTwvc29kaXBvZGk6bmFtZWR2aWV3PiYjeGE7PGcgaWQ9Imc3NDMxMCIgdHJhbnNmb3JtPSJ0cmFuc2xhdGUoLTAuNzUwMDMzMjMsLTAuNzQ1KSI+JiN4YTsJPHRpdGxlIGlkPSJ0aXRsZTc0MjcwIj5QYWdlLTE8L3RpdGxlPiYjeGE7CTxnIGlkPSJncm91cDQ4ODUtMSIgdHJhbnNmb3JtPSJ0cmFuc2xhdGUoMC4yMjUsLTAuNzUpIj4mI3hhOwkJPHRpdGxlIGlkPSJ0aXRsZTc0MjcyIj5Db3NtbyBEQjwvdGl0bGU+JiN4YTsJCTxnIGlkPSJzaGFwZTQ4ODYtMiIgdHJhbnNmb3JtPSJ0cmFuc2xhdGUoNS43NzUsLTIuNTUpIj4mI3hhOwkJCTx0aXRsZSBpZD0idGl0bGU3NDI3NCI+U2hlZXQuNDg4NjwvdGl0bGU+JiN4YTsJCQk8cGF0aCBpZD0icGF0aDc0Mjc2IiBpbmtzY2FwZTpjb25uZWN0b3ItY3VydmF0dXJlPSIwIiBzdHlsZT0iZmlsbDojNTlCNEQ5OyIgZD0iTTI1LjczLDE5LjVjMS41Nyw2LjY4LTIuNDgsMTMuMzUtOS4xNSwxNC45MyAgICAgQzkuOSwzNiwzLjMsMzIuMDMsMS42NSwyNS4zNUMwLDE4LjY4LDQuMTMsMTIsMTAuOCwxMC40M2wwLDBDMTcuNCw4Ljc4LDI0LjA4LDEyLjgzLDI1LjczLDE5LjVMMjUuNzMsMTkuNXoiLz4mI3hhOwkJPC9nPiYjeGE7CQk8ZyBpZD0ic2hhcGU0ODg3LTQiIHRyYW5zZm9ybT0idHJhbnNsYXRlKDYuNiwtNy44NzUpIj4mI3hhOwkJCTx0aXRsZSBpZD0idGl0bGU3NDI3OSI+U2hlZXQuNDg4NzwvdGl0bGU+JiN4YTsJCQk8cGF0aCBpZD0icGF0aDc0MjgxIiBpbmtzY2FwZTpjb25uZWN0b3ItY3VydmF0dXJlPSIwIiBzdHlsZT0iZmlsbDojRkZGRkZGO2ZpbGwtb3BhY2l0eTowLjU7IiBkPSJNMTEuMSwzMi43ICAgICBjMC0xLjgtMS41LTMuMy0zLjMtMy4zbDAsMEg3LjI4YzAuNDUtMS43Mi0wLjY4LTMuNTItMi40LTMuOTdjLTAuMjMtMC4wOC0wLjUzLTAuMDgtMC44My0wLjA4aC0zLjMgICAgIGMtMC43NSwzLjgzLDAuMzgsNy43MywzLDEwLjU4aDQuMTNDOS42OCwzNiwxMS4xLDM0LjU4LDExLjEsMzIuN0wxMS4xLDMyLjd6Ii8+JiN4YTsJCTwvZz4mI3hhOwkJPGcgaWQ9InNoYXBlNDg4OC02IiB0cmFuc2Zvcm09InRyYW5zbGF0ZSgxNy4wMjUsLTE3LjI1KSI+JiN4YTsJCQk8dGl0bGUgaWQ9InRpdGxlNzQyODQiPlNoZWV0LjQ4ODg8L3RpdGxlPiYjeGE7CQkJPHBhdGggaWQ9InBhdGg3NDI4NiIgaW5rc2NhcGU6Y29ubmVjdG9yLWN1cnZhdHVyZT0iMCIgc3R5bGU9ImZpbGw6I0ZGRkZGRjtmaWxsLW9wYWNpdHk6MC41OyIgZD0iTTQuOCwyOC41ICAgICBjMCwwLjIzLDAsMC4zOCwwLjA3LDAuNkgzLjQ1QzEuNTcsMjkuMSwwLDMwLjYsMCwzMi41NVMxLjUsMzYsMy40NSwzNmgxMS4zMkMxNC40LDMxLjgsMTIsMjguMiw4LjQsMjYuMjVINy4wNSAgICAgQzUuNzcsMjYuMjUsNC44LDI3LjIzLDQuOCwyOC41eiIvPiYjeGE7CQk8L2c+JiN4YTsJCTxnIGlkPSJzaGFwZTQ4ODktOCIgdHJhbnNmb3JtPSJ0cmFuc2xhdGUoMjAuMzI1LC01LjMyNSkiPiYjeGE7CQkJPHRpdGxlIGlkPSJ0aXRsZTc0Mjg5Ij5TaGVldC40ODg5PC90aXRsZT4mI3hhOwkJCTxwYXRoIGlkPSJwYXRoNzQyOTEiIGlua3NjYXBlOmNvbm5lY3Rvci1jdXJ2YXR1cmU9IjAiIHN0eWxlPSJmaWxsOiNGRkZGRkY7ZmlsbC1vcGFjaXR5OjAuNTsiIGQ9Ik0xMS40OCwyNi40OEg0LjczICAgICBjLTEuNSwwLTIuNzgsMS4yLTIuNzgsMi43N2MwLDAuNDUsMC4xNSwwLjksMC4zLDEuMzVjLTEuNSwwLjQ1LTIuMjUsMi4wMy0xLjgsMy40NUMwLjgzLDM1LjI1LDEuODgsMzYsMy4xNSwzNmgxLjggICAgIEM4LjU1LDM0LjEzLDExLjAzLDMwLjUzLDExLjQ4LDI2LjQ4eiIvPiYjeGE7CQk8L2c+JiN4YTsJCTxnIGlkPSJzaGFwZTQ4OTAtMTAiIHRyYW5zZm9ybT0idHJhbnNsYXRlKDAuNTI1LC0yNC4zNzUpIj4mI3hhOwkJCTx0aXRsZSBpZD0idGl0bGU3NDI5NCI+U2hlZXQuNDg5MDwvdGl0bGU+JiN4YTsJCQk8cGF0aCBpZD0icGF0aDc0Mjk2IiBpbmtzY2FwZTpjb25uZWN0b3ItY3VydmF0dXJlPSIwIiBzdHlsZT0iZmlsbDojQjhENDMyOyIgZD0iTTUuMSwzNmMtMC4yMiwwLTAuMzctMC4xNS0wLjM3LTAuMzcgICAgIGMwLTIuNC0xLjk1LTQuMzUtNC4zNS00LjM1QzAuMTUsMzEuMzUsMCwzMS4xMywwLDMwLjk4czAuMTUtMC4zOCwwLjM4LTAuMzhjMi40LDAsNC4zNS0xLjk1LDQuMzUtNC4zNSAgICAgYzAtMC4yMywwLjE1LTAuMzgsMC4zNy0wLjM4YzAuMjMsMCwwLjM4LDAuMTUsMC4zOCwwLjM4YzAsMi40LDEuOTUsNC4zNSw0LjM1LDQuMzVjMC4yMiwwLDAuMzcsMC4xNSwwLjM3LDAuMzggICAgIGMwLDAuMjItMC4xNSwwLjM3LTAuMzcsMC4zN2MtMi40LDAtNC4zNSwxLjk1LTQuMzUsNC4zNUM1LjQ4LDM1Ljg1LDUuMzMsMzYsNS4xLDM2eiIvPiYjeGE7CQk8L2c+JiN4YTsJCTxnIGlkPSJzaGFwZTQ4OTEtMTIiIHRyYW5zZm9ybT0idHJhbnNsYXRlKDI5LjI1KSI+JiN4YTsJCQk8dGl0bGUgaWQ9InRpdGxlNzQyOTkiPlNoZWV0LjQ4OTE8L3RpdGxlPiYjeGE7CQkJPHBhdGggaWQ9InBhdGg3NDMwMSIgaW5rc2NhcGU6Y29ubmVjdG9yLWN1cnZhdHVyZT0iMCIgc3R5bGU9ImZpbGw6IzI2QkNFRTsiIGQ9Ik0zLjA3LDM2Yy0wLjE1LDAtMC4yMi0wLjA3LTAuMjItMC4yMiAgICAgYzAtMS40My0xLjItMi41NS0yLjYzLTIuNTVDMC4wNywzMy4yMywwLDMzLjE1LDAsMzNzMC4wNy0wLjIyLDAuMjItMC4yMmwwLDBjMS40MywwLDIuNTUtMS4xMywyLjYzLTIuNTUgICAgIGMwLTAuMTUsMC4wNy0wLjIzLDAuMjItMC4yM3MwLjIzLDAuMDgsMC4yMywwLjIzYzAsMS40MiwxLjIsMi41NSwyLjYyLDIuNTVjMC4xNSwwLDAuMjMsMC4wNywwLjIzLDAuMjJzLTAuMDgsMC4yMy0wLjIzLDAuMjMgICAgIGwwLDBjLTEuNDIsMC0yLjU1LDEuMTItMi42MiwyLjU1QzMuMywzNS44NSwzLjIyLDM2LDMuMDcsMzZDMy4wNywzNiwzLjA3LDM2LDMuMDcsMzZ6Ii8+JiN4YTsJCTwvZz4mI3hhOwkJPGcgaWQ9InNoYXBlNDg5Mi0xNCIgdHJhbnNmb3JtPSJ0cmFuc2xhdGUoMCwtMy4zNzUpIj4mI3hhOwkJCTx0aXRsZSBpZD0idGl0bGU3NDMwNCI+U2hlZXQuNDg5MjwvdGl0bGU+JiN4YTsJCQk8cGF0aCBpZD0icGF0aDc0MzA2IiBpbmtzY2FwZTpjb25uZWN0b3ItY3VydmF0dXJlPSIwIiBzdHlsZT0iZmlsbDojMEYwRjBGOyIgZD0iTTM3LjUsMTIuMTVjLTEuMi0xLjk1LTQuMTMtMi40LTguNjMtMS4yNyAgICAgYy0xLjM1LDAuMzctMi43NywwLjc1LTQuMDUsMS4yN2MwLjgzLDAuNDUsMS42NSwwLjksMi40LDEuNWMwLjc1LTAuMjIsMS41LTAuNDUsMi4xOC0wLjY3YzEuMi0wLjMsMi40LTAuNDUsMy42LTAuNTMgICAgIGMxLjQyLDAsMi4yNSwwLjM4LDIuNTUsMC44M2MwLjQ1LDAuNzUsMCwyLjYyLTIuNTUsNS42MmMtMC40NSwwLjUzLTAuOTgsMS4wNS0xLjUsMS41OGMtMi44NSwyLjctNS45Myw1LjEtOS4zLDcuMTIgICAgIGMtMy4zNywyLjEtNi45LDMuODMtMTAuNjUsNS4wM2MtNC41LDEuNDItNy41NywxLjQyLTguMjUsMC4zYy0wLjY4LTEuMTMsMC42OC0zLjksNC4wNS03LjJjLTAuMjMtMC45OC0wLjMtMS45NS0wLjMtMi44NSAgICAgYy01LjMyLDQuOC03LjA1LDktNS43LDExLjI1QzIuMSwzNS4zMywzLjY3LDM2LDUuOTIsMzZjMi43LTAuMTUsNS40LTAuNjcsNy45NS0xLjcyYzMuMy0xLjI4LDYuNDUtMi44NSw5LjM4LTQuNzMgICAgIGMzLTEuOCw1Ljg1LTMuOSw4LjQ3LTYuM2MxLjA1LTAuOSwyLjAzLTEuODcsMi45My0yLjkyQzM3LjcyLDE2Ljg4LDM4LjcsMTQuMDMsMzcuNSwxMi4xNXoiLz4mI3hhOwkJPC9nPiYjeGE7CTwvZz4mI3hhOzwvZz4mI3hhOzwvc3ZnPg==;" vertex="1" parent="tBitRGPRe5gGITiWDtUl-52">
          <mxGeometry x="0.003772982881059761" y="0.0007692307692650502" width="37" height="35" as="geometry" />
        </mxCell>
        <mxCell id="tBitRGPRe5gGITiWDtUl-55" value="clients" style="shape=image;verticalLabelPosition=bottom;labelBackgroundColor=#ffffff;verticalAlign=top;aspect=fixed;imageAspect=0;image=data:image/svg+xml,PHN2ZyB4bWxuczpkYz0iaHR0cDovL3B1cmwub3JnL2RjL2VsZW1lbnRzLzEuMS8iIHhtbG5zOmNjPSJodHRwOi8vY3JlYXRpdmVjb21tb25zLm9yZy9ucyMiIHhtbG5zOnJkZj0iaHR0cDovL3d3dy53My5vcmcvMTk5OS8wMi8yMi1yZGYtc3ludGF4LW5zIyIgeG1sbnM6c3ZnPSJodHRwOi8vd3d3LnczLm9yZy8yMDAwL3N2ZyIgeG1sbnM9Imh0dHA6Ly93d3cudzMub3JnLzIwMDAvc3ZnIiB4bWxuczpzb2RpcG9kaT0iaHR0cDovL3NvZGlwb2RpLnNvdXJjZWZvcmdlLm5ldC9EVEQvc29kaXBvZGktMC5kdGQiIHhtbG5zOmlua3NjYXBlPSJodHRwOi8vd3d3Lmlua3NjYXBlLm9yZy9uYW1lc3BhY2VzL2lua3NjYXBlIiB2ZXJzaW9uPSIxLjEiIGlkPSJzdmc5OTM3MyIgaW5rc2NhcGU6dmVyc2lvbj0iMC45Mi4zICgyNDA1NTQ2LCAyMDE4LTAzLTExKSIgc29kaXBvZGk6ZG9jbmFtZT0iZG9jdW1lbnRkYi5zdmciIHg9IjBweCIgeT0iMHB4IiB2aWV3Qm94PSIwIDAgNDYuMDMgNjAuODkiIHhtbDpzcGFjZT0icHJlc2VydmUiIHdpZHRoPSI0Ni4wMjk5OTkiIGhlaWdodD0iNjAuODg5OTk5Ij48bWV0YWRhdGEgaWQ9Im1ldGFkYXRhNzMxIj48cmRmOlJERj48Y2M6V29yayByZGY6YWJvdXQ9IiI+PGRjOmZvcm1hdD5pbWFnZS9zdmcreG1sPC9kYzpmb3JtYXQ+PGRjOnR5cGUgcmRmOnJlc291cmNlPSJodHRwOi8vcHVybC5vcmcvZGMvZGNtaXR5cGUvU3RpbGxJbWFnZSIvPjxkYzp0aXRsZS8+PC9jYzpXb3JrPjwvcmRmOlJERj48L21ldGFkYXRhPjxkZWZzIGlkPSJkZWZzNzI5Ij4mI3hhOwkmI3hhOyYjeGE7CSYjeGE7JiN4YTsJJiN4YTsmI3hhOwkmI3hhOyYjeGE7CSYjeGE7JiN4YTsJJiN4YTsJJiN4YTsJJiN4YTsmI3hhOwkmI3hhOwkmI3hhOwkmI3hhOyYjeGE7CQkmI3hhOwkmI3hhOwkJJiN4YTsJJiN4YTsJCSYjeGE7CSYjeGE7CQkmI3hhOwkmI3hhOwkJJiN4YTsJJiN4YTsJCSYjeGE7CSYjeGE7CQkmI3hhOwkmI3hhOwkJCSYjeGE7CQkmI3hhOwkJCSYjeGE7CQk8L2RlZnM+JiN4YTs8ZmlsdGVyIGlkPSJmaWx0ZXJfMiI+JiN4YTsJPGZlR2F1c3NpYW5CbHVyIGlkPSJmZUdhdXNzaWFuQmx1cjk5MzAzIiBzdGREZXZpYXRpb249IjIiLz4mI3hhOzwvZmlsdGVyPiYjeGE7PHNvZGlwb2RpOm5hbWVkdmlldyBib3JkZXJjb2xvcj0iIzY2NjY2NiIgYm9yZGVyb3BhY2l0eT0iMSIgZml0LW1hcmdpbi1ib3R0b209IjAiIGZpdC1tYXJnaW4tbGVmdD0iMCIgZml0LW1hcmdpbi1yaWdodD0iMCIgZml0LW1hcmdpbi10b3A9IjAiIGdyaWR0b2xlcmFuY2U9IjEwIiBndWlkZXRvbGVyYW5jZT0iMTAiIGlkPSJuYW1lZHZpZXc5OTM3NSIgaW5rc2NhcGU6Y3VycmVudC1sYXllcj0ic3ZnOTkzNzMiIGlua3NjYXBlOmN4PSItMjkuMzEwMTI1IiBpbmtzY2FwZTpjeT0iNDAuNTkxMjM5IiBpbmtzY2FwZTpwYWdlb3BhY2l0eT0iMCIgaW5rc2NhcGU6cGFnZXNoYWRvdz0iMiIgaW5rc2NhcGU6d2luZG93LWhlaWdodD0iMTAxNyIgaW5rc2NhcGU6d2luZG93LW1heGltaXplZD0iMSIgaW5rc2NhcGU6d2luZG93LXdpZHRoPSIxOTIwIiBpbmtzY2FwZTp3aW5kb3cteD0iLTgiIGlua3NjYXBlOndpbmRvdy15PSItOCIgaW5rc2NhcGU6em9vbT0iNy42MTY2MTYiIG9iamVjdHRvbGVyYW5jZT0iMTAiIHBhZ2Vjb2xvcj0iI2ZmZmZmZiIgc2hvd2dyaWQ9ImZhbHNlIj4mI3hhOwk8L3NvZGlwb2RpOm5hbWVkdmlldz4mI3hhOyYjeGE7PHBhdGggaWQ9InBhdGg5OTMxNiIgaW5rc2NhcGU6Y29ubmVjdG9yLWN1cnZhdHVyZT0iMCIgc3R5bGU9ImZpbGw6IzM5OTljNiIgZD0ibSAwLDguMjggdiA0NC4yMSBjIDAsNC42MyAxMC4yMyw4LjI4IDIzLjAyLDguMjggViA4LjI4IFoiLz4mI3hhOyYjeGE7PHBhdGggaWQ9InBhdGg5OTMyNCIgaW5rc2NhcGU6Y29ubmVjdG9yLWN1cnZhdHVyZT0iMCIgc3R5bGU9ImZpbGw6IzU5YjRkOSIgZD0ibSAyMi42NSw2MC44OSBoIDAuMzcgYyAxMi42NiwwIDIzLjAxLC0zLjc3IDIzLjAxLC04LjI4IFYgOC4yOCBIIDIyLjY1IFoiLz4mI3hhOyYjeGE7PHBhdGggaWQ9InBhdGg5OTMzMiIgaW5rc2NhcGU6Y29ubmVjdG9yLWN1cnZhdHVyZT0iMCIgc3R5bGU9ImZpbGw6I2ZmZmZmZiIgZD0ibSA0Ni4wMyw4LjI4IGMgMCw0LjYzIC0xMC4yMyw4LjI4IC0yMy4wMSw4LjI4IEMgMTAuMjMsMTYuNTYgMCwxMi45MSAwLDguMjggMCwzLjc4IDEwLjM1LDAgMjMuMDIsMCAzNS42OCwwIDQ2LjAzLDMuNzggNDYuMDMsOC4yOCBaIi8+JiN4YTsmI3hhOzxwYXRoIGlkPSJwYXRoOTkzNDAiIGlua3NjYXBlOmNvbm5lY3Rvci1jdXJ2YXR1cmU9IjAiIHN0eWxlPSJmaWxsOiM3ZmJhMDAiIGQ9Im0gNDEuMjksNy43OSBjIDAsMy4wNSAtOC4xNiw1LjQ4IC0xOC4yNyw1LjQ4IC0xMC4xMSwwIC0xOC4yNywtMi40MyAtMTguMjcsLTUuNDggMCwtMy4wNCA4LjE2LC01LjQ4IDE4LjI3LC01LjQ4IDEwLjExLDAgMTguMjcsMi40NCAxOC4yNyw1LjQ4IHoiLz4mI3hhOyYjeGE7PHBhdGggaWQ9InBhdGg5OTM0OCIgaW5rc2NhcGU6Y29ubmVjdG9yLWN1cnZhdHVyZT0iMCIgc3R5bGU9ImZpbGw6I2I4ZDQzMiIgZD0ibSAzNy41MSwxMS4yIGMgMi40NCwtMC45NyAzLjc4LC0yLjA3IDMuNzgsLTMuNDEgMCwtMy4wNCAtOC4xNiwtNS40OCAtMTguMjcsLTUuNDggLTEwLjExLDAgLTE4LjI3LDIuNDQgLTE4LjI3LDUuNDggMCwxLjIyIDEuNDYsMi40NCAzLjc4LDMuNDEgMy4yOCwtMS4zNCA4LjUyLC0yLjE5IDE0LjQ5LC0yLjE5IDUuODQsMCAxMS4wOCwwLjg1IDE0LjQ5LDIuMTkgeiIvPiYjeGE7PHBhdGggZD0ibSAxNi40NDE2NDcsNTAuOTAzNTcgYyAtMS44MywwIC0zLjI5LC0wLjI0IC00LjI2LC0wLjYxIC0xLjEsLTAuMzYgLTEuODMsLTAuOTcgLTIuMzIsLTEuNyAtMC40OCwtMC44NSAtMC43MywtMi4wNyAtMC43MywtMy42NSB2IC0yLjY4IGMgMCwtMS43MSAtMC43MywtMi42OCAtMi4xOSwtMi42OCB2IC0zLjI5IGMgMS40NiwwIDIuMTksLTAuODUgMi4xOSwtMi42OCB2IC0yLjQ0IGMgMCwtMS43IDAuMjUsLTMuMDQgMC43MywtMy43NyAwLjQ5LC0wLjg1IDEuMjIsLTEuMzQgMi4xOSwtMS44MyAxLjEsLTAuMzYgMi40NCwtMC42MSA0LjI3LC0wLjYxIHYgMy4yOSBjIC0wLjg2LDAgLTEuMzQsMC4xMiAtMS44MywwLjQ5IC0wLjM2LDAuMzYgLTAuNjEsMC45NyAtMC42MSwxLjgyIHYgMi4wNyBjIDAsMS4zNCAtMC4xMiwyLjQ0IC0wLjQ5LDMuMjkgLTAuMzYsMC44NiAtMC45NywxLjQ2IC0xLjgyLDEuODMgMC44NSwwLjM3IDEuNDYsMC45NyAxLjgyLDEuOTUgMC4zNywwLjg1IDAuNjEsMi4wNyAwLjYxLDMuNDEgdiAxLjgzIGMgMCwwLjg1IDAuMTMsMS40NiAwLjQ5LDEuODIgMC4zNywwLjM3IDAuOTcsMC42MSAxLjgzLDAuNjEgdiAzLjUzIHoiIHN0eWxlPSJmaWxsOiNmZmZmZmYiIGlua3NjYXBlOmNvbm5lY3Rvci1jdXJ2YXR1cmU9IjAiIGlkPSJwYXRoOTkzNTgiLz4mI3hhOzxwYXRoIGQ9Im0gMzcuMTQ3MDQ3LDM5LjU4MzU3IGMgLTEuNDYsMCAtMi4xOSwwLjg1IC0yLjE5LDIuNjggdiAyLjQzIGMgMCwxLjcxIC0wLjI1LDMuMDUgLTAuNzQsMy43OCAtMC40OCwwLjg1IC0xLjIxLDEuMzQgLTIuMTksMS44MiAtMS4wOSwwLjM3IC0yLjQzLDAuNjEgLTQuMjYsMC42MSB2IC0zLjI5IGMgMC44NSwwIDEuNDYsLTAuMTIgMS44MywtMC40OCAwLjM2LC0wLjM3IDAuNjEsLTAuOTggMC42MSwtMS44MyB2IC0yLjA3IGMgMCwtMS4zNCAwLjEyLC0yLjQ0IDAuNDgsLTMuMjkgMC4zNywtMC44NSAwLjk4LC0xLjQ2IDEuODMsLTEuODIgLTAuODUsLTAuMzcgLTEuNDYsLTEuMSAtMS44MywtMS45NSAtMC4zNiwtMC44NiAtMC42MSwtMi4wNyAtMC42MSwtMy40MSB2IC0xLjgzIGMgMCwtMC44NSAtMC4xMiwtMS40NiAtMC40OCwtMS44MyAtMC4zNywtMC4zNiAtMC45OCwtMC42MSAtMS44MywtMC42MSB2IC0zLjI4IGMgMS44MywwIDMuMjksMC4yNCA0LjI2LDAuNiAxLjEsMC4zNyAxLjgzLDAuOTggMi4zMiwxLjcxIDAuNDgsMC44NSAwLjczLDIuMDcgMC43MywzLjY1IHYgMi42OCBjIDAsMS43MSAwLjczLDIuNjggMi4xOSwyLjY4IHYgMy4wNSB6IiBzdHlsZT0iZmlsbDojZmZmZmZmIiBpbmtzY2FwZTpjb25uZWN0b3ItY3VydmF0dXJlPSIwIiBpZD0icGF0aDk5MzY2Ii8+JiN4YTs8L3N2Zz4=;" vertex="1" parent="tBitRGPRe5gGITiWDtUl-52">
          <mxGeometry x="110" y="59.80000000000001" width="29.18" height="38.7" as="geometry" />
        </mxCell>
        <mxCell id="tBitRGPRe5gGITiWDtUl-56" value="parameters" style="shape=image;verticalLabelPosition=bottom;labelBackgroundColor=#ffffff;verticalAlign=top;aspect=fixed;imageAspect=0;image=data:image/svg+xml,PHN2ZyB4bWxuczpkYz0iaHR0cDovL3B1cmwub3JnL2RjL2VsZW1lbnRzLzEuMS8iIHhtbG5zOmNjPSJodHRwOi8vY3JlYXRpdmVjb21tb25zLm9yZy9ucyMiIHhtbG5zOnJkZj0iaHR0cDovL3d3dy53My5vcmcvMTk5OS8wMi8yMi1yZGYtc3ludGF4LW5zIyIgeG1sbnM6c3ZnPSJodHRwOi8vd3d3LnczLm9yZy8yMDAwL3N2ZyIgeG1sbnM9Imh0dHA6Ly93d3cudzMub3JnLzIwMDAvc3ZnIiB4bWxuczpzb2RpcG9kaT0iaHR0cDovL3NvZGlwb2RpLnNvdXJjZWZvcmdlLm5ldC9EVEQvc29kaXBvZGktMC5kdGQiIHhtbG5zOmlua3NjYXBlPSJodHRwOi8vd3d3Lmlua3NjYXBlLm9yZy9uYW1lc3BhY2VzL2lua3NjYXBlIiB2ZXJzaW9uPSIxLjEiIGlkPSJzdmc5OTM3MyIgaW5rc2NhcGU6dmVyc2lvbj0iMC45Mi4zICgyNDA1NTQ2LCAyMDE4LTAzLTExKSIgc29kaXBvZGk6ZG9jbmFtZT0iZG9jdW1lbnRkYi5zdmciIHg9IjBweCIgeT0iMHB4IiB2aWV3Qm94PSIwIDAgNDYuMDMgNjAuODkiIHhtbDpzcGFjZT0icHJlc2VydmUiIHdpZHRoPSI0Ni4wMjk5OTkiIGhlaWdodD0iNjAuODg5OTk5Ij48bWV0YWRhdGEgaWQ9Im1ldGFkYXRhNzMxIj48cmRmOlJERj48Y2M6V29yayByZGY6YWJvdXQ9IiI+PGRjOmZvcm1hdD5pbWFnZS9zdmcreG1sPC9kYzpmb3JtYXQ+PGRjOnR5cGUgcmRmOnJlc291cmNlPSJodHRwOi8vcHVybC5vcmcvZGMvZGNtaXR5cGUvU3RpbGxJbWFnZSIvPjxkYzp0aXRsZS8+PC9jYzpXb3JrPjwvcmRmOlJERj48L21ldGFkYXRhPjxkZWZzIGlkPSJkZWZzNzI5Ij4mI3hhOwkmI3hhOyYjeGE7CSYjeGE7JiN4YTsJJiN4YTsmI3hhOwkmI3hhOyYjeGE7CSYjeGE7JiN4YTsJJiN4YTsJJiN4YTsJJiN4YTsmI3hhOwkmI3hhOwkmI3hhOwkmI3hhOyYjeGE7CQkmI3hhOwkmI3hhOwkJJiN4YTsJJiN4YTsJCSYjeGE7CSYjeGE7CQkmI3hhOwkmI3hhOwkJJiN4YTsJJiN4YTsJCSYjeGE7CSYjeGE7CQkmI3hhOwkmI3hhOwkJCSYjeGE7CQkmI3hhOwkJCSYjeGE7CQk8L2RlZnM+JiN4YTs8ZmlsdGVyIGlkPSJmaWx0ZXJfMiI+JiN4YTsJPGZlR2F1c3NpYW5CbHVyIGlkPSJmZUdhdXNzaWFuQmx1cjk5MzAzIiBzdGREZXZpYXRpb249IjIiLz4mI3hhOzwvZmlsdGVyPiYjeGE7PHNvZGlwb2RpOm5hbWVkdmlldyBib3JkZXJjb2xvcj0iIzY2NjY2NiIgYm9yZGVyb3BhY2l0eT0iMSIgZml0LW1hcmdpbi1ib3R0b209IjAiIGZpdC1tYXJnaW4tbGVmdD0iMCIgZml0LW1hcmdpbi1yaWdodD0iMCIgZml0LW1hcmdpbi10b3A9IjAiIGdyaWR0b2xlcmFuY2U9IjEwIiBndWlkZXRvbGVyYW5jZT0iMTAiIGlkPSJuYW1lZHZpZXc5OTM3NSIgaW5rc2NhcGU6Y3VycmVudC1sYXllcj0ic3ZnOTkzNzMiIGlua3NjYXBlOmN4PSItMjkuMzEwMTI1IiBpbmtzY2FwZTpjeT0iNDAuNTkxMjM5IiBpbmtzY2FwZTpwYWdlb3BhY2l0eT0iMCIgaW5rc2NhcGU6cGFnZXNoYWRvdz0iMiIgaW5rc2NhcGU6d2luZG93LWhlaWdodD0iMTAxNyIgaW5rc2NhcGU6d2luZG93LW1heGltaXplZD0iMSIgaW5rc2NhcGU6d2luZG93LXdpZHRoPSIxOTIwIiBpbmtzY2FwZTp3aW5kb3cteD0iLTgiIGlua3NjYXBlOndpbmRvdy15PSItOCIgaW5rc2NhcGU6em9vbT0iNy42MTY2MTYiIG9iamVjdHRvbGVyYW5jZT0iMTAiIHBhZ2Vjb2xvcj0iI2ZmZmZmZiIgc2hvd2dyaWQ9ImZhbHNlIj4mI3hhOwk8L3NvZGlwb2RpOm5hbWVkdmlldz4mI3hhOyYjeGE7PHBhdGggaWQ9InBhdGg5OTMxNiIgaW5rc2NhcGU6Y29ubmVjdG9yLWN1cnZhdHVyZT0iMCIgc3R5bGU9ImZpbGw6IzM5OTljNiIgZD0ibSAwLDguMjggdiA0NC4yMSBjIDAsNC42MyAxMC4yMyw4LjI4IDIzLjAyLDguMjggViA4LjI4IFoiLz4mI3hhOyYjeGE7PHBhdGggaWQ9InBhdGg5OTMyNCIgaW5rc2NhcGU6Y29ubmVjdG9yLWN1cnZhdHVyZT0iMCIgc3R5bGU9ImZpbGw6IzU5YjRkOSIgZD0ibSAyMi42NSw2MC44OSBoIDAuMzcgYyAxMi42NiwwIDIzLjAxLC0zLjc3IDIzLjAxLC04LjI4IFYgOC4yOCBIIDIyLjY1IFoiLz4mI3hhOyYjeGE7PHBhdGggaWQ9InBhdGg5OTMzMiIgaW5rc2NhcGU6Y29ubmVjdG9yLWN1cnZhdHVyZT0iMCIgc3R5bGU9ImZpbGw6I2ZmZmZmZiIgZD0ibSA0Ni4wMyw4LjI4IGMgMCw0LjYzIC0xMC4yMyw4LjI4IC0yMy4wMSw4LjI4IEMgMTAuMjMsMTYuNTYgMCwxMi45MSAwLDguMjggMCwzLjc4IDEwLjM1LDAgMjMuMDIsMCAzNS42OCwwIDQ2LjAzLDMuNzggNDYuMDMsOC4yOCBaIi8+JiN4YTsmI3hhOzxwYXRoIGlkPSJwYXRoOTkzNDAiIGlua3NjYXBlOmNvbm5lY3Rvci1jdXJ2YXR1cmU9IjAiIHN0eWxlPSJmaWxsOiM3ZmJhMDAiIGQ9Im0gNDEuMjksNy43OSBjIDAsMy4wNSAtOC4xNiw1LjQ4IC0xOC4yNyw1LjQ4IC0xMC4xMSwwIC0xOC4yNywtMi40MyAtMTguMjcsLTUuNDggMCwtMy4wNCA4LjE2LC01LjQ4IDE4LjI3LC01LjQ4IDEwLjExLDAgMTguMjcsMi40NCAxOC4yNyw1LjQ4IHoiLz4mI3hhOyYjeGE7PHBhdGggaWQ9InBhdGg5OTM0OCIgaW5rc2NhcGU6Y29ubmVjdG9yLWN1cnZhdHVyZT0iMCIgc3R5bGU9ImZpbGw6I2I4ZDQzMiIgZD0ibSAzNy41MSwxMS4yIGMgMi40NCwtMC45NyAzLjc4LC0yLjA3IDMuNzgsLTMuNDEgMCwtMy4wNCAtOC4xNiwtNS40OCAtMTguMjcsLTUuNDggLTEwLjExLDAgLTE4LjI3LDIuNDQgLTE4LjI3LDUuNDggMCwxLjIyIDEuNDYsMi40NCAzLjc4LDMuNDEgMy4yOCwtMS4zNCA4LjUyLC0yLjE5IDE0LjQ5LC0yLjE5IDUuODQsMCAxMS4wOCwwLjg1IDE0LjQ5LDIuMTkgeiIvPiYjeGE7PHBhdGggZD0ibSAxNi40NDE2NDcsNTAuOTAzNTcgYyAtMS44MywwIC0zLjI5LC0wLjI0IC00LjI2LC0wLjYxIC0xLjEsLTAuMzYgLTEuODMsLTAuOTcgLTIuMzIsLTEuNyAtMC40OCwtMC44NSAtMC43MywtMi4wNyAtMC43MywtMy42NSB2IC0yLjY4IGMgMCwtMS43MSAtMC43MywtMi42OCAtMi4xOSwtMi42OCB2IC0zLjI5IGMgMS40NiwwIDIuMTksLTAuODUgMi4xOSwtMi42OCB2IC0yLjQ0IGMgMCwtMS43IDAuMjUsLTMuMDQgMC43MywtMy43NyAwLjQ5LC0wLjg1IDEuMjIsLTEuMzQgMi4xOSwtMS44MyAxLjEsLTAuMzYgMi40NCwtMC42MSA0LjI3LC0wLjYxIHYgMy4yOSBjIC0wLjg2LDAgLTEuMzQsMC4xMiAtMS44MywwLjQ5IC0wLjM2LDAuMzYgLTAuNjEsMC45NyAtMC42MSwxLjgyIHYgMi4wNyBjIDAsMS4zNCAtMC4xMiwyLjQ0IC0wLjQ5LDMuMjkgLTAuMzYsMC44NiAtMC45NywxLjQ2IC0xLjgyLDEuODMgMC44NSwwLjM3IDEuNDYsMC45NyAxLjgyLDEuOTUgMC4zNywwLjg1IDAuNjEsMi4wNyAwLjYxLDMuNDEgdiAxLjgzIGMgMCwwLjg1IDAuMTMsMS40NiAwLjQ5LDEuODIgMC4zNywwLjM3IDAuOTcsMC42MSAxLjgzLDAuNjEgdiAzLjUzIHoiIHN0eWxlPSJmaWxsOiNmZmZmZmYiIGlua3NjYXBlOmNvbm5lY3Rvci1jdXJ2YXR1cmU9IjAiIGlkPSJwYXRoOTkzNTgiLz4mI3hhOzxwYXRoIGQ9Im0gMzcuMTQ3MDQ3LDM5LjU4MzU3IGMgLTEuNDYsMCAtMi4xOSwwLjg1IC0yLjE5LDIuNjggdiAyLjQzIGMgMCwxLjcxIC0wLjI1LDMuMDUgLTAuNzQsMy43OCAtMC40OCwwLjg1IC0xLjIxLDEuMzQgLTIuMTksMS44MiAtMS4wOSwwLjM3IC0yLjQzLDAuNjEgLTQuMjYsMC42MSB2IC0zLjI5IGMgMC44NSwwIDEuNDYsLTAuMTIgMS44MywtMC40OCAwLjM2LC0wLjM3IDAuNjEsLTAuOTggMC42MSwtMS44MyB2IC0yLjA3IGMgMCwtMS4zNCAwLjEyLC0yLjQ0IDAuNDgsLTMuMjkgMC4zNywtMC44NSAwLjk4LC0xLjQ2IDEuODMsLTEuODIgLTAuODUsLTAuMzcgLTEuNDYsLTEuMSAtMS44MywtMS45NSAtMC4zNiwtMC44NiAtMC42MSwtMi4wNyAtMC42MSwtMy40MSB2IC0xLjgzIGMgMCwtMC44NSAtMC4xMiwtMS40NiAtMC40OCwtMS44MyAtMC4zNywtMC4zNiAtMC45OCwtMC42MSAtMS44MywtMC42MSB2IC0zLjI4IGMgMS44MywwIDMuMjksMC4yNCA0LjI2LDAuNiAxLjEsMC4zNyAxLjgzLDAuOTggMi4zMiwxLjcxIDAuNDgsMC44NSAwLjczLDIuMDcgMC43MywzLjY1IHYgMi42OCBjIDAsMS43MSAwLjczLDIuNjggMi4xOSwyLjY4IHYgMy4wNSB6IiBzdHlsZT0iZmlsbDojZmZmZmZmIiBpbmtzY2FwZTpjb25uZWN0b3ItY3VydmF0dXJlPSIwIiBpZD0icGF0aDk5MzY2Ii8+JiN4YTs8L3N2Zz4=;" vertex="1" parent="tBitRGPRe5gGITiWDtUl-52">
          <mxGeometry x="180" y="59.80000000000001" width="29.18" height="38.7" as="geometry" />
        </mxCell>
        <mxCell id="tBitRGPRe5gGITiWDtUl-57" value="cdc" style="shape=image;verticalLabelPosition=bottom;labelBackgroundColor=#ffffff;verticalAlign=top;aspect=fixed;imageAspect=0;image=data:image/svg+xml,PHN2ZyB4bWxuczpkYz0iaHR0cDovL3B1cmwub3JnL2RjL2VsZW1lbnRzLzEuMS8iIHhtbG5zOmNjPSJodHRwOi8vY3JlYXRpdmVjb21tb25zLm9yZy9ucyMiIHhtbG5zOnJkZj0iaHR0cDovL3d3dy53My5vcmcvMTk5OS8wMi8yMi1yZGYtc3ludGF4LW5zIyIgeG1sbnM6c3ZnPSJodHRwOi8vd3d3LnczLm9yZy8yMDAwL3N2ZyIgeG1sbnM9Imh0dHA6Ly93d3cudzMub3JnLzIwMDAvc3ZnIiB4bWxuczpzb2RpcG9kaT0iaHR0cDovL3NvZGlwb2RpLnNvdXJjZWZvcmdlLm5ldC9EVEQvc29kaXBvZGktMC5kdGQiIHhtbG5zOmlua3NjYXBlPSJodHRwOi8vd3d3Lmlua3NjYXBlLm9yZy9uYW1lc3BhY2VzL2lua3NjYXBlIiB2ZXJzaW9uPSIxLjEiIGlkPSJzdmc5OTM3MyIgaW5rc2NhcGU6dmVyc2lvbj0iMC45Mi4zICgyNDA1NTQ2LCAyMDE4LTAzLTExKSIgc29kaXBvZGk6ZG9jbmFtZT0iZG9jdW1lbnRkYi5zdmciIHg9IjBweCIgeT0iMHB4IiB2aWV3Qm94PSIwIDAgNDYuMDMgNjAuODkiIHhtbDpzcGFjZT0icHJlc2VydmUiIHdpZHRoPSI0Ni4wMjk5OTkiIGhlaWdodD0iNjAuODg5OTk5Ij48bWV0YWRhdGEgaWQ9Im1ldGFkYXRhNzMxIj48cmRmOlJERj48Y2M6V29yayByZGY6YWJvdXQ9IiI+PGRjOmZvcm1hdD5pbWFnZS9zdmcreG1sPC9kYzpmb3JtYXQ+PGRjOnR5cGUgcmRmOnJlc291cmNlPSJodHRwOi8vcHVybC5vcmcvZGMvZGNtaXR5cGUvU3RpbGxJbWFnZSIvPjxkYzp0aXRsZS8+PC9jYzpXb3JrPjwvcmRmOlJERj48L21ldGFkYXRhPjxkZWZzIGlkPSJkZWZzNzI5Ij4mI3hhOwkmI3hhOyYjeGE7CSYjeGE7JiN4YTsJJiN4YTsmI3hhOwkmI3hhOyYjeGE7CSYjeGE7JiN4YTsJJiN4YTsJJiN4YTsJJiN4YTsmI3hhOwkmI3hhOwkmI3hhOwkmI3hhOyYjeGE7CQkmI3hhOwkmI3hhOwkJJiN4YTsJJiN4YTsJCSYjeGE7CSYjeGE7CQkmI3hhOwkmI3hhOwkJJiN4YTsJJiN4YTsJCSYjeGE7CSYjeGE7CQkmI3hhOwkmI3hhOwkJCSYjeGE7CQkmI3hhOwkJCSYjeGE7CQk8L2RlZnM+JiN4YTs8ZmlsdGVyIGlkPSJmaWx0ZXJfMiI+JiN4YTsJPGZlR2F1c3NpYW5CbHVyIGlkPSJmZUdhdXNzaWFuQmx1cjk5MzAzIiBzdGREZXZpYXRpb249IjIiLz4mI3hhOzwvZmlsdGVyPiYjeGE7PHNvZGlwb2RpOm5hbWVkdmlldyBib3JkZXJjb2xvcj0iIzY2NjY2NiIgYm9yZGVyb3BhY2l0eT0iMSIgZml0LW1hcmdpbi1ib3R0b209IjAiIGZpdC1tYXJnaW4tbGVmdD0iMCIgZml0LW1hcmdpbi1yaWdodD0iMCIgZml0LW1hcmdpbi10b3A9IjAiIGdyaWR0b2xlcmFuY2U9IjEwIiBndWlkZXRvbGVyYW5jZT0iMTAiIGlkPSJuYW1lZHZpZXc5OTM3NSIgaW5rc2NhcGU6Y3VycmVudC1sYXllcj0ic3ZnOTkzNzMiIGlua3NjYXBlOmN4PSItMjkuMzEwMTI1IiBpbmtzY2FwZTpjeT0iNDAuNTkxMjM5IiBpbmtzY2FwZTpwYWdlb3BhY2l0eT0iMCIgaW5rc2NhcGU6cGFnZXNoYWRvdz0iMiIgaW5rc2NhcGU6d2luZG93LWhlaWdodD0iMTAxNyIgaW5rc2NhcGU6d2luZG93LW1heGltaXplZD0iMSIgaW5rc2NhcGU6d2luZG93LXdpZHRoPSIxOTIwIiBpbmtzY2FwZTp3aW5kb3cteD0iLTgiIGlua3NjYXBlOndpbmRvdy15PSItOCIgaW5rc2NhcGU6em9vbT0iNy42MTY2MTYiIG9iamVjdHRvbGVyYW5jZT0iMTAiIHBhZ2Vjb2xvcj0iI2ZmZmZmZiIgc2hvd2dyaWQ9ImZhbHNlIj4mI3hhOwk8L3NvZGlwb2RpOm5hbWVkdmlldz4mI3hhOyYjeGE7PHBhdGggaWQ9InBhdGg5OTMxNiIgaW5rc2NhcGU6Y29ubmVjdG9yLWN1cnZhdHVyZT0iMCIgc3R5bGU9ImZpbGw6IzM5OTljNiIgZD0ibSAwLDguMjggdiA0NC4yMSBjIDAsNC42MyAxMC4yMyw4LjI4IDIzLjAyLDguMjggViA4LjI4IFoiLz4mI3hhOyYjeGE7PHBhdGggaWQ9InBhdGg5OTMyNCIgaW5rc2NhcGU6Y29ubmVjdG9yLWN1cnZhdHVyZT0iMCIgc3R5bGU9ImZpbGw6IzU5YjRkOSIgZD0ibSAyMi42NSw2MC44OSBoIDAuMzcgYyAxMi42NiwwIDIzLjAxLC0zLjc3IDIzLjAxLC04LjI4IFYgOC4yOCBIIDIyLjY1IFoiLz4mI3hhOyYjeGE7PHBhdGggaWQ9InBhdGg5OTMzMiIgaW5rc2NhcGU6Y29ubmVjdG9yLWN1cnZhdHVyZT0iMCIgc3R5bGU9ImZpbGw6I2ZmZmZmZiIgZD0ibSA0Ni4wMyw4LjI4IGMgMCw0LjYzIC0xMC4yMyw4LjI4IC0yMy4wMSw4LjI4IEMgMTAuMjMsMTYuNTYgMCwxMi45MSAwLDguMjggMCwzLjc4IDEwLjM1LDAgMjMuMDIsMCAzNS42OCwwIDQ2LjAzLDMuNzggNDYuMDMsOC4yOCBaIi8+JiN4YTsmI3hhOzxwYXRoIGlkPSJwYXRoOTkzNDAiIGlua3NjYXBlOmNvbm5lY3Rvci1jdXJ2YXR1cmU9IjAiIHN0eWxlPSJmaWxsOiM3ZmJhMDAiIGQ9Im0gNDEuMjksNy43OSBjIDAsMy4wNSAtOC4xNiw1LjQ4IC0xOC4yNyw1LjQ4IC0xMC4xMSwwIC0xOC4yNywtMi40MyAtMTguMjcsLTUuNDggMCwtMy4wNCA4LjE2LC01LjQ4IDE4LjI3LC01LjQ4IDEwLjExLDAgMTguMjcsMi40NCAxOC4yNyw1LjQ4IHoiLz4mI3hhOyYjeGE7PHBhdGggaWQ9InBhdGg5OTM0OCIgaW5rc2NhcGU6Y29ubmVjdG9yLWN1cnZhdHVyZT0iMCIgc3R5bGU9ImZpbGw6I2I4ZDQzMiIgZD0ibSAzNy41MSwxMS4yIGMgMi40NCwtMC45NyAzLjc4LC0yLjA3IDMuNzgsLTMuNDEgMCwtMy4wNCAtOC4xNiwtNS40OCAtMTguMjcsLTUuNDggLTEwLjExLDAgLTE4LjI3LDIuNDQgLTE4LjI3LDUuNDggMCwxLjIyIDEuNDYsMi40NCAzLjc4LDMuNDEgMy4yOCwtMS4zNCA4LjUyLC0yLjE5IDE0LjQ5LC0yLjE5IDUuODQsMCAxMS4wOCwwLjg1IDE0LjQ5LDIuMTkgeiIvPiYjeGE7PHBhdGggZD0ibSAxNi40NDE2NDcsNTAuOTAzNTcgYyAtMS44MywwIC0zLjI5LC0wLjI0IC00LjI2LC0wLjYxIC0xLjEsLTAuMzYgLTEuODMsLTAuOTcgLTIuMzIsLTEuNyAtMC40OCwtMC44NSAtMC43MywtMi4wNyAtMC43MywtMy42NSB2IC0yLjY4IGMgMCwtMS43MSAtMC43MywtMi42OCAtMi4xOSwtMi42OCB2IC0zLjI5IGMgMS40NiwwIDIuMTksLTAuODUgMi4xOSwtMi42OCB2IC0yLjQ0IGMgMCwtMS43IDAuMjUsLTMuMDQgMC43MywtMy43NyAwLjQ5LC0wLjg1IDEuMjIsLTEuMzQgMi4xOSwtMS44MyAxLjEsLTAuMzYgMi40NCwtMC42MSA0LjI3LC0wLjYxIHYgMy4yOSBjIC0wLjg2LDAgLTEuMzQsMC4xMiAtMS44MywwLjQ5IC0wLjM2LDAuMzYgLTAuNjEsMC45NyAtMC42MSwxLjgyIHYgMi4wNyBjIDAsMS4zNCAtMC4xMiwyLjQ0IC0wLjQ5LDMuMjkgLTAuMzYsMC44NiAtMC45NywxLjQ2IC0xLjgyLDEuODMgMC44NSwwLjM3IDEuNDYsMC45NyAxLjgyLDEuOTUgMC4zNywwLjg1IDAuNjEsMi4wNyAwLjYxLDMuNDEgdiAxLjgzIGMgMCwwLjg1IDAuMTMsMS40NiAwLjQ5LDEuODIgMC4zNywwLjM3IDAuOTcsMC42MSAxLjgzLDAuNjEgdiAzLjUzIHoiIHN0eWxlPSJmaWxsOiNmZmZmZmYiIGlua3NjYXBlOmNvbm5lY3Rvci1jdXJ2YXR1cmU9IjAiIGlkPSJwYXRoOTkzNTgiLz4mI3hhOzxwYXRoIGQ9Im0gMzcuMTQ3MDQ3LDM5LjU4MzU3IGMgLTEuNDYsMCAtMi4xOSwwLjg1IC0yLjE5LDIuNjggdiAyLjQzIGMgMCwxLjcxIC0wLjI1LDMuMDUgLTAuNzQsMy43OCAtMC40OCwwLjg1IC0xLjIxLDEuMzQgLTIuMTksMS44MiAtMS4wOSwwLjM3IC0yLjQzLDAuNjEgLTQuMjYsMC42MSB2IC0zLjI5IGMgMC44NSwwIDEuNDYsLTAuMTIgMS44MywtMC40OCAwLjM2LC0wLjM3IDAuNjEsLTAuOTggMC42MSwtMS44MyB2IC0yLjA3IGMgMCwtMS4zNCAwLjEyLC0yLjQ0IDAuNDgsLTMuMjkgMC4zNywtMC44NSAwLjk4LC0xLjQ2IDEuODMsLTEuODIgLTAuODUsLTAuMzcgLTEuNDYsLTEuMSAtMS44MywtMS45NSAtMC4zNiwtMC44NiAtMC42MSwtMi4wNyAtMC42MSwtMy40MSB2IC0xLjgzIGMgMCwtMC44NSAtMC4xMiwtMS40NiAtMC40OCwtMS44MyAtMC4zNywtMC4zNiAtMC45OCwtMC42MSAtMS44MywtMC42MSB2IC0zLjI4IGMgMS44MywwIDMuMjksMC4yNCA0LjI2LDAuNiAxLjEsMC4zNyAxLjgzLDAuOTggMi4zMiwxLjcxIDAuNDgsMC44NSAwLjczLDIuMDcgMC43MywzLjY1IHYgMi42OCBjIDAsMS43MSAwLjczLDIuNjggMi4xOSwyLjY4IHYgMy4wNSB6IiBzdHlsZT0iZmlsbDojZmZmZmZmIiBpbmtzY2FwZTpjb25uZWN0b3ItY3VydmF0dXJlPSIwIiBpZD0icGF0aDk5MzY2Ii8+JiN4YTs8L3N2Zz4=;" vertex="1" parent="tBitRGPRe5gGITiWDtUl-52">
          <mxGeometry x="37" y="59.80000000000001" width="29.18" height="38.7" as="geometry" />
        </mxCell>
        <mxCell id="tBitRGPRe5gGITiWDtUl-58" value="" style="image;aspect=fixed;html=1;points=[];align=center;fontSize=12;image=img/lib/azure2/networking/Private_Endpoint.svg;" vertex="1" parent="tBitRGPRe5gGITiWDtUl-52">
          <mxGeometry y="120" width="25.93" height="23.77" as="geometry" />
        </mxCell>
        <mxCell id="tBitRGPRe5gGITiWDtUl-59" value="" style="image;sketch=0;aspect=fixed;html=1;points=[];align=center;fontSize=12;image=img/lib/mscae/Key.svg;" vertex="1" parent="tBitRGPRe5gGITiWDtUl-21">
          <mxGeometry x="13.140495867768596" y="-8.179503586075572e-15" width="24.174418604651162" height="38.98988372093023" as="geometry" />
        </mxCell>
        <mxCell id="tBitRGPRe5gGITiWDtUl-60" value="&amp;nbsp; &amp;nbsp; &amp;nbsp; &amp;nbsp; &amp;nbsp; &amp;nbsp; &amp;nbsp; &amp;nbsp; &amp;nbsp; &amp;nbsp; &amp;nbsp;&lt;b&gt;Resource Group&amp;nbsp;&lt;/b&gt;" style="rounded=0;whiteSpace=wrap;html=1;horizontal=1;align=left;verticalAlign=top;container=0;" vertex="1" parent="tBitRGPRe5gGITiWDtUl-21">
          <mxGeometry x="1162.6" y="80" width="440" height="680" as="geometry" />
        </mxCell>
        <mxCell id="tBitRGPRe5gGITiWDtUl-61" value="&lt;span style=&quot;color: rgba(0, 0, 0, 0); font-family: monospace; font-size: 0px; text-align: start; background-color: rgb(251, 251, 251);&quot;&gt;%3CmxGraphModel%3E%3Croot%3E%3CmxCell%20id%3D%220%22%2F%3E%3CmxCell%20id%3D%221%22%20parent%3D%220%22%2F%3E%3CmxCell%20id%3D%222%22%20value%3D%22%26amp%3Bnbsp%3B%20%26amp%3Bnbsp%3B%20%26amp%3Bnbsp%3B%20%26amp%3Bnbsp%3B%20%26amp%3Bnbsp%3B%20%26amp%3Bnbsp%3B%20%26amp%3Bnbsp%3B%20%26amp%3Bnbsp%3B%20%26amp%3Bnbsp%3B%20%26amp%3Bnbsp%3B%20%26amp%3Bnbsp%3B%26lt%3Bb%26gt%3BResource%20Group%20-%26amp%3Bnbsp%3Brg-gclint-syncro-stream-%5Benv%5D-i%26lt%3B%2Fb%26gt%3B%22%20style%3D%22rounded%3D0%3BwhiteSpace%3Dwrap%3Bhtml%3D1%3Bhorizontal%3D1%3Balign%3Dleft%3BverticalAlign%3Dtop%3Bcontainer%3D0%3B%22%20vertex%3D%221%22%20parent%3D%221%22%3E%3CmxGeometry%20x%3D%2220.000000000000007%22%20y%3D%22120%22%20width%3D%221060%22%20height%3D%22680%22%20as%3D%22geometry%22%2F%3E%3C%2FmxCell%3E%3C%2Froot%3E%3C%2FmxGraphModel%3E&lt;/span&gt;" style="image;sketch=0;aspect=fixed;html=1;points=[];align=center;fontSize=12;image=img/lib/mscae/ResourceGroup.svg;" vertex="1" parent="tBitRGPRe5gGITiWDtUl-21">
          <mxGeometry x="1172.6033991025001" y="80.004974" width="44.57904975045071" height="35.656820930706076" as="geometry" />
        </mxCell>
        <mxCell id="tBitRGPRe5gGITiWDtUl-62" value="&amp;nbsp; &amp;nbsp; &amp;nbsp; &amp;nbsp; &amp;nbsp; &amp;nbsp; &amp;nbsp; &amp;nbsp; &amp;nbsp; &amp;nbsp; &amp;nbsp;&lt;b&gt;Virtual Network - Programa Cliente&lt;/b&gt;" style="rounded=0;whiteSpace=wrap;html=1;horizontal=1;align=center;verticalAlign=top;" vertex="1" parent="tBitRGPRe5gGITiWDtUl-21">
          <mxGeometry x="1192.6" y="140" width="360" height="550" as="geometry" />
        </mxCell>
        <mxCell id="tBitRGPRe5gGITiWDtUl-63" value="" style="verticalLabelPosition=bottom;html=1;verticalAlign=top;align=center;strokeColor=none;fillColor=#00BEF2;shape=mxgraph.azure.virtual_network;pointerEvents=1;" vertex="1" parent="tBitRGPRe5gGITiWDtUl-21">
          <mxGeometry x="1202.6017982558787" y="150.00353384562467" width="51.52259521943972" height="28.029347019253862" as="geometry" />
        </mxCell>
        <mxCell id="tBitRGPRe5gGITiWDtUl-64" style="edgeStyle=orthogonalEdgeStyle;rounded=0;orthogonalLoop=1;jettySize=auto;html=1;" edge="1" parent="tBitRGPRe5gGITiWDtUl-21" source="tBitRGPRe5gGITiWDtUl-32" target="tBitRGPRe5gGITiWDtUl-68">
          <mxGeometry relative="1" as="geometry" />
        </mxCell>
        <mxCell id="tBitRGPRe5gGITiWDtUl-65" value="&lt;b&gt;&lt;font style=&quot;font-size: 13px;&quot;&gt;Event Hub - &lt;br&gt;logs&lt;/font&gt;&lt;/b&gt;" style="rounded=1;whiteSpace=wrap;html=1;verticalAlign=top;fillColor=#d5e8d4;strokeColor=#82b366;" vertex="1" parent="tBitRGPRe5gGITiWDtUl-21">
          <mxGeometry x="1366.02" y="426.25" width="110" height="87.5" as="geometry" />
        </mxCell>
        <mxCell id="tBitRGPRe5gGITiWDtUl-66" style="edgeStyle=orthogonalEdgeStyle;rounded=0;orthogonalLoop=1;jettySize=auto;html=1;" edge="1" parent="tBitRGPRe5gGITiWDtUl-21" target="tBitRGPRe5gGITiWDtUl-65">
          <mxGeometry relative="1" as="geometry">
            <Array as="points">
              <mxPoint x="1219.49" y="340" />
              <mxPoint x="1219.49" y="555" />
            </Array>
            <mxPoint x="502.60482692031314" y="340" as="sourcePoint" />
          </mxGeometry>
        </mxCell>
        <mxCell id="tBitRGPRe5gGITiWDtUl-67" value="" style="group" vertex="1" connectable="0" parent="tBitRGPRe5gGITiWDtUl-21">
          <mxGeometry x="1362.6" y="272.46" width="104.90000000000009" height="98.36000000000001" as="geometry" />
        </mxCell>
        <mxCell id="tBitRGPRe5gGITiWDtUl-68" value="&lt;b&gt;&lt;font style=&quot;font-size: 13px;&quot;&gt;Event Hub - &lt;br&gt;Consolidador&lt;/font&gt;&lt;/b&gt;" style="rounded=1;whiteSpace=wrap;html=1;verticalAlign=top;fillColor=#d5e8d4;strokeColor=#82b366;" vertex="1" parent="tBitRGPRe5gGITiWDtUl-67">
          <mxGeometry width="104.9" height="98.36" as="geometry" />
        </mxCell>
        <mxCell id="tBitRGPRe5gGITiWDtUl-69" value="" style="image;sketch=0;aspect=fixed;html=1;points=[];align=center;fontSize=12;image=img/lib/mscae/Event_Hubs.svg;fillColor=#dae8fc;strokeColor=#6c8ebf;" vertex="1" parent="tBitRGPRe5gGITiWDtUl-67">
          <mxGeometry x="34.02999999999997" y="47.139999999999986" width="36.83" height="38.36" as="geometry" />
        </mxCell>
        <mxCell id="tBitRGPRe5gGITiWDtUl-70" value="" style="image;sketch=0;aspect=fixed;html=1;points=[];align=center;fontSize=12;image=img/lib/mscae/Event_Hubs.svg;fillColor=#dae8fc;strokeColor=#6c8ebf;" vertex="1" parent="tBitRGPRe5gGITiWDtUl-21">
          <mxGeometry x="1402.6" y="470" width="36.83" height="38.36" as="geometry" />
        </mxCell>
      </root>
    </mxGraphModel>
  </diagram>
</mxfile>
